<svg width="133" height="107" viewBox="0 0 133 107" fill="none" xmlns="http://www.w3.org/2000/svg">
<g clip-path="url(#clip0_357_14)">
<path d="M25.6651 0.344248C25.6651 0.344248 25.3195 0.344248 25.2103 0.452951C25.1012 0.561654 24.8647 0.797177 24.7556 0.797177C24.6465 0.797177 24.5191 1.1414 24.5191 1.1414C24.5191 1.1414 24.1735 1.59433 24.1735 1.72115C24.1735 1.82986 23.8279 2.40961 23.8279 2.40961L22.682 3.44228C22.682 3.44228 21.427 4.02203 21.427 4.13074C21.427 4.23944 21.1905 4.69237 20.9722 4.81919C20.7358 4.92789 21.3178 4.92789 20.5175 5.16341C19.7172 5.39894 18.8077 5.39894 18.8077 5.39894L17.9892 5.81563L16.4977 5.59823C16.4977 5.59823 15.8065 5.1453 15.8065 5.48952C15.8065 5.83375 15.2244 6.5222 15.2244 6.63091C15.2244 6.73961 14.988 7.88099 14.7697 8.11651C14.5514 8.33392 12.8234 9.34848 12.8234 9.34848L10.3133 11.0696L9.73125 11.8668L9.51298 13.4611L8.93092 15.5264L8.47619 16.8852L7.4394 18.2621L6.18434 21.1065L5.38402 22.0124L5.96607 23.1538L6.20253 23.6067L5.4022 24.4038L4.80196 25.0017L4.5655 26.2518L3.87431 27.3932L2.83752 28.4259L3.40138 29.1143L4.78377 30.2557L5.82056 31.7413L5.92969 32.5385L6.38443 33.6798L6.49356 34.9299L5.80237 36.3068L5.69323 37.2127L6.49356 38.1185C6.49356 38.1185 7.40303 38.807 7.40303 38.9157C7.40303 39.0244 6.94829 40.1658 6.94829 40.1658L6.49356 40.6187L5.27488 41.8869L4.47455 42.7928L3.8925 43.9342L3.43776 44.84C3.43776 44.84 3.2013 45.5285 3.32863 45.5285C3.45595 45.5285 3.67422 46.4343 3.67422 46.4343L2.8739 47.5757L2.5283 48.3729L1.03678 49.2787L0.23645 49.17V49.5142L0.800318 52.4855L1.94624 53.7355V56.7068L2.85571 61.2723L4.80196 62.7579L6.29348 64.8051L7.33027 67.3234C7.33027 67.3234 8.23973 68.809 8.36706 69.3707C8.47619 69.9504 8.82179 70.1678 8.93092 70.7476C9.04006 71.3273 9.38566 71.3273 9.38566 71.3273C9.38566 71.3273 10.768 71.9071 11.3319 72.36C11.8958 72.8129 12.0231 73.9543 12.0231 73.9543C12.0231 73.9543 12.6052 75.5486 12.6052 76.0015C12.6052 76.4545 11.8048 77.8314 11.8048 77.8314L10.0768 79.317L10.477 79.4257H10.6407L11.0954 79.317L11.6593 79.5525L12.5688 79.6612L13.3691 79.8967L14.2786 80.241V80.9294L15.188 80.8207C15.188 80.8207 15.2972 80.1323 15.188 80.0236C15.0789 79.9148 16.0975 80.2591 16.0975 80.2591C16.0975 80.2591 16.4431 80.9475 16.4431 81.0562C16.4431 81.1649 17.2434 81.4005 17.2434 81.4005L18.3893 81.2918L19.6444 80.4946L20.0991 79.3532L20.7903 79.009L21.4815 78.5561C21.4815 78.5561 21.9363 78.1031 21.9363 77.9763V77.1792C21.9363 76.8349 22.5183 77.1792 22.5183 77.1792L23.2095 77.7589L23.1004 78.5561C23.1004 78.5561 23.3368 79.009 23.446 79.1177C23.5551 79.2264 24.0098 79.1177 24.1372 79.009C24.2463 78.9003 24.7192 79.009 24.7192 79.009C24.7192 79.009 25.1739 78.4474 25.1739 78.3205C25.1739 78.1937 25.8651 78.7735 25.8651 78.7735L26.5563 79.1177L27.3567 78.8822L28.157 78.4292C28.157 78.4292 27.8114 77.6321 27.8114 77.5234C27.8114 77.4147 27.2293 76.6175 27.2293 76.6175L26.5381 75.1319L26.9929 74.4435C26.9929 74.4435 27.102 74.4435 27.7932 74.5522C28.4844 74.6609 28.3571 74.7877 28.5935 75.0051C28.8846 75.2225 29.1028 74.6428 29.1028 74.5341C29.1028 74.4253 28.9937 73.6282 28.9937 73.6282L29.794 72.4687L30.8308 72.0158L31.8676 71.6715L32.2132 72.2332L31.8676 72.8129L31.4129 73.2658L30.7217 74.1717L30.6125 75.3131L30.849 76.3458L30.6125 77.2516L30.1578 78.2843V78.5198L30.6125 79.5525C30.6125 79.5525 30.7217 80.3497 30.7217 80.4584C30.7217 80.5671 30.3761 81.02 30.3761 81.02L30.0305 81.4729L29.794 82.1614L29.9032 82.7411L30.2488 83.5383L32.6497 84.7884L33.6865 85.0239L34.596 85.3681C34.596 85.3681 35.2872 86.6182 35.2872 86.745C35.2872 86.8537 35.5236 87.5422 35.5236 87.6509C35.5236 87.7596 36.0875 87.7596 36.2148 87.7596C36.324 87.7596 36.5604 87.6509 36.5604 87.6509C36.5604 87.6509 36.906 87.0711 37.0152 86.9624C37.1243 86.8537 37.7064 86.9624 37.7064 86.9624H38.8523L39.5435 87.5241L40.2347 87.6328L40.5803 87.053C40.5803 87.053 41.035 86.2559 40.9259 86.1472C40.8167 86.0385 41.035 85.2413 41.035 85.1145C41.035 85.0058 41.3806 84.5347 41.3806 84.5347C41.3806 84.5347 41.9445 84.0818 42.0718 84.0818C42.1809 84.0818 42.9812 84.5347 42.9812 84.6434C42.9812 84.7521 44.018 84.5347 44.1272 84.4079C44.2363 84.2992 44.9275 84.5166 45.0366 84.5166C45.1458 84.5166 45.2731 85.3138 45.2731 85.4225C45.2731 85.5312 45.6187 86.1109 45.6187 86.1109L46.0734 86.9081H46.6555C46.7646 86.9081 47.4558 86.5638 47.4558 86.5638L48.147 86.0022C48.147 86.0022 48.3835 85.4225 48.4926 85.2051C48.6017 84.9695 49.1838 84.7521 49.2929 84.6253C49.4021 84.5166 49.4021 84.1724 49.4021 84.0637C49.4021 83.955 49.8568 83.2665 49.8568 83.2665L50.3115 84.0637L51.0027 84.8608L50.7663 86.0022C50.7663 86.0022 51.0027 86.4551 51.0027 86.5638C51.0027 86.6726 50.8936 87.1255 50.8936 87.1255L50.548 87.361L49.6385 87.4697H48.6017C48.4926 87.4697 48.2561 88.0495 48.2561 88.1582C48.2561 88.2669 48.3653 88.9553 48.3653 88.9553L48.9291 89.5351L49.493 89.988L50.5298 90.4409C50.5298 90.4409 51.3301 90.4409 51.4393 90.3322C51.5484 90.2235 52.3487 89.5351 52.3487 89.5351L53.0399 89.6438L53.4947 90.8939V91.691C53.4947 91.7997 53.1491 92.1439 53.1491 92.1439L53.2582 93.0498V94.1912C53.2582 94.2999 53.0217 94.5354 53.0217 94.5354L51.8758 93.9738L50.9663 93.394L50.0569 93.847L49.8386 94.3905L50.4025 95.0789C50.4025 95.0789 51.3119 95.6406 51.4393 95.6406C51.5484 95.6406 52.3487 96.4377 52.3487 96.4377L52.5852 97.4704V97.8146C52.5852 97.8146 52.8217 98.2675 52.9308 98.2675C53.0399 98.2675 53.2764 98.956 53.2764 99.3002C53.2764 99.6444 53.622 99.88 53.622 99.9887C53.622 100.097 54.204 100.333 54.204 100.333H55.0044L55.4591 99.9887C55.4591 99.9887 55.9138 99.6444 55.9138 99.5357C55.9138 99.427 56.1503 98.7386 56.1503 98.7386V97.5972C56.1503 97.4885 56.2594 97.253 56.2594 97.253C56.2594 97.253 56.4959 96.9088 56.4959 96.8001C56.4959 96.6913 56.605 96.4558 56.605 96.4558C56.605 96.4558 56.4959 96.0029 56.4959 95.8942C56.4959 95.7855 56.3867 95.4413 56.3867 95.4413C56.3867 95.4413 56.0412 94.9883 55.932 94.8615C55.8229 94.7528 55.8229 94.2818 55.8229 94.2818L56.1685 93.8288H56.7323L57.5327 93.7201L57.6418 93.0317C57.6418 93.0317 58.0965 92.4519 58.0965 92.3432C58.0965 92.2345 58.333 91.6548 58.4421 91.4374C58.5513 91.2018 59.1333 90.6402 59.1333 90.6402C59.1333 90.6402 59.4789 90.0786 59.4789 89.9518C59.4789 89.8431 59.0242 89.372 59.0242 89.372L58.6786 88.8104C58.6786 88.8104 58.333 88.3575 58.0965 88.3575C57.8601 88.3575 57.7509 88.8104 57.7509 88.9191C57.7509 89.0278 57.2962 89.6075 57.2962 89.6075C57.2962 89.6075 56.9506 90.5134 56.9506 90.6402C56.9506 90.767 56.2594 90.7489 56.1503 90.7489C56.0412 90.7489 55.8047 90.5134 55.8047 90.4047C55.8047 90.296 55.9138 89.4988 55.9138 89.372C55.9138 89.2633 56.2594 88.4662 56.2594 88.4662V87.2161L56.8415 86.6544V86.2015V85.4044L56.4959 84.4985C56.4959 84.4985 56.7323 84.0456 56.7323 83.9369C56.7323 83.8282 57.1871 83.2484 57.3144 83.1397C57.4235 83.031 57.3144 82.56 57.3144 82.56L57.0779 81.6541L57.3144 81.4186L57.66 81.1831H59.1515L60.643 80.9475L61.4434 80.4946L61.8981 79.9149L62.3528 79.5706L61.8981 78.6648L61.4434 78.4292L60.5339 77.7408L60.2974 77.161L59.4971 76.5813L58.5876 76.9255L56.6414 77.0342L55.259 77.3784C55.259 77.3784 54.8043 78.4111 54.8043 78.6285C54.8043 78.8641 53.6584 78.9728 53.5492 78.9728H52.6398V78.2843L53.4401 77.7046L53.8948 76.9074V76.2189L54.8043 75.9834C54.8043 75.9834 56.6414 75.6392 56.7505 75.6392C56.8597 75.6392 57.66 75.1863 57.66 75.0595C57.66 74.9326 58.6968 74.9507 58.6968 74.9507C58.6968 74.9507 59.7336 74.4978 59.9518 74.4978C60.1701 74.4978 60.2974 74.0449 60.2974 73.8094C60.2974 73.5738 59.9518 73.1209 59.9518 73.1209L59.3698 71.9795L60.9704 72.2151L61.8799 72.1063L63.0258 71.8708C63.0258 71.8708 63.4806 72.4506 63.4806 72.668C63.4806 72.9035 64.5174 72.3238 64.5174 72.3238L65.8997 71.9795L66.7001 72.4687C66.7001 72.4687 67.2639 73.0303 67.5004 73.1571C67.7369 73.2659 67.7369 73.9543 67.7369 73.9543C67.7369 73.9543 67.846 74.8602 67.846 74.987V75.7841L68.0824 76.69H68.428L69.9196 76.2371L70.7199 76.3458C70.7199 76.3458 71.2838 75.0957 71.2838 74.7515C71.2838 74.4072 70.829 73.9543 70.829 73.9543L69.7922 72.9216L69.3375 71.7802L69.4466 70.7476L69.2102 69.9504L68.9737 68.9177L68.6281 68.1206L68.2825 66.635C68.2825 66.635 68.0461 65.6023 68.0461 65.4936C68.0461 65.3849 68.7373 64.2435 68.7373 64.2435C68.7373 64.2435 69.0829 63.555 69.192 63.4463C69.3011 63.3376 70.2288 63.1021 70.2288 63.1021L70.6835 63.5551V64.2435L70.4471 65.2762L69.9923 66.182V66.8705L70.9382 68.4829L71.2838 69.3888H72.5388L73.4483 69.4975L73.903 69.8417C73.903 69.8417 74.4669 70.6389 74.5942 70.7476C74.7033 70.8563 74.9398 71.3273 75.1763 71.5447C75.4127 71.7802 75.4127 71.436 75.4127 71.436C75.4127 71.436 75.5219 70.5302 75.5219 70.4033C75.5219 70.2946 75.7583 69.7149 75.8675 69.6062C75.9766 69.4975 76.3222 69.7149 76.3222 69.7149C76.3222 69.7149 76.7769 70.2765 76.8861 70.4033C76.9952 70.512 76.9952 71.3092 76.9952 71.3092L76.7587 72.2151L76.304 73.0122L76.9952 73.8094H77.7955C77.9047 73.8094 78.3776 73.9181 78.3776 73.9181L79.1779 74.371C79.1779 74.371 79.6326 74.2623 79.76 74.2623C79.8691 74.2623 80.6694 74.1536 80.7968 74.1536C80.9059 74.1536 81.4879 74.2623 81.4879 74.2623C81.4879 74.2623 81.9427 73.9181 82.1791 73.6825C82.4156 73.447 82.8703 73.447 82.8703 73.447L82.9795 74.0087L83.4342 74.8058L83.7798 75.3856C83.7798 75.3856 84.2345 75.4943 85.3804 75.3856L85.9625 75.2769L86.3081 73.2296L85.3986 71.744C85.3986 71.744 84.4892 70.7113 84.3619 70.6026C84.2345 70.4939 83.5615 69.8055 83.798 69.6968C84.0344 69.5881 85.053 69.8055 85.2895 69.6968C85.526 69.5881 86.5446 69.6968 86.5446 69.6968H87.7996L89.7459 69.117C89.7459 69.117 89.855 69.0083 89.7459 68.4286C89.6367 67.8669 89.2911 66.7256 89.2911 66.7256C89.2911 66.7256 89.5276 66.0371 89.6367 65.9284C89.7459 65.8197 90.0915 65.3486 90.4371 65.2399C90.7827 65.1312 91.1283 65.0044 91.4739 65.0044C91.8195 65.0044 94.8025 64.4247 94.9116 64.4247C95.0208 64.4247 96.6214 64.7689 96.6214 64.7689L98.5677 63.863L99.0224 63.1746L99.1315 62.8304L99.4771 61.5803C99.4771 61.5803 100.732 60.4389 100.969 60.4389C101.205 60.4389 102.115 60.0947 102.115 60.0947L102.351 59.5149L103.843 58.8265L104.879 58.4822L106.371 58.2467L106.826 57.667L107.408 57.214L107.99 54.587L108.899 53.6812H110.736C110.736 53.6812 110.973 53.9167 111.082 53.9167C111.191 53.9167 112.464 54.1522 112.464 54.1522C112.464 54.1522 113.155 53.2464 113.155 53.1196C113.155 52.9927 114.192 51.8695 114.192 51.8695L114.592 50.8006C114.592 50.8006 114.483 49.6592 114.356 49.6592C114.247 49.6592 112.974 48.2823 112.974 48.2823H111.828L110.463 47.2496L108.735 45.0755L107.608 43.4812L105.88 41.8869L100.95 39.8397L100.15 38.9338L99.1134 37.5569L98.8769 36.9953L100.041 35.9445C100.041 35.9445 100.95 35.3829 101.078 35.3829C101.187 35.3829 102.115 34.5857 102.115 34.477C102.115 34.3683 102.005 32.5385 102.005 32.5385L101.66 31.3971L101.951 30.4006L101.769 30.1832L100.041 31.7232L97.8583 31.1434L96.6032 29.7665L93.8567 29.6578L92.7107 29.7665L90.8736 30.7992L90.4189 32.0493H87.3267L86.0716 33.8791L84.0163 34.3321L80.5785 32.9552L79.1961 32.2667H76.6678L73.4665 31.4695C73.4665 31.4695 71.8658 32.158 71.8658 31.4695C71.8658 30.7811 70.6108 29.9839 70.6108 29.9839C70.6108 29.9839 69.1192 28.7338 69.2284 28.3896C69.3375 28.0454 69.1192 27.4838 69.2284 27.0127C69.3375 26.5598 69.2284 25.4184 69.2284 25.1829C69.2284 24.9474 68.3189 23.806 68.3189 23.806C68.3189 23.806 66.5909 25.4003 66.5909 26.0887C66.5909 26.7772 65.5541 26.9946 65.5541 26.9946H62.6802C62.6802 26.9946 60.2793 27.9005 59.8063 27.9005C59.3516 27.9005 59.8063 28.3534 59.8063 28.3534L58.6604 28.2447C58.6604 28.2447 57.4053 28.4802 57.278 28.2447C57.1689 28.0092 56.8233 27.7918 56.4777 27.3388C56.1321 26.8859 55.7865 26.8859 55.7865 26.8859C55.7865 26.8859 55.55 25.7445 55.0953 24.7118C55.0953 24.7118 52.0031 24.8205 51.7667 25.0561C51.5302 25.2916 49.9296 24.3676 49.9296 24.3676L49.1292 24.2589C49.1292 24.2589 46.9465 25.0561 46.1462 25.0561C45.3459 25.0561 46.1462 24.4763 46.1462 24.4763L45.0003 23.7879H43.6543L42.6175 22.882L43.0722 22.4291L43.7634 21.9761L45.0185 21.0703L46.1644 20.6174V19.1318V17.5737V16.8852L45.5823 16.4323C45.5823 16.4323 45.0003 15.1822 44.6729 14.9467C44.3273 14.7112 44.4364 14.3851 44.4364 14.3851L43.7452 13.135L42.9449 12.7907C42.9449 12.7907 42.3628 12.2291 41.6898 11.6494C40.9986 11.0696 41.6898 10.9609 41.6898 10.9609C41.6898 10.9609 41.1078 9.81953 41.1078 9.71082C41.1078 9.60212 40.653 8.67815 40.653 8.67815L39.1615 7.77229C39.1615 7.77229 37.5608 7.77229 37.3244 8.00781C37.0879 8.24333 36.7605 7.55488 36.7605 7.55488L35.1599 8.24333C35.1599 8.24333 33.2136 7.55488 33.2136 7.33747C33.2136 7.10195 32.1768 6.08739 32.1768 6.08739L31.2674 5.52576C31.2674 5.52576 29.885 5.18153 29.7758 5.18153C29.6667 5.18153 28.9755 5.07283 28.9755 5.07283C28.9755 5.07283 28.6299 4.6199 28.6299 4.49308C28.6299 4.38438 28.5208 3.80463 28.5208 3.58722C28.5208 3.3517 28.1752 3.24299 28.1752 3.00747C28.1752 2.77195 27.3749 2.77195 27.3749 2.77195C27.3749 2.77195 26.4654 2.0835 26.3381 1.97479C26.2289 1.86609 25.6469 0.253662 25.6469 0.253662" fill="#FFD9EC"/>
<path d="M25.6651 0.344248C25.6651 0.344248 25.3195 0.344248 25.2103 0.452951C25.1012 0.561654 24.8647 0.797177 24.7556 0.797177C24.6465 0.797177 24.5191 1.1414 24.5191 1.1414C24.5191 1.1414 24.1735 1.59433 24.1735 1.72115C24.1735 1.82986 23.8279 2.40961 23.8279 2.40961L22.682 3.44228C22.682 3.44228 21.427 4.02203 21.427 4.13074C21.427 4.23944 21.1905 4.69237 20.9722 4.81919C20.7358 4.92789 21.3178 4.92789 20.5175 5.16341C19.7172 5.39894 18.8077 5.39894 18.8077 5.39894L17.9892 5.81563L16.4977 5.59823C16.4977 5.59823 15.8065 5.1453 15.8065 5.48952C15.8065 5.83375 15.2244 6.5222 15.2244 6.63091C15.2244 6.73961 14.988 7.88099 14.7697 8.11651C14.5514 8.33392 12.8234 9.34848 12.8234 9.34848L10.3133 11.0696L9.73125 11.8668L9.51298 13.4611L8.93092 15.5264L8.47619 16.8852L7.4394 18.2621L6.18434 21.1065L5.38402 22.0124L5.96607 23.1538L6.20253 23.6067L5.4022 24.4038L4.80196 25.0017L4.5655 26.2518L3.87431 27.3932L2.83752 28.4259L3.40138 29.1143L4.78377 30.2557L5.82056 31.7413L5.92969 32.5385L6.38443 33.6798L6.49356 34.9299L5.80237 36.3068L5.69323 37.2127L6.49356 38.1185C6.49356 38.1185 7.40303 38.807 7.40303 38.9157C7.40303 39.0244 6.94829 40.1658 6.94829 40.1658L6.49356 40.6187L5.27488 41.8869L4.47455 42.7928L3.8925 43.9342L3.43776 44.84C3.43776 44.84 3.2013 45.5285 3.32863 45.5285C3.45595 45.5285 3.67422 46.4343 3.67422 46.4343L2.8739 47.5757L2.5283 48.3729L1.03678 49.2787L0.23645 49.17V49.5142L0.800318 52.4855L1.94624 53.7355V56.7068L2.85571 61.2723L4.80196 62.7579L6.29348 64.8051L7.33027 67.3234C7.33027 67.3234 8.23973 68.809 8.36706 69.3707C8.47619 69.9504 8.82179 70.1678 8.93092 70.7476C9.04006 71.3273 9.38566 71.3273 9.38566 71.3273C9.38566 71.3273 10.768 71.9071 11.3319 72.36C11.8958 72.8129 12.0231 73.9543 12.0231 73.9543C12.0231 73.9543 12.6052 75.5486 12.6052 76.0015C12.6052 76.4545 11.8048 77.8314 11.8048 77.8314L10.0768 79.317L10.477 79.4257H10.6407L11.0954 79.317L11.6593 79.5525L12.5688 79.6612L13.3691 79.8967L14.2786 80.241V80.9294L15.188 80.8207C15.188 80.8207 15.2972 80.1323 15.188 80.0236C15.0789 79.9148 16.0975 80.2591 16.0975 80.2591C16.0975 80.2591 16.4431 80.9475 16.4431 81.0562C16.4431 81.1649 17.2434 81.4005 17.2434 81.4005L18.3893 81.2918L19.6444 80.4946L20.0991 79.3532L20.7903 79.009L21.4815 78.5561C21.4815 78.5561 21.9363 78.1031 21.9363 77.9763V77.1792C21.9363 76.8349 22.5183 77.1792 22.5183 77.1792L23.2095 77.7589L23.1004 78.5561C23.1004 78.5561 23.3368 79.009 23.446 79.1177C23.5551 79.2264 24.0098 79.1177 24.1372 79.009C24.2463 78.9003 24.7192 79.009 24.7192 79.009C24.7192 79.009 25.1739 78.4474 25.1739 78.3205C25.1739 78.1937 25.8651 78.7735 25.8651 78.7735L26.5563 79.1177L27.3567 78.8822L28.157 78.4292C28.157 78.4292 27.8114 77.6321 27.8114 77.5234C27.8114 77.4147 27.2293 76.6175 27.2293 76.6175L26.5381 75.1319L26.9929 74.4435C26.9929 74.4435 27.102 74.4435 27.7932 74.5522C28.4844 74.6609 28.3571 74.7877 28.5935 75.0051C28.8846 75.2225 29.1028 74.6428 29.1028 74.5341C29.1028 74.4253 28.9937 73.6282 28.9937 73.6282L29.794 72.4687L30.8308 72.0158L31.8676 71.6715L32.2132 72.2332L31.8676 72.8129L31.4129 73.2658L30.7217 74.1717L30.6125 75.3131L30.849 76.3458L30.6125 77.2516L30.1578 78.2843V78.5198L30.6125 79.5525C30.6125 79.5525 30.7217 80.3497 30.7217 80.4584C30.7217 80.5671 30.3761 81.02 30.3761 81.02L30.0305 81.4729L29.794 82.1614L29.9032 82.7411L30.2488 83.5383L32.6497 84.7884L33.6865 85.0239L34.596 85.3681C34.596 85.3681 35.2872 86.6182 35.2872 86.745C35.2872 86.8537 35.5236 87.5422 35.5236 87.6509C35.5236 87.7596 36.0875 87.7596 36.2148 87.7596C36.324 87.7596 36.5604 87.6509 36.5604 87.6509C36.5604 87.6509 36.906 87.0711 37.0152 86.9624C37.1243 86.8537 37.7064 86.9624 37.7064 86.9624H38.8523L39.5435 87.5241L40.2347 87.6328L40.5803 87.053C40.5803 87.053 41.035 86.2559 40.9259 86.1472C40.8167 86.0385 41.035 85.2413 41.035 85.1145C41.035 85.0058 41.3806 84.5347 41.3806 84.5347C41.3806 84.5347 41.9445 84.0818 42.0718 84.0818C42.1809 84.0818 42.9812 84.5347 42.9812 84.6434C42.9812 84.7521 44.018 84.5347 44.1272 84.4079C44.2363 84.2992 44.9275 84.5166 45.0366 84.5166C45.1458 84.5166 45.2731 85.3138 45.2731 85.4225C45.2731 85.5312 45.6187 86.1109 45.6187 86.1109L46.0734 86.9081H46.6555C46.7646 86.9081 47.4558 86.5638 47.4558 86.5638L48.147 86.0022C48.147 86.0022 48.3835 85.4225 48.4926 85.2051C48.6017 84.9695 49.1838 84.7521 49.2929 84.6253C49.4021 84.5166 49.4021 84.1724 49.4021 84.0637C49.4021 83.955 49.8568 83.2665 49.8568 83.2665L50.3115 84.0637L51.0027 84.8608L50.7663 86.0022C50.7663 86.0022 51.0027 86.4551 51.0027 86.5638C51.0027 86.6726 50.8936 87.1255 50.8936 87.1255L50.548 87.361L49.6385 87.4697H48.6017C48.4926 87.4697 48.2561 88.0495 48.2561 88.1582C48.2561 88.2669 48.3653 88.9553 48.3653 88.9553L48.9291 89.5351L49.493 89.988L50.5298 90.4409C50.5298 90.4409 51.3301 90.4409 51.4393 90.3322C51.5484 90.2235 52.3487 89.5351 52.3487 89.5351L53.0399 89.6438L53.4947 90.8939V91.691C53.4947 91.7997 53.1491 92.1439 53.1491 92.1439L53.2582 93.0498V94.1912C53.2582 94.2999 53.0217 94.5354 53.0217 94.5354L51.8758 93.9738L50.9663 93.394L50.0569 93.847L49.8386 94.3905L50.4025 95.0789C50.4025 95.0789 51.3119 95.6406 51.4393 95.6406C51.5484 95.6406 52.3487 96.4377 52.3487 96.4377L52.5852 97.4704V97.8146C52.5852 97.8146 52.8217 98.2675 52.9308 98.2675C53.0399 98.2675 53.2764 98.956 53.2764 99.3002C53.2764 99.6444 53.622 99.88 53.622 99.9887C53.622 100.097 54.204 100.333 54.204 100.333H55.0044L55.4591 99.9887C55.4591 99.9887 55.9138 99.6444 55.9138 99.5357C55.9138 99.427 56.1503 98.7386 56.1503 98.7386V97.5972C56.1503 97.4885 56.2594 97.253 56.2594 97.253C56.2594 97.253 56.4959 96.9088 56.4959 96.8001C56.4959 96.6913 56.605 96.4558 56.605 96.4558C56.605 96.4558 56.4959 96.0029 56.4959 95.8942C56.4959 95.7855 56.3867 95.4413 56.3867 95.4413C56.3867 95.4413 56.0412 94.9883 55.932 94.8615C55.8229 94.7528 55.8229 94.2818 55.8229 94.2818L56.1685 93.8288H56.7323L57.5327 93.7201L57.6418 93.0317C57.6418 93.0317 58.0965 92.4519 58.0965 92.3432C58.0965 92.2345 58.333 91.6548 58.4421 91.4374C58.5513 91.2018 59.1333 90.6402 59.1333 90.6402C59.1333 90.6402 59.4789 90.0786 59.4789 89.9518C59.4789 89.8431 59.0242 89.372 59.0242 89.372L58.6786 88.8104C58.6786 88.8104 58.333 88.3575 58.0965 88.3575C57.8601 88.3575 57.7509 88.8104 57.7509 88.9191C57.7509 89.0278 57.2962 89.6075 57.2962 89.6075C57.2962 89.6075 56.9506 90.5134 56.9506 90.6402C56.9506 90.767 56.2594 90.7489 56.1503 90.7489C56.0412 90.7489 55.8047 90.5134 55.8047 90.4047C55.8047 90.296 55.9138 89.4988 55.9138 89.372C55.9138 89.2633 56.2594 88.4662 56.2594 88.4662V87.2161L56.8415 86.6544V86.2015V85.4044L56.4959 84.4985C56.4959 84.4985 56.7323 84.0456 56.7323 83.9369C56.7323 83.8282 57.1871 83.2484 57.3144 83.1397C57.4235 83.031 57.3144 82.56 57.3144 82.56L57.0779 81.6541L57.3144 81.4186L57.66 81.1831H59.1515L60.643 80.9475L61.4434 80.4946L61.8981 79.9149L62.3528 79.5706L61.8981 78.6648L61.4434 78.4292L60.5339 77.7408L60.2974 77.161L59.4971 76.5813L58.5876 76.9255L56.6414 77.0342L55.259 77.3784C55.259 77.3784 54.8043 78.4111 54.8043 78.6285C54.8043 78.8641 53.6584 78.9728 53.5492 78.9728H52.6398V78.2843L53.4401 77.7046L53.8948 76.9074V76.2189L54.8043 75.9834C54.8043 75.9834 56.6414 75.6392 56.7505 75.6392C56.8597 75.6392 57.66 75.1863 57.66 75.0595C57.66 74.9326 58.6968 74.9507 58.6968 74.9507C58.6968 74.9507 59.7336 74.4978 59.9518 74.4978C60.1701 74.4978 60.2974 74.0449 60.2974 73.8094C60.2974 73.5738 59.9518 73.1209 59.9518 73.1209L59.3698 71.9795L60.9704 72.2151L61.8799 72.1063L63.0258 71.8708C63.0258 71.8708 63.4806 72.4506 63.4806 72.668C63.4806 72.9035 64.5174 72.3238 64.5174 72.3238L65.8997 71.9795L66.7001 72.4687C66.7001 72.4687 67.2639 73.0303 67.5004 73.1571C67.7369 73.2659 67.7369 73.9543 67.7369 73.9543C67.7369 73.9543 67.846 74.8602 67.846 74.987V75.7841L68.0824 76.69H68.428L69.9196 76.2371L70.7199 76.3458C70.7199 76.3458 71.2838 75.0957 71.2838 74.7515C71.2838 74.4072 70.829 73.9543 70.829 73.9543L69.7922 72.9216L69.3375 71.7802L69.4466 70.7476L69.2102 69.9504L68.9737 68.9177L68.6281 68.1206L68.2825 66.635C68.2825 66.635 68.0461 65.6023 68.0461 65.4936C68.0461 65.3849 68.7373 64.2435 68.7373 64.2435C68.7373 64.2435 69.0829 63.555 69.192 63.4463C69.3011 63.3376 70.2288 63.1021 70.2288 63.1021L70.6835 63.5551V64.2435L70.4471 65.2762L69.9923 66.182V66.8705L70.9382 68.4829L71.2838 69.3888H72.5388L73.4483 69.4975L73.903 69.8417C73.903 69.8417 74.4669 70.6389 74.5942 70.7476C74.7033 70.8563 74.9398 71.3273 75.1763 71.5447C75.4127 71.7802 75.4127 71.436 75.4127 71.436C75.4127 71.436 75.5219 70.5302 75.5219 70.4033C75.5219 70.2946 75.7583 69.7149 75.8675 69.6062C75.9766 69.4975 76.3222 69.7149 76.3222 69.7149C76.3222 69.7149 76.7769 70.2765 76.8861 70.4033C76.9952 70.512 76.9952 71.3092 76.9952 71.3092L76.7587 72.2151L76.304 73.0122L76.9952 73.8094H77.7955C77.9047 73.8094 78.3776 73.9181 78.3776 73.9181L79.1779 74.371C79.1779 74.371 79.6326 74.2623 79.76 74.2623C79.8691 74.2623 80.6694 74.1536 80.7968 74.1536C80.9059 74.1536 81.4879 74.2623 81.4879 74.2623C81.4879 74.2623 81.9427 73.9181 82.1791 73.6825C82.4156 73.447 82.8703 73.447 82.8703 73.447L82.9795 74.0087L83.4342 74.8058L83.7798 75.3856C83.7798 75.3856 84.2345 75.4943 85.3804 75.3856L85.9625 75.2769L86.3081 73.2296L85.3986 71.744C85.3986 71.744 84.4892 70.7113 84.3619 70.6026C84.2345 70.4939 83.5615 69.8055 83.798 69.6968C84.0344 69.5881 85.053 69.8055 85.2895 69.6968C85.526 69.5881 86.5446 69.6968 86.5446 69.6968H87.7996L89.7459 69.117C89.7459 69.117 89.855 69.0083 89.7459 68.4286C89.6367 67.8669 89.2911 66.7256 89.2911 66.7256C89.2911 66.7256 89.5276 66.0371 89.6367 65.9284C89.7459 65.8197 90.0915 65.3486 90.4371 65.2399C90.7827 65.1312 91.1283 65.0044 91.4739 65.0044C91.8195 65.0044 94.8025 64.4247 94.9116 64.4247C95.0208 64.4247 96.6214 64.7689 96.6214 64.7689L98.5677 63.863L99.0224 63.1746L99.1315 62.8304L99.4771 61.5803C99.4771 61.5803 100.732 60.4389 100.969 60.4389C101.205 60.4389 102.115 60.0947 102.115 60.0947L102.351 59.5149L103.843 58.8265L104.879 58.4822L106.371 58.2467L106.826 57.667L107.408 57.214L107.99 54.587L108.899 53.6812H110.736C110.736 53.6812 110.973 53.9167 111.082 53.9167C111.191 53.9167 112.464 54.1522 112.464 54.1522C112.464 54.1522 113.155 53.2464 113.155 53.1196C113.155 52.9927 114.192 51.8695 114.192 51.8695L114.592 50.8006C114.592 50.8006 114.483 49.6592 114.356 49.6592C114.247 49.6592 112.974 48.2823 112.974 48.2823H111.828L110.463 47.2496L108.735 45.0755L107.608 43.4812L105.88 41.8869L100.95 39.8397L100.15 38.9338L99.1134 37.5569L98.8769 36.9953L100.041 35.9445C100.041 35.9445 100.95 35.3829 101.078 35.3829C101.187 35.3829 102.115 34.5857 102.115 34.477C102.115 34.3683 102.005 32.5385 102.005 32.5385L101.66 31.3971L101.951 30.4006L101.769 30.1832L100.041 31.7232L97.8583 31.1434L96.6032 29.7665L93.8567 29.6578L92.7107 29.7665L90.8736 30.7992L90.4189 32.0493H87.3267L86.0716 33.8791L84.0163 34.3321L80.5785 32.9552L79.1961 32.2667H76.6678L73.4665 31.4695C73.4665 31.4695 71.8658 32.158 71.8658 31.4695C71.8658 30.7811 70.6108 29.9839 70.6108 29.9839C70.6108 29.9839 69.1192 28.7338 69.2284 28.3896C69.3375 28.0454 69.1192 27.4838 69.2284 27.0127C69.3375 26.5598 69.2284 25.4184 69.2284 25.1829C69.2284 24.9474 68.3189 23.806 68.3189 23.806C68.3189 23.806 66.5909 25.4003 66.5909 26.0887C66.5909 26.7772 65.5541 26.9946 65.5541 26.9946H62.6802C62.6802 26.9946 60.2793 27.9005 59.8063 27.9005C59.3516 27.9005 59.8063 28.3534 59.8063 28.3534L58.6604 28.2447C58.6604 28.2447 57.4053 28.4802 57.278 28.2447C57.1689 28.0092 56.8233 27.7918 56.4777 27.3388C56.1321 26.8859 55.7865 26.8859 55.7865 26.8859C55.7865 26.8859 55.55 25.7445 55.0953 24.7118C55.0953 24.7118 52.0031 24.8205 51.7667 25.0561C51.5302 25.2916 49.9296 24.3676 49.9296 24.3676L49.1292 24.2589C49.1292 24.2589 46.9465 25.0561 46.1462 25.0561C45.3459 25.0561 46.1462 24.4763 46.1462 24.4763L45.0003 23.7879H43.6543L42.6175 22.882L43.0722 22.4291L43.7634 21.9761L45.0185 21.0703L46.1644 20.6174V19.1318V17.5737V16.8852L45.5823 16.4323C45.5823 16.4323 45.0003 15.1822 44.6729 14.9467C44.3273 14.7112 44.4364 14.3851 44.4364 14.3851L43.7452 13.135L42.9449 12.7907C42.9449 12.7907 42.3628 12.2291 41.6898 11.6494C40.9986 11.0696 41.6898 10.9609 41.6898 10.9609C41.6898 10.9609 41.1078 9.81953 41.1078 9.71082C41.1078 9.60212 40.653 8.67815 40.653 8.67815L39.1615 7.77229C39.1615 7.77229 37.5608 7.77229 37.3244 8.00781C37.0879 8.24333 36.7605 7.55488 36.7605 7.55488L35.1599 8.24333C35.1599 8.24333 33.2136 7.55488 33.2136 7.33747C33.2136 7.10195 32.1768 6.08739 32.1768 6.08739L31.2674 5.52576C31.2674 5.52576 29.885 5.18153 29.7758 5.18153C29.6667 5.18153 28.9755 5.07283 28.9755 5.07283C28.9755 5.07283 28.6299 4.6199 28.6299 4.49308C28.6299 4.38438 28.5208 3.80463 28.5208 3.58722C28.5208 3.3517 28.1752 3.24299 28.1752 3.00747C28.1752 2.77195 27.3749 2.77195 27.3749 2.77195C27.3749 2.77195 26.4654 2.0835 26.3381 1.97479C26.2289 1.86609 25.6469 0.253662 25.6469 0.253662" stroke="black" stroke-width="0.3" stroke-miterlimit="10" stroke-linecap="round" stroke-linejoin="round"/>
<path d="M76.7224 81.6722L76.3768 83.0491L76.2676 83.955L76.7224 84.4079L77.5227 85.2051V86.1109L77.2862 87.5966L77.3954 88.285L77.5045 89.0822L77.1589 89.6438L76.7042 90.0967V90.5497L76.2494 90.8939L75.5583 91.3468L75.4491 91.7997V92.3976L75.9039 92.6331L76.4859 92.5244L76.9406 91.7273L77.741 91.1475L78.7778 91.2562V91.9447C78.7778 91.9447 79.0142 92.5244 78.7778 92.6331C78.5413 92.7418 78.4322 92.9774 78.4322 92.9774L78.323 93.6658C78.323 93.6658 78.0866 93.9013 77.9774 93.9013H77.5227V94.6985L77.1771 95.1514C77.1771 95.1514 76.9406 95.3869 76.8315 95.3869H76.2676H75.922L75.6856 96.0754L76.1403 96.5283L76.7042 96.8725L76.595 97.4523L76.9406 98.1407L77.741 98.7205L77.8501 99.3002L77.741 99.8619L76.9406 100.206L75.9039 99.7532L75.34 99.0647L75.1035 98.032L74.3032 98.1407L73.3937 98.032L73.0481 98.3763V99.4089L72.939 99.9887L72.5934 100.442L71.7931 100.55L70.9927 100.659L70.6472 101.003V101.583L70.4107 102.38L70.7563 103.069L71.211 103.522L71.1019 103.866L70.4107 103.974C70.4107 103.974 69.956 104.083 69.956 104.21C69.956 104.337 69.7195 104.772 69.7195 104.772L69.6104 105.351V105.696L69.3739 106.04L68.7918 106.384L68.228 106.62C68.228 106.62 67.8824 106.855 67.7732 106.855C67.6641 106.855 66.9729 106.746 66.9729 106.746C66.9729 106.746 66.409 106.638 66.2817 106.638C66.1726 106.638 65.9361 106.402 65.9361 106.402L65.6997 106.058V105.605L65.9361 105.261L66.2817 105.152L66.9729 104.917L67.4276 104.681L67.5368 104.572V104.119L66.9547 104.011L66.5 103.666L66.0453 103.558V103.214L65.9361 102.761L66.0453 102.416C66.0453 102.416 66.1544 101.963 66.2817 101.963C66.3909 101.963 66.8456 101.619 66.8456 101.619L67.1912 101.384L67.3003 101.148L67.1912 100.804L66.8456 100.568L65.8088 100.46H65.2449L64.8993 100.351L64.6629 100.116V99.7713L64.4264 99.5358L63.7352 99.3002L63.8444 98.956L64.0808 98.7205L64.4264 98.485L65.1176 98.3763L65.6997 98.2676L66.1544 98.032L66.2635 97.7965L66.3727 97.561L66.6091 97.2168L67.1912 96.3109L67.5368 95.7493C67.5368 95.7493 67.6459 95.4051 67.5368 95.4051C67.4276 95.4051 67.1912 95.1695 67.1912 95.1695V94.8253V93.9194L66.9547 93.5752L66.7546 93.3035L66.409 93.539L66.0635 93.9919L65.6087 94.7891L64.9175 95.3507H64.2263H63.6625L63.3169 95.6949L62.9713 96.2566L62.2801 96.7095L61.4798 96.6008L61.1342 95.8036L60.7886 95.242C60.7886 95.242 60.6794 94.6622 60.6794 94.5535C60.6794 94.4448 60.3338 93.7564 60.3338 93.7564L59.7518 93.0679V92.1621V91.4736L60.2065 91.0207L60.443 90.4409L60.7886 89.8793L61.025 89.5351C61.025 89.5351 61.2615 89.4264 61.3706 89.2996C61.4798 89.1909 61.6071 89.1909 61.6071 89.1909L62.1891 88.8466L62.4256 88.5024L62.7712 88.0495L63.0077 87.9408H63.5897L64.2809 88.285L64.9721 88.7379L65.6633 89.1909H66.118L66.4636 89.0822L66.8092 88.7379L67.0457 88.6292L67.2821 88.7379L67.6277 88.9735L67.9733 89.5351L68.2098 89.8793L68.6645 90.1148H69.1193L69.574 90.4591C69.574 90.4591 69.6831 90.6946 69.8104 90.6946C69.9378 90.6946 70.2652 90.8033 70.2652 90.8033H70.3743V90.4591V90.1148V89.7706C70.3743 89.6619 70.1379 89.3177 70.1379 89.3177C70.1379 89.3177 70.1379 88.9735 70.0287 88.9735C69.9196 88.9735 69.6831 88.7379 69.6831 88.7379L69.3375 88.5024L69.1011 88.2669L68.9919 87.814V87.4697L68.8828 87.0168C68.8828 87.0168 68.9919 86.6726 68.8828 86.6726C68.7737 86.6726 68.4281 86.3284 68.4281 86.3284L68.3189 85.9841V85.7486L68.5554 85.5131C68.5554 85.5131 68.7918 85.4044 68.901 85.4044H69.5922L70.156 85.1688C70.156 85.1688 70.3925 84.8246 70.5016 84.8246C70.6108 84.8246 71.0655 84.7159 71.0655 84.7159L71.7567 84.4804H72.4479L72.557 84.2449L72.6662 83.6651L72.9026 83.4296L73.3574 83.1941L73.9394 83.0854L74.285 82.9767L74.5215 82.6325V82.1795L74.285 81.2737L74.3941 80.6939L74.7397 80.1142L75.1945 79.5344L75.7765 79.2989L76.5769 79.1902L77.4863 79.5344L78.1775 79.9873L78.2139 80.5309C78.2139 80.5309 78.1048 80.7664 78.1048 80.8751C78.1048 80.9838 77.5409 81.4367 77.5409 81.4367L76.7224 81.6722Z" fill="#FFD9EC" stroke="black" stroke-width="0.3" stroke-miterlimit="10" stroke-linecap="round" stroke-linejoin="round"/>
<path d="M41.5989 91.2018C41.5989 91.2018 39.5435 90.622 39.5435 90.7489C39.5435 90.8576 38.1611 90.7489 38.1611 90.7489L37.4699 91.2018C37.4699 91.2018 37.3608 91.546 37.3608 91.6547C37.3608 91.7634 37.4699 92.2163 37.4699 92.2163L37.7064 92.325L38.1611 92.6693L39.5435 92.9048H40.453L40.9077 92.5606L41.3624 92.2163L41.8171 92.1076L42.0536 91.9989V91.4192L41.5989 91.2018Z" fill="#FFD9EC" stroke="black" stroke-width="0.3" stroke-miterlimit="10" stroke-linecap="round" stroke-linejoin="round"/>
<path d="M42.3992 93.0136L41.8172 93.4847L41.708 93.9376L41.4716 94.4992V95.2964L41.5989 95.9848L41.8172 96.3291H42.2901L42.8539 96.2204L43.0904 95.9848H43.7634L44.3455 95.8761L44.4546 95.4232V94.9703L44.2363 94.3905L43.7634 93.9376L43.1995 93.5934L42.9813 93.0136L42.7448 92.9049L42.3992 93.0136Z" fill="#FFD9EC" stroke="black" stroke-width="0.3" stroke-miterlimit="10" stroke-linecap="round" stroke-linejoin="round"/>
<path d="M27.8478 89.2452L28.3025 89.0278V88.1038L28.7572 87.4335L29.5576 87.3067L29.9032 87.6509L30.3579 88.1038L30.8308 88.4481L31.2855 88.6836L31.5038 88.7923V89.2452L31.1582 89.825L30.9399 90.3866V90.8576L31.1582 91.2019L31.7403 91.7635L31.9767 92.1077L31.8494 92.4519H31.2855L31.0491 92.5607L30.2487 92.1077L29.212 91.528L28.7572 91.2019L27.8478 90.9663L26.9201 91.2019H25.7742L24.9739 90.8576L24.41 90.7308L24.0644 90.1692L23.9553 89.5894V89.1365L24.0644 88.4481L24.6283 87.8864L25.1012 87.198L25.9015 86.745L26.3562 86.5095L26.4654 85.8392L27.1566 85.2594L27.7386 84.8065L28.539 84.6797H28.8846L28.9937 85.0239V85.3681L28.4116 85.9479L28.066 86.6363L27.7386 87.4335L27.5022 87.9951L27.6113 88.7923L27.8478 89.2452Z" fill="#FFD9EC" stroke="black" stroke-width="0.3" stroke-miterlimit="10" stroke-linecap="round" stroke-linejoin="round"/>
<path d="M14.4423 93.4846V94.2818L14.5514 94.9702L14.897 95.4231L15.3517 95.7674L15.4609 96.1116L15.3517 96.4558L14.897 96.9087L14.4423 97.253L14.2058 97.5972L14.0967 97.9414L14.6605 98.2856L15.0061 98.5212L15.6973 98.8654V99.2096L15.8065 99.7713L16.0429 100.224L16.4977 100.46L16.9524 100.351H17.8619L18.4257 100.242L18.8805 100.007L19.3352 99.5539V98.8654L19.0987 98.4125L18.9896 97.724L19.0987 97.3798L19.4443 97.1443L20.3538 97.0356L20.9177 96.5826H21.4997H22.0636L22.3 97.0356V97.3798C22.3 97.3798 22.0636 97.724 22.0636 97.8327C22.0636 97.9414 21.9544 98.4125 21.9544 98.4125L21.718 99.1009V99.3364L21.6089 99.7894L21.718 100.025L21.8271 100.26L21.9363 100.84V101.42L22.1727 101.873L23.2095 101.982L24.3554 102.326L25.1558 102.217L25.7196 102.326L26.1744 101.982C26.1744 101.982 26.4108 102.217 26.52 102.217C26.6291 102.217 26.7564 102.67 26.7564 102.67L27.5567 103.014L28.3571 103.123H28.7027L28.8118 102.543L28.7027 101.855L28.4116 101.456L28.3025 101.003V100.423L28.539 100.188L28.9937 99.735L29.3393 99.6444L29.5758 99.4089V98.2675C29.5758 98.2675 29.3393 97.2349 29.3393 97.1262V96.6732L29.4484 96.1116L29.6849 95.4231C29.6849 95.4231 29.5758 94.9702 29.6849 94.9702C29.794 94.9702 30.0305 94.626 30.0305 94.626L30.3761 94.3905L30.4852 93.9375L30.3761 93.4846L29.8122 93.2491L29.2483 93.0136L28.7936 92.6693L28.448 92.5606H27.9933H27.4294L26.6291 92.4519L26.1744 92.1077H25.374L24.8102 92.6693L24.0098 93.231L23.5551 93.5752V93.9194L22.8639 93.8107L22.6274 93.231L22.1727 92.5425L22.0636 92.1983L21.8271 91.7454L21.2633 91.5098L20.6812 91.2743L20.4447 91.0388C20.4447 91.0388 20.3356 90.8033 20.3356 90.6946C20.3356 90.5859 20.2265 90.1329 20.2265 90.1329V89.8974C20.2265 89.7887 19.8809 89.5532 19.8809 89.5532L19.7717 89.209L19.5353 88.6473L19.4261 87.9589L19.7717 87.5059L19.8809 87.053L20.6266 86.9624L20.9722 86.7269L21.2087 86.6182L21.3178 86.274L21.427 85.6942L21.6634 85.4587L22.009 85.0058V84.6615L21.8999 84.0999L21.6634 83.4115L21.7726 82.723L20.7358 82.0345H19.9354H19.2442L18.3348 82.1433L17.6436 82.7411L17.1889 83.4296L16.9524 83.9912L16.7341 84.6797V85.0239L15.9338 85.2594L15.4609 85.4949L15.1153 85.9479C15.1153 85.9479 15.2244 86.1834 15.1153 86.2921C15.0061 86.4008 14.5514 86.745 14.5514 86.745V87.4335L14.3149 88.0132L13.9875 88.2306L13.5328 88.4661L13.4237 88.9191V89.6075L13.5328 90.1873L13.4237 90.8757L13.6601 91.6729L13.8966 92.5787L14.4423 93.4846Z" fill="#FFD9EC" stroke="black" stroke-width="0.3" stroke-miterlimit="10" stroke-linecap="round" stroke-linejoin="round"/>
<path d="M120.613 57.4495L119.576 57.214C119.576 57.214 119.467 56.5255 119.34 56.4168C119.231 56.3081 118.54 55.1668 118.54 55.0399V53.8986L118.085 52.8659L117.048 52.6304C117.048 52.6304 115.793 52.7391 115.666 52.6304C115.556 52.5216 114.865 52.2861 114.865 52.2861L114.283 51.9419L114.192 51.7426L114.574 50.7643C114.574 50.7643 114.465 49.6229 114.338 49.6229C114.229 49.6229 112.955 48.246 112.955 48.246H111.864L110.482 47.2133L108.754 45.0393L107.608 43.4449L105.88 41.8506L100.95 39.8034L100.15 38.8975L99.1134 37.5206L98.8769 36.959L100.023 35.9263C100.023 35.9263 100.932 35.3466 101.06 35.3466C101.169 35.3466 102.096 34.5494 102.096 34.4407C102.096 34.332 101.987 32.5022 101.987 32.5022L101.642 31.3608L101.915 30.3462L101.733 30.1288L103.915 29.6759L105.298 29.3317L105.989 29.4404V27.7374L106.898 25.3459L109.991 23.8603L112.628 23.7516L114.12 23.9871L115.72 23.7516L117.666 24.7843L118.467 25.5814L119.504 25.9256L119.049 26.9583C119.049 26.9583 119.285 27.8642 118.94 28.2084C118.594 28.5526 118.594 29.1143 118.831 29.2411C119.067 29.3498 121.232 30.4912 121.232 30.4912C121.232 30.4912 122.141 30.2556 122.141 30.1469C122.141 30.0382 122.705 29.2411 122.705 29.2411L124.542 29.0056L126.488 28.5526L128.089 28.8969L130.726 30.0382L131.872 30.9441L132.072 31.397C132.072 31.5057 131.836 32.1942 131.836 32.1942L132.072 32.8826L132.418 33.5711L132.764 34.477V35.727L132.418 36.4155L132.072 36.7597L132.181 37.6656L132.291 38.2272L132.4 39.3686L132.163 40.1657L131.599 40.51L131.363 41.3071L131.254 42.1043L130.908 42.7927L130.672 43.4812L130.326 44.1696L129.762 44.5139L128.38 45.0936L127.798 44.0609L127.689 42.3398L127.125 40.981L126.67 41.3252C126.67 41.3252 126.907 42.1224 126.907 42.2311C126.907 42.3398 127.143 43.4812 127.143 43.4812C127.143 43.4812 127.034 44.6226 127.034 44.8581C127.034 45.0936 126.124 45.9995 126.124 45.9995H125.324L124.524 46.1082L124.069 46.9053C124.069 46.9053 124.415 48.2822 124.524 48.2822C124.633 48.2822 124.979 48.3909 124.979 48.3909V49.2968C124.979 49.4055 124.633 49.7497 124.633 49.7497L124.524 50.3114L124.869 51.4527L124.415 51.9057L123.614 52.5941V53.5L124.306 53.8442V54.424V54.6595L124.069 55.2392C124.069 55.2392 123.378 55.3479 123.269 55.3479C123.16 55.3479 122.359 55.5835 122.359 55.5835L121.45 56.0364C121.45 56.0364 121.341 56.3806 121.341 56.4893C121.341 56.598 121.232 56.8335 120.995 56.9422C120.74 57.1053 120.613 57.4495 120.613 57.4495Z" fill="#FFB2D9" stroke="black" stroke-width="0.3" stroke-miterlimit="10" stroke-linecap="round" stroke-linejoin="round"/>
<path d="M114.192 51.8513L114.32 51.9781L114.902 52.3224C114.902 52.3224 115.593 52.5579 115.702 52.6666C115.811 52.7753 117.084 52.6666 117.084 52.6666L118.121 52.9021L118.576 53.9348V55.0762C118.576 55.1849 119.267 56.3263 119.376 56.4531C119.485 56.5618 119.613 57.2502 119.613 57.2502L120.649 57.4858L119.958 57.83L119.613 58.0655L118.576 58.1742L117.994 58.2829L117.648 58.6271L117.412 59.0801L116.957 61.0186L116.721 61.8158C116.721 61.8158 116.375 62.0513 116.266 62.0513C116.157 62.0513 115.466 62.3955 115.466 62.5042C115.466 62.6129 115.575 63.084 115.575 63.084L115.811 63.7724V64.1166L115.702 64.5696L115.356 65.1312L114.774 65.8197L114.429 66.3994L114.192 66.8523C114.192 66.8523 113.956 67.414 114.083 67.414C114.192 67.414 114.083 67.7582 114.083 67.7582L113.628 68.2111L112.937 68.5553L112.137 69.117L111.446 69.9141L111.209 70.6026L110.864 71.0555C110.864 71.0555 110.409 71.291 110.282 71.291C110.172 71.291 109.245 71.0555 109.245 71.0555L108.208 70.9468L107.517 70.4939H106.953L106.371 70.9468L105.789 71.291L105.552 71.9795C105.552 71.9795 105.207 72.3237 105.316 72.4324C105.425 72.5411 105.771 72.9941 105.771 72.9941L106.116 73.6825C106.116 73.6825 106.225 73.918 106.225 74.0267C106.225 74.1354 106.335 74.8239 106.335 74.8239V75.5123H105.643L104.843 75.4036L103.934 75.2949L103.479 74.4978L102.678 73.8093L102.224 73.5738H101.66L101.205 73.8093L100.969 74.2623L100.732 74.7152L100.387 75.1681L99.8228 75.5123L99.4772 76.3095C99.4772 76.3095 99.368 77.2335 99.2407 77.2335C99.1134 77.2335 98.8951 77.7951 98.8951 77.7951L98.4404 78.3749L97.8583 77.469C97.8583 77.469 97.4036 77.2335 97.4036 77.1248C97.4036 77.0161 96.8215 77.2335 96.8215 77.3603C96.8215 77.469 96.9307 78.0487 96.9307 78.0487C96.9307 78.0487 97.0398 78.6285 97.0398 78.7372C97.0398 78.8459 96.9307 79.0814 96.9307 79.0814L96.2395 79.8786L95.8757 79.7155C95.8757 79.7155 95.2936 79.8242 95.2936 79.951C95.2936 80.0598 94.7298 80.2953 94.7298 80.2953C94.7298 80.2953 94.6206 80.1866 94.4933 79.951C94.3842 79.7155 94.0386 79.4981 94.0386 79.3713V78.1212L93.9294 76.5269L94.6206 74.8058L95.2027 73.3202L94.9662 72.1788L93.8203 73.3202L92.9108 74.5702L92.347 75.3674L91.4375 75.2587L91.0919 74.3528C91.0919 74.3528 90.2916 73.7912 90.2916 74.0086C90.2916 74.2441 89.946 75.0413 89.946 75.0413C89.946 75.0413 89.7095 75.3855 89.4912 75.3855C89.2548 75.3855 89.0365 75.4942 89.0365 75.4942C89.0365 75.4942 88.4545 75.7297 88.2362 75.7297C87.9997 75.7297 86.7447 75.1681 86.7447 75.1681H85.9989L86.3445 73.302L85.435 71.8164C85.435 71.8164 84.5256 70.7838 84.3983 70.6751C84.2891 70.5664 83.5979 69.8779 83.8344 69.7692C84.0708 69.6605 85.0894 69.8779 85.3259 69.7692C85.5624 69.6605 86.581 69.7692 86.581 69.7692H87.836L89.7823 69.2076C89.7823 69.2076 89.8914 69.0989 89.7823 68.5191C89.6731 67.9575 89.3275 66.8161 89.3275 66.8161C89.3275 66.8161 89.564 66.1276 89.6731 66.0189C89.7823 65.9102 90.1279 65.4573 90.4735 65.3305C90.8191 65.2218 91.1647 65.095 91.5103 65.095C91.8559 65.095 94.8389 64.5152 94.948 64.5152C95.0572 64.5152 96.6578 64.8594 96.6578 64.8594L98.6041 63.9536L99.0588 63.2651L99.1679 62.9209L99.5135 61.6708C99.5135 61.6708 100.769 60.5294 101.005 60.5294C101.242 60.5294 102.151 60.1852 102.151 60.1852L102.387 59.6055L103.879 58.917L104.916 58.5728L106.407 58.3373L106.862 57.7575L107.444 57.3046L108.026 54.6776L108.936 53.7717H110.773C110.773 53.7717 111.009 54.0073 111.118 54.0073C111.227 54.0073 112.501 54.2428 112.501 54.2428C112.501 54.2428 113.192 53.3369 113.192 53.2101C113.192 53.0833 114.192 51.8513 114.192 51.8513Z" fill="#FFB2D9" stroke="black" stroke-width="0.3" stroke-miterlimit="10" stroke-linecap="round" stroke-linejoin="round"/>
<path d="M28.776 45.944H32.248V47.64H28.776V45.944ZM28.664 49.016H32.136V50.712H28.664V49.016ZM31.912 43.608H34.04V52.136H31.912V43.608ZM27.08 44.616H29.352C29.352 48.648 27.08 51.24 22.584 52.472L21.752 50.792C25.512 49.816 27.08 47.96 27.08 45.64V44.616ZM22.568 44.616H28.568V46.312H22.568V44.616ZM29.128 52.328C32.136 52.328 34.136 53.48 34.136 55.336C34.136 57.192 32.136 58.36 29.128 58.36C26.12 58.36 24.12 57.192 24.12 55.336C24.12 53.48 26.12 52.328 29.128 52.328ZM29.128 53.96C27.32 53.96 26.232 54.424 26.232 55.336C26.232 56.248 27.32 56.696 29.128 56.696C30.952 56.696 32.04 56.248 32.04 55.336C32.04 54.424 30.952 53.96 29.128 53.96ZM39.6068 44.408H41.3508V45.72C41.3508 48.664 40.0708 51.256 37.2548 52.232L36.1188 50.552C38.5988 49.72 39.6068 47.736 39.6068 45.72V44.408ZM40.0388 44.408H41.7668V45.928C41.7668 47.704 42.7588 49.432 45.0788 50.152L43.9748 51.8C41.3028 50.904 40.0388 48.6 40.0388 45.928V44.408ZM45.8948 43.608H48.0228V52.36H45.8948V43.608ZM47.4308 47.032H49.9908V48.792H47.4308V47.032ZM43.1908 52.696C46.2628 52.696 48.1988 53.768 48.1988 55.56C48.1988 57.368 46.2628 58.424 43.1908 58.424C40.1028 58.424 38.1668 57.368 38.1668 55.56C38.1668 53.768 40.1028 52.696 43.1908 52.696ZM43.1908 54.344C41.3028 54.344 40.2788 54.744 40.2788 55.56C40.2788 56.392 41.3028 56.776 43.1908 56.776C45.0788 56.776 46.0868 56.392 46.0868 55.56C46.0868 54.744 45.0788 54.344 43.1908 54.344ZM60.6135 43.608H62.7415V51.96H60.6135V43.608ZM62.1655 46.728H64.7095V48.456H62.1655V46.728ZM53.0935 52.632H62.7415V58.264H53.0935V52.632ZM60.6615 54.296H55.1895V56.584H60.6615V54.296ZM51.6695 44.312H53.7975V50.376H51.6695V44.312ZM51.6695 49.464H52.9175C54.9335 49.464 57.1255 49.32 59.4615 48.872L59.7015 50.584C57.2855 51.08 55.0135 51.208 52.9175 51.208H51.6695V49.464ZM67.3643 50.216H77.7803V51.912H67.3643V50.216ZM65.8123 55.016H79.2203V56.76H65.8123V55.016ZM71.4283 50.984H73.5563V55.576H71.4283V50.984ZM67.3643 44.616H77.6683V46.328H69.4923V50.952H67.3643V44.616Z" fill="black"/>
</g>
<defs>
<clipPath id="clip0_357_14">
<rect width="133" height="107" fill="white"/>
</clipPath>
</defs>
</svg>
