<svg width="120" height="133" viewBox="0 0 120 133" fill="none" xmlns="http://www.w3.org/2000/svg">
<g clip-path="url(#clip0_357_3)">
<path d="M108.208 129.766C108.208 129.656 108.664 129.068 108.664 129.068L109.23 128.15L109.814 127.231L110.271 126.423L110.38 125.026L110.49 124.567L110.837 123.759L111.183 123.171V122.252C111.183 122.142 111.64 121.554 111.64 121.554L112.224 120.966V119.698C112.224 119.698 112.333 118.541 112.333 118.302C112.333 118.063 112.443 117.843 112.443 117.843L113.027 117.034L113.137 116.336V115.528V114.609C113.137 114.499 113.483 114.26 113.483 114.15C113.483 114.039 113.94 113.451 113.94 113.451L114.396 112.533L114.852 111.724L115.309 111.265L115.199 110.806V110.567L114.396 109.979V109.63L114.998 109.042L115.236 108.234L114.998 107.774L114.889 106.966L114.779 105.808L115.345 105.57L115.802 104.761L116.258 103.714L116.714 103.016L117.28 102.428L117.39 101.509L117.737 100.701L118.321 100.242L119.033 99.2126L119.489 98.6247C119.489 98.6247 119.598 97.7061 119.726 97.5775C119.836 97.4672 119.726 95.6116 119.726 95.6116V94.9134C119.726 94.8032 119.489 94.105 119.489 94.105L119.379 93.7559L119.033 93.2966L118.467 93.0578H117.664L116.97 93.5171L116.733 94.2153L116.386 94.6746L115.82 95.7218L114.907 96.3098L114.104 96.6588L113.757 97.357L113.191 97.9449L112.626 98.1838L111.476 98.7717L110.563 99.4699L110.106 100.168L108.847 99.7087L107.807 99.0105L107.35 98.5512L106.657 97.8531C106.657 97.8531 106.072 97.0447 105.963 96.9344C105.853 96.8242 105.853 96.126 105.853 96.126V95.6667L106.091 94.9685C106.091 94.9685 106.2 94.399 106.328 94.2704C106.437 94.1602 107.131 94.0315 107.131 94.0315C107.131 94.0315 107.697 93.4436 107.697 93.3334C107.697 93.2231 108.737 92.7455 108.847 92.7455C108.957 92.7455 109.084 92.0473 109.084 91.9371C109.084 91.8268 109.322 91.1287 109.322 91.0184C109.322 90.9082 109.778 90.3203 109.778 90.3203L109.668 89.4016L109.212 88.7035L108.409 88.2441L107.843 87.546L107.734 86.6273L107.971 85.4699L107.861 84.2021L107.514 83.2835L106.474 82.3649V81.4462L107.277 80.1785L107.734 78.9108L107.168 77.6431C107.168 77.6431 106.821 76.9449 106.821 76.8347C106.821 76.7245 107.058 75.9161 107.058 75.9161L107.514 75.4567V74.7586L107.277 74.0604L107.168 73.6011L107.405 72.7927L107.642 71.8741L107.989 69.5591L108.099 68.8609L108.445 68.5119L109.03 68.1628L109.139 67.7035L109.249 66.8951L109.595 66.1969L110.052 65.4987L110.399 65.0394L110.636 64.6903C110.636 64.6903 111.092 64.3413 111.092 64.231C111.092 64.1208 111.676 63.7717 111.676 63.7717L112.023 63.4226L112.133 62.6142L112.242 61.8058L112.352 60.9974L112.461 60.2993L112.571 59.6011L112.461 58.9029L112.571 58.0945V57.2861L113.027 56.8268L113.483 56.2389L113.374 55.3203L113.264 54.4016L113.155 53.0053V52.3071L112.918 51.609L112.461 50.8006L111.658 49.5329L111.202 48.7245L111.311 48.1365L111.658 47.4384V46.7402L111.768 46.2809L112.114 45.9318L112.461 45.3439L112.699 44.2966L112.936 43.378L113.392 42.5696L113.629 42.1103L114.195 41.651L115.345 41.3019L115.692 40.8426L116.039 40.0342L116.623 39.5749L116.86 38.3071V36.9108L116.623 35.8636L116.514 34.9449L116.86 34.4856L117.207 33.7874L116.86 32.9791L116.623 31.8216L116.276 31.0132L116.039 29.5066L115.473 28.4594L114.998 27.4305L113.958 25.6851L113.721 23.9581L114.068 22.8006L113.721 20.4856L113.611 15.1575L114.177 13.8898L113.94 11.6851V9.25989L114.852 8.45149L113.118 6.59585L111.622 4.39112V3.36225V1.28614L110.8 0.238892C110.8 0.238892 108.281 1.1759 108.281 1.28614C108.281 1.39637 106.091 2.90293 106.091 2.90293L104.703 3.14178C104.703 3.14178 104.01 3.83994 104.01 3.95018C104.01 4.06041 103.553 4.4095 103.426 4.64834C103.316 4.88719 102.276 4.75858 102.276 4.88719C102.276 4.99742 101.819 5.47511 101.692 5.69558C101.582 5.93443 101.454 6.28351 101.454 6.61422C101.454 6.9633 101.564 7.42262 101.454 7.7717C101.345 8.12078 101.454 8.01055 101.345 8.5801C101.235 9.14965 100.779 9.27826 100.779 9.27826L98.9352 8.81894C98.9352 8.81894 98.6979 8.5801 98.5884 8.81894C98.4789 9.05779 97.7852 9.05779 97.7852 9.05779L97.8948 8.59847C97.8948 8.59847 96.8543 7.79007 96.8543 7.44099C96.8543 7.09191 97.4202 6.52236 96.617 6.04467C95.8138 5.58535 95.2297 5.45674 95.1202 5.45674C95.0107 5.45674 94.4265 5.69559 94.2075 5.3465C93.9702 4.99742 92.6012 4.29926 92.6012 4.29926C92.6012 4.29926 91.3417 3.95018 91.3417 4.29926C91.3417 4.64834 90.429 4.86881 90.3012 5.21789C90.1917 5.56698 89.1512 5.91606 89.1512 5.91606L88.9139 6.26514L87.8735 5.67721L86.3766 5.21789H85.7925C85.7925 5.21789 85.0989 4.51973 84.8798 4.51973C84.6425 4.51973 84.0767 4.28089 84.0767 4.28089C84.0767 4.28089 83.9672 4.17065 83.8394 4.28089C83.7299 4.39112 82.7989 4.17065 82.7989 4.04204C82.7989 3.93181 82.2331 3.69296 82.2331 3.69296L81.5394 3.23364C81.5394 3.23364 80.7362 3.58272 80.7362 3.69296C80.7362 3.8032 79.9331 4.26251 79.9331 4.26251L79.0204 5.30976C79.0204 5.30976 78.5641 5.89768 78.5641 6.11816C78.5641 6.357 78.5641 6.57747 78.2172 6.81632C77.8704 7.05516 77.5236 7.27564 77.3045 7.1654C77.0672 7.05516 75.3514 6.46724 75.3514 6.46724H74.8951C74.7855 6.46724 74.0919 6.00792 74.0919 5.87931C74.0919 5.76908 73.7451 4.72183 73.7451 4.72183L72.5951 4.26251L71.4451 3.56435C71.4451 3.56435 71.3356 3.10503 71.2078 3.10503C71.0983 3.10503 70.4046 3.56435 70.4046 3.56435L70.1673 4.72183C70.1673 4.72183 69.8205 4.96068 69.8205 5.18115C69.8205 5.41999 69.4737 5.53023 69.2546 5.7507C68.9991 6.02629 68.9991 5.56698 68.9991 6.02629V7.07354L67.7213 6.83469L65.896 6.59585L63.7055 5.32813C63.7055 5.32813 63.2492 5.08929 62.446 4.75858L60.0365 5.91606H58.1929H57.3897L55.6739 7.18377L54.962 8.45149L53.7025 9.60897C53.7025 9.60897 51.9866 9.71921 51.9866 9.84782C51.9866 9.95805 51.4025 10.7665 51.4025 10.8951C51.4025 11.0053 51.7493 11.3544 50.9462 11.5932C50.143 11.8321 49.7962 12.0525 49.7962 12.0525L48.5367 12.5119L48.1898 13.3203C48.1898 13.3203 48.0803 13.7796 47.9526 13.9082C47.843 14.0184 47.843 14.147 47.3684 14.3675C46.9121 14.6063 46.5653 14.8268 46.6748 14.8268C46.7843 14.8268 46.6748 14.8268 46.5653 15.2861C46.4557 15.7455 46.328 15.6352 46.4557 15.8741C46.5653 16.1129 46.4557 16.6825 46.4557 16.6825L45.9994 17.4909L45.3058 18.2993C45.3058 18.2993 45.5431 18.9974 45.6526 19.2179C45.7621 19.4567 46.2367 19.6772 46.2367 19.6772C46.2367 19.6772 46.5835 19.9161 46.5835 20.1365V20.8347C46.5835 20.8347 46.693 21.294 46.693 21.5329C46.693 21.7717 46.5835 22.1024 46.5835 22.1024L46.1272 22.5617C46.1272 22.5617 45.4335 22.672 45.324 22.9108C45.2145 23.1497 44.7399 23.4804 44.6304 23.609C44.5026 23.7376 43.809 24.0867 43.809 24.0867C43.809 24.0867 43.4621 24.4357 43.2248 24.4357C42.9875 24.4357 42.4217 24.546 42.3121 24.6746C42.2026 24.7848 41.0526 25.1339 41.0526 25.1339V25.3728C41.0526 25.3728 40.359 25.1339 40.2495 25.0237C40.14 24.9134 39.209 24.6746 39.209 24.6746L38.1686 24.2153C38.1686 24.2153 37.9313 23.9764 37.9313 23.8662C37.9313 23.756 37.694 23.4069 37.694 23.4069L36.8908 23.168C36.8908 23.168 37.1281 22.9292 36.8908 22.4699C36.6535 22.0105 36.1971 21.4226 36.1971 21.4226C36.1971 21.4226 35.8503 21.1838 35.8503 21.0735C35.8503 20.9633 35.7408 20.1549 35.5035 20.0263C35.2662 19.9161 34.5908 19.4567 34.5908 19.4567L34.1345 19.1077L32.9845 18.9974C32.9845 18.9974 32.6377 18.7586 32.5281 18.9974C32.4186 19.2363 32.2909 19.3465 32.1813 19.567C32.0718 19.8058 31.8345 20.0263 31.8345 20.1365C31.8345 20.2468 30.575 20.5958 30.575 20.5958V21.0552C30.575 21.0552 30.6845 21.0552 30.575 21.5145C30.4655 21.9738 30.2282 22.4331 30.2282 22.4331L29.8814 23.0027L29.3155 23.2415L28.275 22.8924L27.3623 23.0027L26.6687 22.4331C26.6687 22.4331 26.1028 22.084 25.9751 21.9738C25.8655 21.8636 25.4092 21.5145 25.4092 21.5145C25.4092 21.5145 25.0624 21.0552 24.9529 21.5145C24.8433 21.9738 24.4965 22.084 24.4965 22.084C24.4965 22.084 24.2592 22.1943 24.0402 22.3229C23.8029 22.4331 22.9997 23.1313 22.9997 23.1313H21.9592L20.9188 22.7822L19.6593 23.1313C19.6593 23.1313 18.7466 24.5276 18.7466 24.7481C18.7466 24.9869 18.0529 26.4935 18.0529 26.4935L17.7061 27.6693C17.7061 27.6693 17.5966 28.588 17.7061 28.7166C17.8156 28.8268 18.5093 29.0657 18.5093 29.0657L19.5498 30.1129C19.5498 30.1129 19.8966 30.462 19.8966 30.5722C19.8966 30.6825 20.0061 30.9213 19.8966 31.2704C19.787 31.6195 19.4402 31.6195 19.3307 31.7297C19.2212 31.8399 18.2902 31.9686 18.1807 31.9686C18.0712 31.9686 16.7934 31.6195 16.7934 31.6195L16.5561 30.1129L15.2966 29.7638L14.1466 30.462C14.1466 30.462 13.453 30.2231 13.453 30.0027C13.453 29.7638 13.3435 28.735 13.2157 28.735C13.1062 28.735 12.0657 28.147 11.9562 28.4961C11.8467 28.8452 12.0657 29.7638 11.9562 30.0027C11.8467 30.2415 11.153 30.3518 11.153 30.462C11.153 30.5722 11.2626 30.3518 11.153 30.7008C11.0435 31.0499 10.9157 31.399 10.9157 31.399L10.0031 31.6378C9.76575 31.9869 9.19989 32.336 9.19989 32.336V32.5749H8.0499L6.66262 32.6851C6.66262 32.6851 6.89992 33.3832 6.89992 33.4935C6.89992 33.6037 7.59356 34.4121 7.70308 34.4121C7.81261 34.4121 8.85307 34.651 8.85307 34.651L9.43719 35.1103L10.0031 35.9187V36.7271C10.0031 36.7271 9.89353 37.8846 9.89353 37.9948C9.89353 38.105 8.74355 38.8032 8.74355 38.8032C8.74355 38.8032 8.39672 38.693 8.2872 38.5644C8.17768 38.4357 7.72134 37.6457 7.72134 37.6457L7.0277 36.8373L6.20628 36.0105H5.85946L4.94677 36.5801L4.01583 36.9292V37.7376V38.4357C4.01583 38.546 3.21267 38.6746 3.21267 38.6746L2.4095 38.7848L2.06268 38.6746C2.06268 38.6746 1.15 39.1339 1.02222 39.1339C0.894443 39.1339 0.328578 39.3728 0.328578 39.483C0.328578 39.5932 0.219055 40.4016 0.219055 40.5302C0.219055 40.6405 0.912697 40.9895 0.912697 41.1182C0.912697 41.2284 1.36904 41.5775 1.36904 41.5775L3.90631 41.8163L5.16582 42.9738L5.51264 44.1313C5.51264 44.1313 5.62216 44.9397 5.74993 45.0499C5.85946 45.1602 6.89992 45.7481 6.89992 45.9686C6.89992 46.2074 7.00944 47.0158 7.00944 47.126C7.00944 47.2363 6.44358 47.9344 6.44358 47.9344L5.53089 48.3938L4.96502 48.9633C4.96502 48.9633 4.8555 49.7717 5.07455 49.8819C5.31185 49.9922 5.53089 50.6903 5.53089 50.6903C5.53089 50.6903 5.07455 51.3885 5.07455 51.4987C5.07455 51.609 4.72773 52.1969 4.72773 52.1969C4.72773 52.1969 4.49043 52.546 4.49043 52.6562C4.49043 52.7665 4.25313 52.8951 4.49043 53.1155C4.72773 53.3544 4.83725 53.9239 4.83725 54.1628C4.83725 54.4016 4.94677 54.8609 4.94677 54.9712C4.94677 55.0814 4.59995 55.3203 4.59995 55.5591C4.59995 55.7979 4.36265 56.2573 4.36265 56.2573L4.25313 56.7166L3.90631 57.9843L4.70947 59.252C4.70947 59.252 5.16582 59.252 5.16582 59.9502C5.16582 60.6483 4.59995 61.3465 4.36265 61.567C4.12535 61.8058 4.12535 61.8058 3.77853 62.1549C3.43171 62.504 3.08489 62.504 2.97537 62.6142C2.86585 62.7245 1.93491 63.8819 1.93491 63.8819L1.82538 65.7376L2.06268 67.0053C2.06268 67.0053 2.6468 66.8951 2.75632 67.0053C2.86585 67.1155 2.86585 67.0053 3.44996 67.2441C4.01583 67.483 4.25313 67.5932 4.25313 67.5932C4.25313 67.5932 4.49043 66.546 4.70947 66.3255C4.94677 66.0867 5.62216 65.2783 5.62216 65.2783C5.62216 65.2783 5.85946 65.2783 5.96898 65.6273C6.0785 65.9764 6.3158 66.6746 6.3158 66.7848V67.1339L7.11896 67.3727L8.15943 68.0709L8.26895 68.42C8.37847 68.7691 7.70308 68.5302 8.37847 69.0079L9.07211 69.4672C9.30941 69.5775 10.4594 69.0079 10.4594 69.0079L10.6967 68.6588L11.9562 68.42H12.5403C12.7776 68.42 14.8403 68.6588 14.8403 68.6588C14.8403 68.6588 14.8403 68.8977 14.9498 69.4672C15.0593 70.0552 15.2966 70.0552 15.2966 70.2756C15.2966 70.5145 15.1871 70.5145 15.0593 70.9738C14.9498 71.4331 14.7125 71.3045 14.8403 71.6536C14.9498 72.0027 14.7308 71.7638 14.9498 72.3518C15.1871 72.9213 15.1871 73.1602 15.2966 73.1602H15.4062L15.5157 74.2074C15.5157 74.2074 14.9316 75.0158 14.7125 75.0158C14.4752 75.0158 13.7998 74.777 13.5625 74.5565C13.3252 74.3176 12.7594 73.5092 12.5221 73.6378C12.2848 73.7481 11.6094 73.9869 11.6094 73.9869C11.6094 73.9869 10.5872 74.0788 10.5872 74.2074C10.5872 74.3176 10.3499 74.0972 10.3499 74.5565C10.3499 75.0158 10.2404 74.5565 10.2404 75.0158C10.2404 75.4751 10.3499 75.9344 10.4776 76.1733C10.5872 76.3937 10.5872 76.9817 10.5872 77.2205C10.5872 77.4594 10.6967 77.6798 10.5872 78.1392C10.4777 78.5985 10.3499 78.4882 10.3499 78.9476C10.3499 79.4069 10.1126 79.9948 10.1126 79.9948L9.76575 80.5643C9.76575 80.5643 9.76575 80.105 9.65623 80.5643C9.54671 81.0237 9.09037 81.3728 9.09037 81.3728C9.09037 81.3728 8.63402 81.483 8.5245 81.8321C8.41498 82.1812 8.17768 82.7507 8.17768 82.8793C8.17768 82.9895 7.94038 83.5775 7.94038 83.6877C7.94038 83.7979 7.83086 84.3859 7.94038 84.4961C8.0499 84.6063 8.17768 84.8452 8.0499 85.084C7.94038 85.3229 7.59356 85.5434 7.59356 85.7822C7.59356 86.021 7.24674 86.3701 7.24674 86.3701L6.66262 86.7192L4.47217 87.4174H4.25313C4.25313 87.4174 4.49043 87.1785 4.01583 87.7665C3.55949 88.336 3.21267 88.4646 3.10314 88.4646C2.99362 88.4646 1.95316 88.7035 1.95316 88.7035V89.7507V90.7979C1.95316 90.7979 2.86585 91.8452 2.86585 91.9554C2.86585 92.0657 2.97537 92.4147 3.10314 92.8741C3.21267 93.3334 3.44996 93.7927 3.44996 94.0315C3.44996 94.2704 3.55949 94.9502 3.55949 94.9502C3.55949 94.9502 3.66901 95.5197 3.44996 95.7586L3.21267 95.9974C2.97537 96.2363 2.75632 96.5853 2.75632 96.5853C2.75632 96.5853 2.99362 96.4751 2.29998 96.8242C1.60634 97.1733 1.38729 97.2835 1.38729 97.2835V97.8714V98.3308V98.2205C1.38729 98.2205 1.95316 99.8373 2.08094 99.9659C2.19046 100.076 3.1214 100.774 3.1214 100.774C3.1214 100.774 3.92456 100.774 3.92456 101.013C3.92456 101.252 4.27138 101.362 4.27138 101.601C4.27138 101.84 4.38091 102.409 4.38091 102.52C4.38091 102.63 4.72773 103.108 4.72773 103.108C4.72773 103.108 5.42137 103.218 5.53089 103.218C5.64041 103.218 7.0277 103.567 7.0277 103.567L7.94038 104.137C7.94038 104.137 8.98084 105.184 8.98084 105.404C8.98084 105.625 10.934 106.323 10.934 106.323L12.5403 105.625C12.5403 105.625 12.8871 106.323 13.1062 106.084C13.3435 105.845 14.9498 105.845 14.9498 105.845L16.4466 106.764C16.4466 106.764 16.903 107.682 16.903 107.811C16.903 107.921 17.4871 109.079 17.4871 109.079C17.4871 109.079 16.7934 109.189 17.4871 109.777C18.1807 110.347 18.7466 110.934 18.7466 110.934L19.5498 111.284L20.2434 112.551C20.2434 112.551 20.1339 112.9 20.4807 113.121C20.8275 113.36 21.3934 114.627 21.3934 114.627L21.9775 115.087V115.748V117.365V118.871L20.8275 119.331L19.568 120.249L18.8744 120.709L18.418 121.168L19.4585 122.087H20.8458L21.9958 122.785C21.9958 122.785 21.1926 123.373 21.9958 123.373C22.7989 123.373 24.9894 122.564 24.9894 122.564L25.7925 122.675C25.7925 122.675 27.3989 123.593 27.6362 123.373C27.8735 123.134 30.9766 123.024 30.9766 123.024C31.4329 124.071 31.6702 125.228 31.6702 125.228C31.6702 125.228 32.017 125.228 32.3639 125.688C32.7107 126.147 33.0575 126.386 33.167 126.606C33.2766 126.845 34.5543 126.606 34.5543 126.606L34.7369 126.625L35.3575 125.1C35.3575 125.1 34.9011 124.291 35.0107 124.181C35.1202 124.071 34.317 123.134 34.317 123.024C34.317 122.913 33.8607 122.215 33.8607 122.215C33.8607 122.215 33.6234 121.976 33.4043 121.297C33.167 120.598 32.8385 119.9 32.8385 119.9V119.79L33.6416 118.871H34.098C34.2075 118.871 34.6821 118.633 34.9011 118.871C35.1384 119.11 35.1384 119.11 35.5948 119.441C36.0511 119.79 36.0511 119.68 36.2884 119.79C36.5257 119.9 36.5257 119.9 36.7448 119.9C36.9821 119.9 38.3511 119.441 38.3511 119.441C38.3511 119.441 38.4606 119.331 38.3511 118.982C38.2416 118.633 38.2416 117.824 38.1138 117.714C38.0043 117.604 37.4202 117.126 37.3106 116.906C37.2011 116.667 36.5075 116.207 36.5075 116.207C36.5075 116.207 36.0511 115.509 35.8138 115.399C35.5765 115.289 35.467 114.94 35.467 114.94C35.467 114.94 35.467 114.37 35.5765 114.242C35.686 114.131 36.0329 113.323 36.0329 113.323L36.9456 112.165L37.6392 110.898C37.6392 110.898 37.2924 110.549 37.7487 110.549C38.2051 110.549 38.3146 110.438 38.5519 110.438H39.4646H41.0709C41.0709 110.438 40.9614 110.677 41.1804 110.438C41.4177 110.2 41.8741 109.979 41.8741 109.979L41.9836 109.409C41.9836 109.409 42.0931 108.711 41.7463 108.491C41.3995 108.252 41.509 107.903 40.9431 107.793C40.3773 107.682 39.7931 107.554 39.3368 107.444C38.8804 107.333 38.4241 107.205 38.0773 107.205C37.7305 107.205 37.5114 106.856 37.0368 106.856C36.5805 106.856 35.9964 106.617 35.9964 106.617C35.9964 106.617 35.7591 106.617 35.7591 106.507C35.7591 106.396 35.7591 106.047 35.8686 105.919C35.9781 105.808 36.3249 105.11 36.3249 105.11L36.8908 104.651L37.9313 102.906C37.9313 102.906 38.1686 102.097 38.1686 101.987C38.1686 101.877 38.1686 101.528 38.2781 101.289C38.3876 101.05 38.6249 100.242 38.6249 100.242C38.6249 100.242 39.3185 99.8924 39.4281 99.7822C39.5376 99.672 39.8844 99.5434 39.8844 99.5434L40.7971 99.1943C40.7971 99.1943 40.5598 98.735 41.0344 99.084C41.4907 99.4331 41.4907 99.084 41.6185 99.4331C41.728 99.7822 42.3121 99.8924 42.4217 100.131C42.5312 100.37 42.659 100.37 42.659 100.719C42.659 101.068 42.7685 101.289 42.659 101.528C42.5494 101.766 42.5494 101.766 42.3121 102.116C42.0749 102.465 41.9653 102.465 42.0748 102.575C42.1844 102.685 42.0748 103.034 42.5312 103.144C42.9875 103.255 43.2248 103.493 43.4439 103.493C43.6812 103.493 43.7907 103.604 43.7907 103.604L44.247 103.034L44.5939 102.685L45.2875 102.446C45.2875 102.446 45.2875 102.556 45.7438 102.097C46.2002 101.638 46.4375 101.399 46.4375 101.399L46.547 100.829V99.9108C46.547 99.672 46.4375 98.6431 46.4375 98.5145C46.4375 98.3859 46.547 97.9449 46.547 97.8163C46.547 97.6877 46.6565 97.1182 46.6565 97.1182L47.1129 96.6588C47.1129 96.6588 46.8756 96.1995 47.3502 96.6588C47.8065 97.1182 47.697 97.0079 47.9343 97.1182C48.1716 97.2284 49.3033 97.1182 49.3033 97.1182L50.216 96.5486L51.1287 96.0893H51.366L52.6255 95.5197C52.6255 95.5197 53.2096 95.0604 53.4287 94.9502C53.666 94.8399 53.9945 94.8399 53.9945 94.8399C53.9945 94.8399 53.6477 94.6011 54.3414 94.8399C55.035 95.0788 55.035 95.189 55.1445 95.189C55.254 95.189 56.0572 94.8399 56.185 94.8399C56.3128 94.8399 57.6818 94.3806 57.6818 94.3806C58.2659 94.8399 58.8318 95.0788 58.8318 95.0788C59.0691 95.0788 60.6754 95.777 60.6754 95.777C60.6754 95.777 60.5659 96.0158 60.7849 96.4751C61.0222 96.9344 61.0222 97.0447 61.0222 97.2835V97.9817C61.0222 98.2205 60.7849 98.0919 61.1317 98.5512C61.4786 99.0105 61.7159 99.5985 61.7159 99.7087C61.7159 99.8189 61.7159 100.058 61.6063 100.297C61.4968 100.535 61.369 100.297 61.369 100.866C61.369 101.436 61.2595 101.675 61.2595 101.785C61.2595 101.895 61.15 102.024 61.2595 102.244C61.369 102.483 61.6063 102.703 61.7159 102.942C61.8254 103.181 61.9532 103.402 61.9532 103.53V105.386C61.9532 105.625 62.0627 105.845 61.9532 105.955C61.8436 106.066 60.9127 106.543 60.9127 106.654V107.223C60.9127 107.333 60.9127 107.682 60.8032 107.682C60.6937 107.682 60.6937 108.142 60.5659 108.142C60.4564 108.142 59.3064 108.032 59.3064 108.032C59.3064 108.032 58.3937 108.032 58.6127 108.27C58.85 108.509 58.9595 108.619 58.9595 108.969C58.9595 109.318 59.1969 109.428 58.85 109.538C58.5032 109.648 57.9373 109.648 57.9373 109.887C57.9373 110.126 57.8278 110.236 57.9373 110.475C58.0469 110.714 57.8278 111.173 57.8278 111.173C57.8278 111.173 57.5905 111.412 57.7183 111.522C57.8278 111.633 57.8278 111.982 57.8278 112.11C57.8278 112.221 57.7183 112.459 57.5905 112.459C57.481 112.459 57.0247 112.698 57.0247 112.808C57.0247 112.919 56.2215 113.856 56.2215 113.856C56.2215 113.856 55.9842 114.205 56.112 114.444C56.2215 114.682 56.3493 115.491 56.3493 115.491V116.409C56.3493 116.648 56.3493 116.997 56.2397 117.108C56.1302 117.218 56.1302 117.347 56.1302 117.567C56.1302 117.806 56.0207 118.265 56.0207 118.265L55.5644 119.184L54.3048 119.992L53.0453 120.102L52.1327 120.341L50.7454 119.882V118.963V118.045L49.8327 117.934L48.5732 117.824C48.5732 117.824 48.2264 117.824 48.1168 117.934C48.0073 118.045 46.62 118.504 46.62 118.504L45.8169 119.074L45.2327 120.341L44.6486 121.499L44.1923 122.197C44.1923 122.197 45.105 123.354 45.105 123.593C45.105 123.832 45.2145 124.99 45.105 125.449C44.9954 125.908 45.2145 126.496 45.105 126.845C44.9954 127.194 46.4923 128.462 46.4923 128.462C46.4923 128.462 47.7518 129.27 47.7518 129.969C47.7518 130.667 49.3581 129.969 49.3581 129.969L52.5707 130.777H55.108L56.4953 131.475L59.9453 132.871L62.0079 132.412L63.2492 130.446H66.3523L66.8087 129.179L68.6523 128.131L69.8023 128.021L72.5586 128.131L73.8181 129.528L76.0085 130.116L77.7426 128.499L79.9331 128.039L81.3204 127.69L82.014 127.801V126.074L82.9267 123.648L86.0298 122.142L88.6766 122.032L90.1734 122.27L91.7797 122.032L93.7329 123.079L94.5361 123.887L95.5765 124.236L95.1202 125.284C95.1202 125.284 95.3575 126.202 95.0107 126.551C94.6638 126.9 94.6638 127.47 94.9011 127.598C95.1384 127.709 97.3106 128.866 97.3106 128.866C97.3106 128.866 98.2233 128.627 98.2233 128.517C98.2233 128.407 98.7892 127.598 98.7892 127.598L100.633 127.36L102.586 126.9L104.192 127.249L106.839 128.407L107.989 129.326V130.593" fill="#FFD9EC" fill-opacity="0.901961"/>
<path d="M108.208 129.766C108.208 129.656 108.664 129.068 108.664 129.068L109.23 128.15L109.814 127.231L110.271 126.423L110.38 125.026L110.49 124.567L110.837 123.759L111.183 123.171V122.252C111.183 122.142 111.64 121.554 111.64 121.554L112.224 120.966V119.698C112.224 119.698 112.333 118.541 112.333 118.302C112.333 118.063 112.443 117.843 112.443 117.843L113.027 117.034L113.137 116.336V115.528V114.609C113.137 114.499 113.483 114.26 113.483 114.15C113.483 114.039 113.94 113.451 113.94 113.451L114.396 112.533L114.852 111.724L115.309 111.265L115.199 110.806V110.567L114.396 109.979V109.63L114.998 109.042L115.236 108.234L114.998 107.774L114.889 106.966L114.779 105.808L115.345 105.57L115.802 104.761L116.258 103.714L116.714 103.016L117.28 102.428L117.39 101.509L117.737 100.701L118.321 100.242L119.033 99.2126L119.489 98.6247C119.489 98.6247 119.598 97.7061 119.726 97.5775C119.836 97.4672 119.726 95.6116 119.726 95.6116V94.9134C119.726 94.8032 119.489 94.105 119.489 94.105L119.379 93.7559L119.033 93.2966L118.467 93.0578H117.664L116.97 93.5171L116.733 94.2153L116.386 94.6746L115.82 95.7218L114.907 96.3098L114.104 96.6588L113.757 97.357L113.191 97.9449L112.626 98.1838L111.476 98.7717L110.563 99.4699L110.106 100.168L108.847 99.7087L107.807 99.0105L107.35 98.5512L106.657 97.8531C106.657 97.8531 106.072 97.0447 105.963 96.9344C105.853 96.8242 105.853 96.126 105.853 96.126V95.6667L106.091 94.9685C106.091 94.9685 106.2 94.399 106.328 94.2704C106.437 94.1602 107.131 94.0315 107.131 94.0315C107.131 94.0315 107.697 93.4436 107.697 93.3334C107.697 93.2231 108.737 92.7455 108.847 92.7455C108.957 92.7455 109.084 92.0473 109.084 91.9371C109.084 91.8268 109.322 91.1287 109.322 91.0184C109.322 90.9082 109.778 90.3203 109.778 90.3203L109.668 89.4016L109.212 88.7035L108.409 88.2441L107.843 87.546L107.734 86.6273L107.971 85.4699L107.861 84.2021L107.514 83.2835L106.474 82.3649V81.4462L107.277 80.1785L107.734 78.9108L107.168 77.6431C107.168 77.6431 106.821 76.9449 106.821 76.8347C106.821 76.7245 107.058 75.9161 107.058 75.9161L107.514 75.4567V74.7586L107.277 74.0604L107.168 73.6011L107.405 72.7927L107.642 71.8741L107.989 69.5591L108.099 68.8609L108.445 68.5119L109.03 68.1628L109.139 67.7035L109.249 66.8951L109.595 66.1969L110.052 65.4987L110.399 65.0394L110.636 64.6903C110.636 64.6903 111.092 64.3413 111.092 64.231C111.092 64.1208 111.676 63.7717 111.676 63.7717L112.023 63.4226L112.133 62.6142L112.242 61.8058L112.352 60.9974L112.461 60.2993L112.571 59.6011L112.461 58.9029L112.571 58.0945V57.2861L113.027 56.8268L113.483 56.2389L113.374 55.3203L113.264 54.4016L113.155 53.0053V52.3071L112.918 51.609L112.461 50.8006L111.658 49.5329L111.202 48.7245L111.311 48.1365L111.658 47.4384V46.7402L111.768 46.2809L112.114 45.9318L112.461 45.3439L112.699 44.2966L112.936 43.378L113.392 42.5696L113.629 42.1103L114.195 41.651L115.345 41.3019L115.692 40.8426L116.039 40.0342L116.623 39.5749L116.86 38.3071V36.9108L116.623 35.8636L116.514 34.9449L116.86 34.4856L117.207 33.7874L116.86 32.9791L116.623 31.8216L116.276 31.0132L116.039 29.5066L115.473 28.4594L114.998 27.4305L113.958 25.6851L113.721 23.9581L114.068 22.8006L113.721 20.4856L113.611 15.1575L114.177 13.8898L113.94 11.6851V9.25989L114.852 8.45149L113.118 6.59585L111.622 4.39112V3.36225V1.28614L110.8 0.238892C110.8 0.238892 108.281 1.1759 108.281 1.28614C108.281 1.39637 106.091 2.90293 106.091 2.90293L104.703 3.14178C104.703 3.14178 104.01 3.83994 104.01 3.95018C104.01 4.06041 103.553 4.4095 103.426 4.64834C103.316 4.88719 102.276 4.75858 102.276 4.88719C102.276 4.99742 101.819 5.47511 101.692 5.69558C101.582 5.93443 101.454 6.28351 101.454 6.61422C101.454 6.9633 101.564 7.42262 101.454 7.7717C101.345 8.12078 101.454 8.01055 101.345 8.5801C101.235 9.14965 100.779 9.27826 100.779 9.27826L98.9352 8.81894C98.9352 8.81894 98.6979 8.5801 98.5884 8.81894C98.4789 9.05779 97.7852 9.05779 97.7852 9.05779L97.8948 8.59847C97.8948 8.59847 96.8543 7.79007 96.8543 7.44099C96.8543 7.09191 97.4202 6.52236 96.617 6.04467C95.8138 5.58535 95.2297 5.45674 95.1202 5.45674C95.0107 5.45674 94.4265 5.69559 94.2075 5.3465C93.9702 4.99742 92.6012 4.29926 92.6012 4.29926C92.6012 4.29926 91.3417 3.95018 91.3417 4.29926C91.3417 4.64834 90.429 4.86881 90.3012 5.21789C90.1917 5.56698 89.1512 5.91606 89.1512 5.91606L88.9139 6.26514L87.8735 5.67721L86.3766 5.21789H85.7925C85.7925 5.21789 85.0989 4.51973 84.8798 4.51973C84.6425 4.51973 84.0767 4.28089 84.0767 4.28089C84.0767 4.28089 83.9672 4.17065 83.8394 4.28089C83.7299 4.39112 82.7989 4.17065 82.7989 4.04204C82.7989 3.93181 82.2331 3.69296 82.2331 3.69296L81.5394 3.23364C81.5394 3.23364 80.7362 3.58272 80.7362 3.69296C80.7362 3.8032 79.9331 4.26251 79.9331 4.26251L79.0204 5.30976C79.0204 5.30976 78.5641 5.89768 78.5641 6.11816C78.5641 6.357 78.5641 6.57747 78.2172 6.81632C77.8704 7.05516 77.5236 7.27564 77.3045 7.1654C77.0672 7.05516 75.3514 6.46724 75.3514 6.46724H74.8951C74.7855 6.46724 74.0919 6.00792 74.0919 5.87931C74.0919 5.76908 73.7451 4.72183 73.7451 4.72183L72.5951 4.26251L71.4451 3.56435C71.4451 3.56435 71.3356 3.10503 71.2078 3.10503C71.0983 3.10503 70.4046 3.56435 70.4046 3.56435L70.1673 4.72183C70.1673 4.72183 69.8205 4.96068 69.8205 5.18115C69.8205 5.41999 69.4737 5.53023 69.2546 5.7507C68.9991 6.02629 68.9991 5.56698 68.9991 6.02629V7.07354L67.7213 6.83469L65.896 6.59585L63.7055 5.32813C63.7055 5.32813 63.2492 5.08929 62.446 4.75858L60.0365 5.91606H58.1929H57.3897L55.6739 7.18377L54.962 8.45149L53.7025 9.60897C53.7025 9.60897 51.9866 9.71921 51.9866 9.84782C51.9866 9.95805 51.4025 10.7665 51.4025 10.8951C51.4025 11.0053 51.7493 11.3544 50.9462 11.5932C50.143 11.8321 49.7962 12.0525 49.7962 12.0525L48.5367 12.5119L48.1898 13.3203C48.1898 13.3203 48.0803 13.7796 47.9526 13.9082C47.843 14.0184 47.843 14.147 47.3684 14.3675C46.9121 14.6063 46.5653 14.8268 46.6748 14.8268C46.7843 14.8268 46.6748 14.8268 46.5653 15.2861C46.4557 15.7455 46.328 15.6352 46.4557 15.8741C46.5653 16.1129 46.4557 16.6825 46.4557 16.6825L45.9994 17.4909L45.3058 18.2993C45.3058 18.2993 45.5431 18.9974 45.6526 19.2179C45.7621 19.4567 46.2367 19.6772 46.2367 19.6772C46.2367 19.6772 46.5835 19.9161 46.5835 20.1365V20.8347C46.5835 20.8347 46.693 21.294 46.693 21.5329C46.693 21.7717 46.5835 22.1024 46.5835 22.1024L46.1272 22.5617C46.1272 22.5617 45.4335 22.672 45.324 22.9108C45.2145 23.1497 44.7399 23.4804 44.6304 23.609C44.5026 23.7376 43.809 24.0867 43.809 24.0867C43.809 24.0867 43.4621 24.4357 43.2248 24.4357C42.9875 24.4357 42.4217 24.546 42.3121 24.6746C42.2026 24.7848 41.0526 25.1339 41.0526 25.1339V25.3728C41.0526 25.3728 40.359 25.1339 40.2495 25.0237C40.14 24.9134 39.209 24.6746 39.209 24.6746L38.1686 24.2153C38.1686 24.2153 37.9313 23.9764 37.9313 23.8662C37.9313 23.756 37.694 23.4069 37.694 23.4069L36.8908 23.168C36.8908 23.168 37.1281 22.9292 36.8908 22.4699C36.6535 22.0105 36.1971 21.4226 36.1971 21.4226C36.1971 21.4226 35.8503 21.1838 35.8503 21.0735C35.8503 20.9633 35.7408 20.1549 35.5035 20.0263C35.2662 19.9161 34.5908 19.4567 34.5908 19.4567L34.1345 19.1077L32.9845 18.9974C32.9845 18.9974 32.6377 18.7586 32.5281 18.9974C32.4186 19.2363 32.2909 19.3465 32.1813 19.567C32.0718 19.8058 31.8345 20.0263 31.8345 20.1365C31.8345 20.2468 30.575 20.5958 30.575 20.5958V21.0552C30.575 21.0552 30.6845 21.0552 30.575 21.5145C30.4655 21.9738 30.2282 22.4331 30.2282 22.4331L29.8814 23.0027L29.3155 23.2415L28.275 22.8924L27.3623 23.0027L26.6687 22.4331C26.6687 22.4331 26.1028 22.084 25.9751 21.9738C25.8655 21.8636 25.4092 21.5145 25.4092 21.5145C25.4092 21.5145 25.0624 21.0552 24.9529 21.5145C24.8433 21.9738 24.4965 22.084 24.4965 22.084C24.4965 22.084 24.2592 22.1943 24.0402 22.3229C23.8029 22.4331 22.9997 23.1313 22.9997 23.1313H21.9592L20.9188 22.7822L19.6593 23.1313C19.6593 23.1313 18.7466 24.5276 18.7466 24.7481C18.7466 24.9869 18.0529 26.4935 18.0529 26.4935L17.7061 27.6693C17.7061 27.6693 17.5966 28.588 17.7061 28.7166C17.8156 28.8268 18.5093 29.0657 18.5093 29.0657L19.5498 30.1129C19.5498 30.1129 19.8966 30.462 19.8966 30.5722C19.8966 30.6825 20.0061 30.9213 19.8966 31.2704C19.787 31.6195 19.4402 31.6195 19.3307 31.7297C19.2212 31.8399 18.2902 31.9686 18.1807 31.9686C18.0712 31.9686 16.7934 31.6195 16.7934 31.6195L16.5561 30.1129L15.2966 29.7638L14.1466 30.462C14.1466 30.462 13.453 30.2231 13.453 30.0027C13.453 29.7638 13.3435 28.735 13.2157 28.735C13.1062 28.735 12.0657 28.147 11.9562 28.4961C11.8467 28.8452 12.0657 29.7638 11.9562 30.0027C11.8467 30.2415 11.153 30.3518 11.153 30.462C11.153 30.5722 11.2626 30.3518 11.153 30.7008C11.0435 31.0499 10.9157 31.399 10.9157 31.399L10.0031 31.6378C9.76575 31.9869 9.19989 32.336 9.19989 32.336V32.5749H8.0499L6.66262 32.6851C6.66262 32.6851 6.89992 33.3832 6.89992 33.4935C6.89992 33.6037 7.59356 34.4121 7.70308 34.4121C7.81261 34.4121 8.85307 34.651 8.85307 34.651L9.43719 35.1103L10.0031 35.9187V36.7271C10.0031 36.7271 9.89353 37.8846 9.89353 37.9948C9.89353 38.105 8.74355 38.8032 8.74355 38.8032C8.74355 38.8032 8.39672 38.693 8.2872 38.5644C8.17768 38.4357 7.72134 37.6457 7.72134 37.6457L7.0277 36.8373L6.20628 36.0105H5.85946L4.94677 36.5801L4.01583 36.9292V37.7376V38.4357C4.01583 38.546 3.21267 38.6746 3.21267 38.6746L2.4095 38.7848L2.06268 38.6746C2.06268 38.6746 1.15 39.1339 1.02222 39.1339C0.894443 39.1339 0.328578 39.3728 0.328578 39.483C0.328578 39.5932 0.219055 40.4016 0.219055 40.5302C0.219055 40.6405 0.912697 40.9895 0.912697 41.1182C0.912697 41.2284 1.36904 41.5775 1.36904 41.5775L3.90631 41.8163L5.16582 42.9738L5.51264 44.1313C5.51264 44.1313 5.62216 44.9397 5.74993 45.0499C5.85946 45.1602 6.89992 45.7481 6.89992 45.9686C6.89992 46.2074 7.00944 47.0158 7.00944 47.126C7.00944 47.2363 6.44358 47.9344 6.44358 47.9344L5.53089 48.3938L4.96502 48.9633C4.96502 48.9633 4.8555 49.7717 5.07455 49.8819C5.31185 49.9922 5.53089 50.6903 5.53089 50.6903C5.53089 50.6903 5.07455 51.3885 5.07455 51.4987C5.07455 51.609 4.72773 52.1969 4.72773 52.1969C4.72773 52.1969 4.49043 52.546 4.49043 52.6562C4.49043 52.7665 4.25313 52.8951 4.49043 53.1155C4.72773 53.3544 4.83725 53.9239 4.83725 54.1628C4.83725 54.4016 4.94677 54.8609 4.94677 54.9712C4.94677 55.0814 4.59995 55.3203 4.59995 55.5591C4.59995 55.7979 4.36265 56.2573 4.36265 56.2573L4.25313 56.7166L3.90631 57.9843L4.70947 59.252C4.70947 59.252 5.16582 59.252 5.16582 59.9502C5.16582 60.6483 4.59995 61.3465 4.36265 61.567C4.12535 61.8058 4.12535 61.8058 3.77853 62.1549C3.43171 62.504 3.08489 62.504 2.97537 62.6142C2.86585 62.7245 1.93491 63.8819 1.93491 63.8819L1.82538 65.7376L2.06268 67.0053C2.06268 67.0053 2.6468 66.8951 2.75632 67.0053C2.86585 67.1155 2.86585 67.0053 3.44996 67.2441C4.01583 67.483 4.25313 67.5932 4.25313 67.5932C4.25313 67.5932 4.49043 66.546 4.70947 66.3255C4.94677 66.0867 5.62216 65.2783 5.62216 65.2783C5.62216 65.2783 5.85946 65.2783 5.96898 65.6273C6.0785 65.9764 6.3158 66.6746 6.3158 66.7848V67.1339L7.11896 67.3727L8.15943 68.0709L8.26895 68.42C8.37847 68.7691 7.70308 68.5302 8.37847 69.0079L9.07211 69.4672C9.30941 69.5775 10.4594 69.0079 10.4594 69.0079L10.6967 68.6588L11.9562 68.42H12.5403C12.7776 68.42 14.8403 68.6588 14.8403 68.6588C14.8403 68.6588 14.8403 68.8977 14.9498 69.4672C15.0593 70.0552 15.2966 70.0552 15.2966 70.2756C15.2966 70.5145 15.1871 70.5145 15.0593 70.9738C14.9498 71.4331 14.7125 71.3045 14.8403 71.6536C14.9498 72.0027 14.7308 71.7638 14.9498 72.3518C15.1871 72.9213 15.1871 73.1602 15.2966 73.1602H15.4062L15.5157 74.2074C15.5157 74.2074 14.9316 75.0158 14.7125 75.0158C14.4752 75.0158 13.7998 74.777 13.5625 74.5565C13.3252 74.3176 12.7594 73.5092 12.5221 73.6378C12.2848 73.7481 11.6094 73.9869 11.6094 73.9869C11.6094 73.9869 10.5872 74.0788 10.5872 74.2074C10.5872 74.3176 10.3499 74.0972 10.3499 74.5565C10.3499 75.0158 10.2404 74.5565 10.2404 75.0158C10.2404 75.4751 10.3499 75.9344 10.4776 76.1733C10.5872 76.3937 10.5872 76.9817 10.5872 77.2205C10.5872 77.4594 10.6967 77.6798 10.5872 78.1392C10.4777 78.5985 10.3499 78.4882 10.3499 78.9476C10.3499 79.4069 10.1126 79.9948 10.1126 79.9948L9.76575 80.5643C9.76575 80.5643 9.76575 80.105 9.65623 80.5643C9.54671 81.0237 9.09037 81.3728 9.09037 81.3728C9.09037 81.3728 8.63402 81.483 8.5245 81.8321C8.41498 82.1812 8.17768 82.7507 8.17768 82.8793C8.17768 82.9895 7.94038 83.5775 7.94038 83.6877C7.94038 83.7979 7.83086 84.3859 7.94038 84.4961C8.0499 84.6063 8.17768 84.8452 8.0499 85.084C7.94038 85.3229 7.59356 85.5434 7.59356 85.7822C7.59356 86.021 7.24674 86.3701 7.24674 86.3701L6.66262 86.7192L4.47217 87.4174H4.25313C4.25313 87.4174 4.49043 87.1785 4.01583 87.7665C3.55949 88.336 3.21267 88.4646 3.10314 88.4646C2.99362 88.4646 1.95316 88.7035 1.95316 88.7035V89.7507V90.7979C1.95316 90.7979 2.86585 91.8452 2.86585 91.9554C2.86585 92.0657 2.97537 92.4147 3.10314 92.8741C3.21267 93.3334 3.44996 93.7927 3.44996 94.0315C3.44996 94.2704 3.55949 94.9502 3.55949 94.9502C3.55949 94.9502 3.66901 95.5197 3.44996 95.7586L3.21267 95.9974C2.97537 96.2363 2.75632 96.5853 2.75632 96.5853C2.75632 96.5853 2.99362 96.4751 2.29998 96.8242C1.60634 97.1733 1.38729 97.2835 1.38729 97.2835V97.8714V98.3308V98.2205C1.38729 98.2205 1.95316 99.8373 2.08094 99.9659C2.19046 100.076 3.1214 100.774 3.1214 100.774C3.1214 100.774 3.92456 100.774 3.92456 101.013C3.92456 101.252 4.27138 101.362 4.27138 101.601C4.27138 101.84 4.38091 102.409 4.38091 102.52C4.38091 102.63 4.72773 103.108 4.72773 103.108C4.72773 103.108 5.42137 103.218 5.53089 103.218C5.64041 103.218 7.0277 103.567 7.0277 103.567L7.94038 104.137C7.94038 104.137 8.98084 105.184 8.98084 105.404C8.98084 105.625 10.934 106.323 10.934 106.323L12.5403 105.625C12.5403 105.625 12.8871 106.323 13.1062 106.084C13.3435 105.845 14.9498 105.845 14.9498 105.845L16.4466 106.764C16.4466 106.764 16.903 107.682 16.903 107.811C16.903 107.921 17.4871 109.079 17.4871 109.079C17.4871 109.079 16.7934 109.189 17.4871 109.777C18.1807 110.347 18.7466 110.934 18.7466 110.934L19.5498 111.284L20.2434 112.551C20.2434 112.551 20.1339 112.9 20.4807 113.121C20.8275 113.36 21.3934 114.627 21.3934 114.627L21.9775 115.087V115.748V117.365V118.871L20.8275 119.331L19.568 120.249L18.8744 120.709L18.418 121.168L19.4585 122.087H20.8458L21.9958 122.785C21.9958 122.785 21.1926 123.373 21.9958 123.373C22.7989 123.373 24.9894 122.564 24.9894 122.564L25.7925 122.675C25.7925 122.675 27.3989 123.593 27.6362 123.373C27.8735 123.134 30.9766 123.024 30.9766 123.024C31.4329 124.071 31.6702 125.228 31.6702 125.228C31.6702 125.228 32.017 125.228 32.3639 125.688C32.7107 126.147 33.0575 126.386 33.167 126.606C33.2766 126.845 34.5543 126.606 34.5543 126.606L34.7369 126.625L35.3575 125.1C35.3575 125.1 34.9011 124.291 35.0107 124.181C35.1202 124.071 34.317 123.134 34.317 123.024C34.317 122.913 33.8607 122.215 33.8607 122.215C33.8607 122.215 33.6234 121.976 33.4043 121.297C33.167 120.598 32.8385 119.9 32.8385 119.9V119.79L33.6416 118.871H34.098C34.2075 118.871 34.6821 118.633 34.9011 118.871C35.1384 119.11 35.1384 119.11 35.5948 119.441C36.0511 119.79 36.0511 119.68 36.2884 119.79C36.5257 119.9 36.5257 119.9 36.7448 119.9C36.9821 119.9 38.3511 119.441 38.3511 119.441C38.3511 119.441 38.4606 119.331 38.3511 118.982C38.2416 118.633 38.2416 117.824 38.1138 117.714C38.0043 117.604 37.4202 117.126 37.3106 116.906C37.2011 116.667 36.5075 116.207 36.5075 116.207C36.5075 116.207 36.0511 115.509 35.8138 115.399C35.5765 115.289 35.467 114.94 35.467 114.94C35.467 114.94 35.467 114.37 35.5765 114.242C35.686 114.131 36.0329 113.323 36.0329 113.323L36.9456 112.165L37.6392 110.898C37.6392 110.898 37.2924 110.549 37.7487 110.549C38.2051 110.549 38.3146 110.438 38.5519 110.438H39.4646H41.0709C41.0709 110.438 40.9614 110.677 41.1804 110.438C41.4177 110.2 41.8741 109.979 41.8741 109.979L41.9836 109.409C41.9836 109.409 42.0931 108.711 41.7463 108.491C41.3995 108.252 41.509 107.903 40.9431 107.793C40.3773 107.682 39.7931 107.554 39.3368 107.444C38.8804 107.333 38.4241 107.205 38.0773 107.205C37.7305 107.205 37.5114 106.856 37.0368 106.856C36.5805 106.856 35.9964 106.617 35.9964 106.617C35.9964 106.617 35.7591 106.617 35.7591 106.507C35.7591 106.396 35.7591 106.047 35.8686 105.919C35.9781 105.808 36.3249 105.11 36.3249 105.11L36.8908 104.651L37.9313 102.906C37.9313 102.906 38.1686 102.097 38.1686 101.987C38.1686 101.877 38.1686 101.528 38.2781 101.289C38.3876 101.05 38.6249 100.242 38.6249 100.242C38.6249 100.242 39.3185 99.8924 39.4281 99.7822C39.5376 99.672 39.8844 99.5434 39.8844 99.5434L40.7971 99.1943C40.7971 99.1943 40.5598 98.735 41.0344 99.084C41.4907 99.4331 41.4907 99.084 41.6185 99.4331C41.728 99.7822 42.3121 99.8924 42.4217 100.131C42.5312 100.37 42.659 100.37 42.659 100.719C42.659 101.068 42.7685 101.289 42.659 101.528C42.5494 101.766 42.5494 101.766 42.3121 102.116C42.0749 102.465 41.9653 102.465 42.0748 102.575C42.1844 102.685 42.0748 103.034 42.5312 103.144C42.9875 103.255 43.2248 103.493 43.4439 103.493C43.6812 103.493 43.7907 103.604 43.7907 103.604L44.247 103.034L44.5939 102.685L45.2875 102.446C45.2875 102.446 45.2875 102.556 45.7438 102.097C46.2002 101.638 46.4375 101.399 46.4375 101.399L46.547 100.829V99.9108C46.547 99.672 46.4375 98.6431 46.4375 98.5145C46.4375 98.3859 46.547 97.9449 46.547 97.8163C46.547 97.6877 46.6565 97.1182 46.6565 97.1182L47.1129 96.6588C47.1129 96.6588 46.8756 96.1995 47.3502 96.6588C47.8065 97.1182 47.697 97.0079 47.9343 97.1182C48.1716 97.2284 49.3033 97.1182 49.3033 97.1182L50.216 96.5486L51.1287 96.0893H51.366L52.6255 95.5197C52.6255 95.5197 53.2096 95.0604 53.4287 94.9502C53.666 94.8399 53.9945 94.8399 53.9945 94.8399C53.9945 94.8399 53.6477 94.6011 54.3414 94.8399C55.035 95.0788 55.035 95.189 55.1445 95.189C55.254 95.189 56.0572 94.8399 56.185 94.8399C56.3128 94.8399 57.6818 94.3806 57.6818 94.3806C58.2659 94.8399 58.8318 95.0788 58.8318 95.0788C59.0691 95.0788 60.6754 95.777 60.6754 95.777C60.6754 95.777 60.5659 96.0158 60.7849 96.4751C61.0222 96.9344 61.0222 97.0447 61.0222 97.2835V97.9817C61.0222 98.2205 60.7849 98.0919 61.1317 98.5512C61.4786 99.0105 61.7159 99.5985 61.7159 99.7087C61.7159 99.8189 61.7159 100.058 61.6063 100.297C61.4968 100.535 61.369 100.297 61.369 100.866C61.369 101.436 61.2595 101.675 61.2595 101.785C61.2595 101.895 61.15 102.024 61.2595 102.244C61.369 102.483 61.6063 102.703 61.7159 102.942C61.8254 103.181 61.9532 103.402 61.9532 103.53V105.386C61.9532 105.625 62.0627 105.845 61.9532 105.955C61.8436 106.066 60.9127 106.543 60.9127 106.654V107.223C60.9127 107.333 60.9127 107.682 60.8032 107.682C60.6937 107.682 60.6937 108.142 60.5659 108.142C60.4564 108.142 59.3064 108.032 59.3064 108.032C59.3064 108.032 58.3937 108.032 58.6127 108.27C58.85 108.509 58.9595 108.619 58.9595 108.969C58.9595 109.318 59.1969 109.428 58.85 109.538C58.5032 109.648 57.9373 109.648 57.9373 109.887C57.9373 110.126 57.8278 110.236 57.9373 110.475C58.0469 110.714 57.8278 111.173 57.8278 111.173C57.8278 111.173 57.5905 111.412 57.7183 111.522C57.8278 111.633 57.8278 111.982 57.8278 112.11C57.8278 112.221 57.7183 112.459 57.5905 112.459C57.481 112.459 57.0247 112.698 57.0247 112.808C57.0247 112.919 56.2215 113.856 56.2215 113.856C56.2215 113.856 55.9842 114.205 56.112 114.444C56.2215 114.682 56.3493 115.491 56.3493 115.491V116.409C56.3493 116.648 56.3493 116.997 56.2397 117.108C56.1302 117.218 56.1302 117.347 56.1302 117.567C56.1302 117.806 56.0207 118.265 56.0207 118.265L55.5644 119.184L54.3048 119.992L53.0453 120.102L52.1327 120.341L50.7454 119.882V118.963V118.045L49.8327 117.934L48.5732 117.824C48.5732 117.824 48.2264 117.824 48.1168 117.934C48.0073 118.045 46.62 118.504 46.62 118.504L45.8169 119.074L45.2327 120.341L44.6486 121.499L44.1923 122.197C44.1923 122.197 45.105 123.354 45.105 123.593C45.105 123.832 45.2145 124.99 45.105 125.449C44.9954 125.908 45.2145 126.496 45.105 126.845C44.9954 127.194 46.4923 128.462 46.4923 128.462C46.4923 128.462 47.7518 129.27 47.7518 129.969C47.7518 130.667 49.3581 129.969 49.3581 129.969L52.5707 130.777H55.108L56.4953 131.475L59.9453 132.871L62.0079 132.412L63.2492 130.446H66.3523L66.8087 129.179L68.6523 128.131L69.8023 128.021L72.5586 128.131L73.8181 129.528L76.0085 130.116L77.7426 128.499L79.9331 128.039L81.3204 127.69L82.014 127.801V126.074L82.9267 123.648L86.0298 122.142L88.6766 122.032L90.1734 122.27L91.7797 122.032L93.7329 123.079L94.5361 123.887L95.5765 124.236L95.1202 125.284C95.1202 125.284 95.3575 126.202 95.0107 126.551C94.6638 126.9 94.6638 127.47 94.9011 127.598C95.1384 127.709 97.3106 128.866 97.3106 128.866C97.3106 128.866 98.2233 128.627 98.2233 128.517C98.2233 128.407 98.7892 127.598 98.7892 127.598L100.633 127.36L102.586 126.9L104.192 127.249L106.839 128.407L107.989 129.326V130.593" stroke="black" stroke-width="0.3" stroke-miterlimit="10" stroke-linecap="round" stroke-linejoin="round"/>
<path d="M44.1193 122.032L44.5756 121.333L45.1598 120.176L45.7256 118.908L46.5288 118.32C46.5288 118.32 47.9161 117.861 48.0256 117.732C48.1351 117.622 48.4819 117.622 48.4819 117.622L49.7414 117.732L50.6541 117.843V118.761V119.68L52.0414 120.139L52.9541 119.9L54.2136 119.79L55.4731 118.982L55.9294 118.063C55.9294 118.063 56.039 117.604 56.039 117.365C56.039 117.126 56.039 117.016 56.1485 116.906C56.258 116.795 56.258 116.446 56.258 116.207V115.289C56.258 115.289 56.1485 114.48 56.0207 114.242C55.9112 114.003 56.1302 113.654 56.1302 113.654C56.1302 113.654 56.9334 112.735 56.9334 112.606C56.9334 112.478 57.3897 112.257 57.4993 112.257C57.6088 112.257 57.7366 112.018 57.7366 111.908C57.7366 111.798 57.7366 111.449 57.627 111.32C57.5175 111.21 57.7366 110.971 57.7366 110.971C57.7366 110.971 57.9739 110.512 57.8461 110.273C57.7366 110.034 57.8461 109.924 57.8461 109.703C57.8461 109.483 58.4302 109.465 58.7588 109.354C59.1056 109.244 58.8683 109.116 58.8683 108.785C58.8683 108.436 58.7588 108.326 58.5215 108.087C58.2842 107.848 59.2151 107.848 59.2151 107.848C59.2151 107.848 60.3651 107.958 60.4746 107.958C60.5842 107.958 60.5841 107.499 60.7119 107.499C60.8214 107.499 60.8214 107.15 60.8214 107.039V106.47C60.8214 106.36 61.7341 105.882 61.8619 105.772C61.9714 105.661 61.8619 105.423 61.8619 105.202V103.347C61.8619 103.236 61.7524 102.997 61.6246 102.777C61.5151 102.538 61.2778 102.318 61.1683 102.079C61.0587 101.84 61.1683 101.73 61.1683 101.619C61.1683 101.509 61.2778 101.27 61.2778 100.701C61.2778 100.131 61.3873 100.352 61.5151 100.131C61.6246 99.8924 61.6246 99.672 61.6246 99.5434C61.6246 99.4331 61.3873 98.8452 61.0405 98.3859C60.6937 97.9266 60.931 98.0368 60.931 97.7979V97.0998C60.931 96.8609 60.931 96.7507 60.6937 96.2914C60.4564 95.8321 60.5841 95.5932 60.5841 95.5932C60.5841 95.5932 58.9778 94.8951 58.7405 94.8951C58.7405 94.8951 58.1747 94.6562 57.5905 94.1969C57.5905 94.1969 56.2033 94.6562 56.0937 94.6562C55.9842 94.6562 55.181 95.0053 55.0533 95.0053C54.9437 95.0053 54.9437 94.8951 54.2501 94.6562C53.5565 94.4174 53.9033 94.6562 53.9033 94.6562C53.9033 94.6562 53.5565 94.6562 53.3192 94.7665C53.0819 94.8767 52.516 95.336 52.516 95.336L51.2565 95.9239H51.0192L50.1065 96.3832L49.1938 96.9712C49.1938 96.9712 48.0438 97.0814 47.8065 96.9712C47.5692 96.8609 47.697 96.9712 47.2407 96.5119C46.7843 96.0525 47.0034 96.5119 47.0034 96.5119L46.547 96.9712C46.547 96.9712 46.4375 97.5407 46.4375 97.6693C46.4375 97.7796 46.328 98.2573 46.328 98.3675C46.328 98.4777 46.4375 99.525 46.4375 99.7638V100.682L46.328 101.27C46.328 101.27 46.0907 101.509 45.6343 101.969C45.178 102.428 45.178 102.318 45.178 102.318L44.4844 102.556L44.1375 102.906L43.6812 103.475C43.6812 103.475 43.5717 103.365 43.3344 103.365C43.0971 103.365 42.878 103.126 42.4217 103.016C41.9653 102.906 42.0749 102.556 41.9653 102.446C41.8558 102.336 41.9654 102.336 42.2026 101.987C42.4399 101.638 42.4399 101.638 42.5495 101.399C42.659 101.16 42.5495 100.94 42.5495 100.591C42.5495 100.242 42.4399 100.242 42.3122 100.003C42.2026 99.7638 41.6185 99.6536 41.509 99.3045C41.3995 98.9554 41.3995 99.3045 40.9431 98.9554C40.4868 98.6063 40.7058 99.0657 40.7058 99.0657L39.7932 99.4147C39.7932 99.4147 39.4463 99.525 39.3368 99.6536C39.2273 99.7638 38.5336 100.113 38.5336 100.113C38.5336 100.113 38.2964 100.921 38.1868 101.16C38.0773 101.399 38.0773 101.748 38.0773 101.858C38.0773 101.969 37.84 102.777 37.84 102.777L36.8726 104.541L36.2884 105C36.2884 105 35.9416 105.698 35.8321 105.808C35.7226 105.919 35.7226 106.268 35.7226 106.396C35.7226 106.507 35.9599 106.507 35.9599 106.507C35.9599 106.507 36.544 106.745 37.0003 106.745C37.4567 106.745 37.694 107.095 38.0408 107.095C38.3876 107.095 38.844 107.205 39.3003 107.333C39.7566 107.444 40.3408 107.572 40.9066 107.682C41.4908 107.793 41.363 108.142 41.7098 108.381C42.0566 108.619 41.9471 109.299 41.9471 109.299L41.8376 109.869C41.8376 109.869 41.3812 110.108 41.1439 110.328C40.9066 110.567 41.0344 110.328 41.0344 110.328H39.4281H38.5154C38.2781 110.328 38.1686 110.438 37.7122 110.438C37.2559 110.438 37.6027 110.787 37.6027 110.787L36.8726 112.074L35.9599 113.231C35.9599 113.231 35.6131 114.039 35.5035 114.15C35.394 114.26 35.394 114.848 35.394 114.848C35.394 114.848 35.5035 115.197 35.7408 115.307C35.9781 115.417 36.4345 116.116 36.4345 116.116C36.4345 116.116 37.1281 116.575 37.2376 116.814C37.3472 117.053 37.9313 117.512 38.0408 117.622C38.1503 117.732 38.1503 118.541 38.2781 118.89C38.3876 119.239 38.2781 119.349 38.2781 119.349C38.2781 119.349 36.8908 119.808 36.6718 119.808C36.4345 119.808 36.4345 119.808 36.2154 119.698C35.9781 119.588 35.9781 119.698 35.5218 119.349C35.0654 119 35.0654 119 34.8281 118.761C34.5908 118.522 34.1345 118.761 34.025 118.761H33.5686L32.7655 119.68V119.79C32.7655 119.79 33.1123 120.488 33.3313 121.186C33.5686 121.885 33.7877 122.105 33.7877 122.105C33.7877 122.105 34.244 122.803 34.244 122.913C34.244 123.024 35.0472 123.961 34.9377 124.071C34.8281 124.181 35.2845 124.99 35.2845 124.99L34.6639 126.514L35.6131 126.606C35.6131 126.606 35.1567 126.147 35.6131 126.147C36.0694 126.147 38.4971 125.228 38.4971 125.228H41.3812C41.3812 125.228 42.4217 124.99 42.4217 124.31C42.4034 123.648 44.1193 122.032 44.1193 122.032Z" fill="#FFB2D9" stroke="black" stroke-width="0.3" stroke-miterlimit="10" stroke-linecap="round" stroke-linejoin="round"/>
<path d="M42.776 59.944H46.248V61.64H42.776V59.944ZM42.664 63.016H46.136V64.712H42.664V63.016ZM45.912 57.608H48.04V66.136H45.912V57.608ZM41.08 58.616H43.352C43.352 62.648 41.08 65.24 36.584 66.472L35.752 64.792C39.512 63.816 41.08 61.96 41.08 59.64V58.616ZM36.568 58.616H42.568V60.312H36.568V58.616ZM43.128 66.328C46.136 66.328 48.136 67.48 48.136 69.336C48.136 71.192 46.136 72.36 43.128 72.36C40.12 72.36 38.12 71.192 38.12 69.336C38.12 67.48 40.12 66.328 43.128 66.328ZM43.128 67.96C41.32 67.96 40.232 68.424 40.232 69.336C40.232 70.248 41.32 70.696 43.128 70.696C44.952 70.696 46.04 70.248 46.04 69.336C46.04 68.424 44.952 67.96 43.128 67.96ZM53.6068 58.408H55.3508V59.72C55.3508 62.664 54.0708 65.256 51.2548 66.232L50.1188 64.552C52.5988 63.72 53.6068 61.736 53.6068 59.72V58.408ZM54.0388 58.408H55.7668V59.928C55.7668 61.704 56.7588 63.432 59.0788 64.152L57.9748 65.8C55.3028 64.904 54.0388 62.6 54.0388 59.928V58.408ZM59.8948 57.608H62.0228V66.36H59.8948V57.608ZM61.4308 61.032H63.9908V62.792H61.4308V61.032ZM57.1908 66.696C60.2628 66.696 62.1988 67.768 62.1988 69.56C62.1988 71.368 60.2628 72.424 57.1908 72.424C54.1028 72.424 52.1668 71.368 52.1668 69.56C52.1668 67.768 54.1028 66.696 57.1908 66.696ZM57.1908 68.344C55.3028 68.344 54.2788 68.744 54.2788 69.56C54.2788 70.392 55.3028 70.776 57.1908 70.776C59.0788 70.776 60.0868 70.392 60.0868 69.56C60.0868 68.744 59.0788 68.344 57.1908 68.344ZM70.6935 65.944H72.8055V68.184H70.6935V65.944ZM65.0775 64.664H78.4695V66.344H65.0775V64.664ZM66.5655 67.592H76.8535V72.424H74.7255V69.272H66.5655V67.592ZM66.7895 57.976H68.8855V59.288H74.6615V57.976H76.7735V63.704H66.7895V57.976ZM68.8855 60.872V62.04H74.6615V60.872H68.8855ZM81.3643 64.216H91.7803V65.912H81.3643V64.216ZM79.8123 69.016H93.2203V70.76H79.8123V69.016ZM85.4283 64.984H87.5563V69.576H85.4283V64.984ZM81.3643 58.616H91.6683V60.328H83.4923V64.952H81.3643V58.616Z" fill="black"/>
</g>
<defs>
<clipPath id="clip0_357_3">
<rect width="120" height="133" fill="white"/>
</clipPath>
</defs>
</svg>
