<svg width="144" height="205" viewBox="0 0 144 205" fill="none" xmlns="http://www.w3.org/2000/svg">
<g clip-path="url(#clip0_354_2)">
<path d="M25.6651 98.3442C25.6651 98.3442 25.3195 98.3442 25.2103 98.453C25.1012 98.5617 24.8647 98.7972 24.7556 98.7972C24.6465 98.7972 24.5191 99.1414 24.5191 99.1414C24.5191 99.1414 24.1735 99.5943 24.1735 99.7212C24.1735 99.8299 23.8279 100.41 23.8279 100.41L22.682 101.442C22.682 101.442 21.427 102.022 21.427 102.131C21.427 102.239 21.1905 102.692 20.9722 102.819C20.7358 102.928 21.3178 102.928 20.5175 103.163C19.7172 103.399 18.8077 103.399 18.8077 103.399L17.9892 103.816L16.4977 103.598C16.4977 103.598 15.8065 103.145 15.8065 103.49C15.8065 103.834 15.2244 104.522 15.2244 104.631C15.2244 104.74 14.988 105.881 14.7697 106.117C14.5514 106.334 12.8234 107.348 12.8234 107.348L10.3133 109.07L9.73125 109.867L9.51298 111.461L8.93092 113.526L8.47619 114.885L7.4394 116.262L6.18434 119.107L5.38402 120.012L5.96607 121.154L6.20253 121.607L5.4022 122.404L4.80196 123.002L4.5655 124.252L3.87431 125.393L2.83752 126.426L3.40138 127.114L4.78377 128.256L5.82056 129.741L5.92969 130.538L6.38443 131.68L6.49356 132.93L5.80237 134.307L5.69323 135.213L6.49356 136.119C6.49356 136.119 7.40303 136.807 7.40303 136.916C7.40303 137.024 6.94829 138.166 6.94829 138.166L6.49356 138.619L5.27488 139.887L4.47455 140.793L3.8925 141.934L3.43776 142.84C3.43776 142.84 3.2013 143.528 3.32863 143.528C3.45595 143.528 3.67422 144.434 3.67422 144.434L2.8739 145.576L2.5283 146.373L1.03678 147.279L0.23645 147.17V147.514L0.800318 150.485L1.94624 151.736V154.707L2.85571 159.272L4.80196 160.758L6.29348 162.805L7.33027 165.323C7.33027 165.323 8.23973 166.809 8.36706 167.371C8.47619 167.95 8.82179 168.168 8.93092 168.748C9.04006 169.327 9.38566 169.327 9.38566 169.327C9.38566 169.327 10.768 169.907 11.3319 170.36C11.8958 170.813 12.0231 171.954 12.0231 171.954C12.0231 171.954 12.6052 173.549 12.6052 174.002C12.6052 174.454 11.8048 175.831 11.8048 175.831L10.0768 177.317L10.477 177.426H10.6407L11.0954 177.317L11.6593 177.553L12.5688 177.661L13.3691 177.897L14.2786 178.241V178.929L15.188 178.821C15.188 178.821 15.2972 178.132 15.188 178.024C15.0789 177.915 16.0975 178.259 16.0975 178.259C16.0975 178.259 16.4431 178.948 16.4431 179.056C16.4431 179.165 17.2434 179.4 17.2434 179.4L18.3893 179.292L19.6444 178.495L20.0991 177.353L20.7903 177.009L21.4815 176.556C21.4815 176.556 21.9363 176.103 21.9363 175.976V175.179C21.9363 174.835 22.5183 175.179 22.5183 175.179L23.2095 175.759L23.1004 176.556C23.1004 176.556 23.3368 177.009 23.446 177.118C23.5551 177.226 24.0098 177.118 24.1372 177.009C24.2463 176.9 24.7192 177.009 24.7192 177.009C24.7192 177.009 25.1739 176.447 25.1739 176.321C25.1739 176.194 25.8651 176.773 25.8651 176.773L26.5563 177.118L27.3567 176.882L28.157 176.429C28.157 176.429 27.8114 175.632 27.8114 175.523C27.8114 175.415 27.2293 174.618 27.2293 174.618L26.5381 173.132L26.9929 172.443C26.9929 172.443 27.102 172.443 27.7932 172.552C28.4844 172.661 28.3571 172.788 28.5935 173.005C28.8846 173.223 29.1028 172.643 29.1028 172.534C29.1028 172.425 28.9937 171.628 28.9937 171.628L29.794 170.469L30.8308 170.016L31.8676 169.672L32.2132 170.233L31.8676 170.813L31.4129 171.266L30.7217 172.172L30.6125 173.313L30.849 174.346L30.6125 175.252L30.1578 176.284V176.52L30.6125 177.553C30.6125 177.553 30.7217 178.35 30.7217 178.458C30.7217 178.567 30.3761 179.02 30.3761 179.02L30.0305 179.473L29.794 180.161L29.9032 180.741L30.2488 181.538L32.6497 182.788L33.6865 183.024L34.596 183.368C34.596 183.368 35.2872 184.618 35.2872 184.745C35.2872 184.854 35.5236 185.542 35.5236 185.651C35.5236 185.76 36.0875 185.76 36.2148 185.76C36.324 185.76 36.5604 185.651 36.5604 185.651C36.5604 185.651 36.906 185.071 37.0152 184.962C37.1243 184.854 37.7064 184.962 37.7064 184.962H38.8523L39.5435 185.524L40.2347 185.633L40.5803 185.053C40.5803 185.053 41.035 184.256 40.9259 184.147C40.8167 184.038 41.035 183.241 41.035 183.114C41.035 183.006 41.3806 182.535 41.3806 182.535C41.3806 182.535 41.9445 182.082 42.0718 182.082C42.1809 182.082 42.9812 182.535 42.9812 182.643C42.9812 182.752 44.018 182.535 44.1272 182.408C44.2363 182.299 44.9275 182.517 45.0366 182.517C45.1458 182.517 45.2731 183.314 45.2731 183.422C45.2731 183.531 45.6187 184.111 45.6187 184.111L46.0734 184.908H46.6555C46.7646 184.908 47.4558 184.564 47.4558 184.564L48.147 184.002C48.147 184.002 48.3835 183.422 48.4926 183.205C48.6017 182.97 49.1838 182.752 49.2929 182.625C49.4021 182.517 49.4021 182.172 49.4021 182.064C49.4021 181.955 49.8568 181.267 49.8568 181.267L50.3115 182.064L51.0027 182.861L50.7663 184.002C50.7663 184.002 51.0027 184.455 51.0027 184.564C51.0027 184.673 50.8936 185.125 50.8936 185.125L50.548 185.361L49.6385 185.47H48.6017C48.4926 185.47 48.2561 186.049 48.2561 186.158C48.2561 186.267 48.3653 186.955 48.3653 186.955L48.9291 187.535L49.493 187.988L50.5298 188.441C50.5298 188.441 51.3301 188.441 51.4393 188.332C51.5484 188.224 52.3487 187.535 52.3487 187.535L53.0399 187.644L53.4947 188.894V189.691C53.4947 189.8 53.1491 190.144 53.1491 190.144L53.2582 191.05V192.191C53.2582 192.3 53.0217 192.535 53.0217 192.535L51.8758 191.974L50.9663 191.394L50.0569 191.847L49.8386 192.39L50.4025 193.079C50.4025 193.079 51.3119 193.641 51.4393 193.641C51.5484 193.641 52.3487 194.438 52.3487 194.438L52.5852 195.47V195.815C52.5852 195.815 52.8217 196.268 52.9308 196.268C53.0399 196.268 53.2764 196.956 53.2764 197.3C53.2764 197.644 53.622 197.88 53.622 197.989C53.622 198.097 54.204 198.333 54.204 198.333H55.0044L55.4591 197.989C55.4591 197.989 55.9138 197.644 55.9138 197.536C55.9138 197.427 56.1503 196.739 56.1503 196.739V195.597C56.1503 195.489 56.2594 195.253 56.2594 195.253C56.2594 195.253 56.4959 194.909 56.4959 194.8C56.4959 194.691 56.605 194.456 56.605 194.456C56.605 194.456 56.4959 194.003 56.4959 193.894C56.4959 193.785 56.3867 193.441 56.3867 193.441C56.3867 193.441 56.0412 192.988 55.932 192.862C55.8229 192.753 55.8229 192.282 55.8229 192.282L56.1685 191.829H56.7323L57.5327 191.72L57.6418 191.032C57.6418 191.032 58.0965 190.452 58.0965 190.343C58.0965 190.235 58.333 189.655 58.4421 189.437C58.5513 189.202 59.1333 188.64 59.1333 188.64C59.1333 188.64 59.4789 188.079 59.4789 187.952C59.4789 187.843 59.0242 187.372 59.0242 187.372L58.6786 186.81C58.6786 186.81 58.333 186.357 58.0965 186.357C57.8601 186.357 57.7509 186.81 57.7509 186.919C57.7509 187.028 57.2962 187.608 57.2962 187.608C57.2962 187.608 56.9506 188.513 56.9506 188.64C56.9506 188.767 56.2594 188.749 56.1503 188.749C56.0412 188.749 55.8047 188.513 55.8047 188.405C55.8047 188.296 55.9138 187.499 55.9138 187.372C55.9138 187.263 56.2594 186.466 56.2594 186.466V185.216L56.8415 184.654V184.202V183.404L56.4959 182.498C56.4959 182.498 56.7323 182.046 56.7323 181.937C56.7323 181.828 57.1871 181.248 57.3144 181.14C57.4235 181.031 57.3144 180.56 57.3144 180.56L57.0779 179.654L57.3144 179.419L57.66 179.183H59.1515L60.643 178.948L61.4434 178.495L61.8981 177.915L62.3528 177.571L61.8981 176.665L61.4434 176.429L60.5339 175.741L60.2974 175.161L59.4971 174.581L58.5876 174.926L56.6414 175.034L55.259 175.378C55.259 175.378 54.8043 176.411 54.8043 176.629C54.8043 176.864 53.6584 176.973 53.5492 176.973H52.6398V176.284L53.4401 175.705L53.8948 174.907V174.219L54.8043 173.983C54.8043 173.983 56.6414 173.639 56.7505 173.639C56.8597 173.639 57.66 173.186 57.66 173.059C57.66 172.933 58.6968 172.951 58.6968 172.951C58.6968 172.951 59.7336 172.498 59.9518 172.498C60.1701 172.498 60.2974 172.045 60.2974 171.809C60.2974 171.574 59.9518 171.121 59.9518 171.121L59.3698 169.98L60.9704 170.215L61.8799 170.106L63.0258 169.871C63.0258 169.871 63.4806 170.451 63.4806 170.668C63.4806 170.904 64.5174 170.324 64.5174 170.324L65.8997 169.98L66.7001 170.469C66.7001 170.469 67.2639 171.03 67.5004 171.157C67.7369 171.266 67.7369 171.954 67.7369 171.954C67.7369 171.954 67.846 172.86 67.846 172.987V173.784L68.0824 174.69H68.428L69.9196 174.237L70.7199 174.346C70.7199 174.346 71.2838 173.096 71.2838 172.751C71.2838 172.407 70.829 171.954 70.829 171.954L69.7922 170.922L69.3375 169.78L69.4466 168.748L69.2102 167.95L68.9737 166.918L68.6281 166.121L68.2825 164.635C68.2825 164.635 68.0461 163.602 68.0461 163.494C68.0461 163.385 68.7373 162.243 68.7373 162.243C68.7373 162.243 69.0829 161.555 69.192 161.446C69.3011 161.338 70.2288 161.102 70.2288 161.102L70.6835 161.555V162.243L70.4471 163.276L69.9923 164.182V164.87L70.9382 166.483L71.2838 167.389H72.5388L73.4483 167.497L73.903 167.842C73.903 167.842 74.4669 168.639 74.5942 168.748C74.7033 168.856 74.9398 169.327 75.1763 169.545C75.4127 169.78 75.4127 169.436 75.4127 169.436C75.4127 169.436 75.5219 168.53 75.5219 168.403C75.5219 168.295 75.7583 167.715 75.8675 167.606C75.9766 167.497 76.3222 167.715 76.3222 167.715C76.3222 167.715 76.7769 168.277 76.8861 168.403C76.9952 168.512 76.9952 169.309 76.9952 169.309L76.7587 170.215L76.304 171.012L76.9952 171.809H77.7955C77.9047 171.809 78.3776 171.918 78.3776 171.918L79.1779 172.371C79.1779 172.371 79.6326 172.262 79.76 172.262C79.8691 172.262 80.6694 172.154 80.7968 172.154C80.9059 172.154 81.4879 172.262 81.4879 172.262C81.4879 172.262 81.9427 171.918 82.1791 171.683C82.4156 171.447 82.8703 171.447 82.8703 171.447L82.9795 172.009L83.4342 172.806L83.7798 173.386C83.7798 173.386 84.2345 173.494 85.3804 173.386L85.9625 173.277L86.3081 171.23L85.3986 169.744C85.3986 169.744 84.4892 168.711 84.3619 168.603C84.2345 168.494 83.5615 167.805 83.798 167.697C84.0344 167.588 85.053 167.805 85.2895 167.697C85.526 167.588 86.5446 167.697 86.5446 167.697H87.7996L89.7459 167.117C89.7459 167.117 89.855 167.008 89.7459 166.429C89.6367 165.867 89.2911 164.726 89.2911 164.726C89.2911 164.726 89.5276 164.037 89.6367 163.928C89.7459 163.82 90.0915 163.349 90.4371 163.24C90.7827 163.131 91.1283 163.004 91.4739 163.004C91.8195 163.004 94.8025 162.425 94.9116 162.425C95.0208 162.425 96.6214 162.769 96.6214 162.769L98.5677 161.863L99.0224 161.175L99.1315 160.83L99.4771 159.58C99.4771 159.58 100.732 158.439 100.969 158.439C101.205 158.439 102.115 158.095 102.115 158.095L102.351 157.515L103.843 156.826L104.879 156.482L106.371 156.247L106.826 155.667L107.408 155.214L107.99 152.587L108.899 151.681H110.736C110.736 151.681 110.973 151.917 111.082 151.917C111.191 151.917 112.464 152.152 112.464 152.152C112.464 152.152 113.155 151.246 113.155 151.12C113.155 150.993 114.192 149.869 114.192 149.869L114.592 148.801C114.592 148.801 114.483 147.659 114.356 147.659C114.247 147.659 112.974 146.282 112.974 146.282H111.828L110.463 145.25L108.735 143.076L107.608 141.481L105.88 139.887L100.95 137.84L100.15 136.934L99.1134 135.557L98.8769 134.995L100.041 133.944C100.041 133.944 100.95 133.383 101.078 133.383C101.187 133.383 102.115 132.586 102.115 132.477C102.115 132.368 102.005 130.538 102.005 130.538L101.66 129.397L101.951 128.401L101.769 128.183L100.041 129.723L97.8583 129.143L96.6032 127.767L93.8567 127.658L92.7107 127.767L90.8736 128.799L90.4189 130.049H87.3267L86.0716 131.879L84.0163 132.332L80.5785 130.955L79.1961 130.267H76.6678L73.4665 129.47C73.4665 129.47 71.8658 130.158 71.8658 129.47C71.8658 128.781 70.6108 127.984 70.6108 127.984C70.6108 127.984 69.1192 126.734 69.2284 126.39C69.3375 126.045 69.1192 125.484 69.2284 125.013C69.3375 124.56 69.2284 123.418 69.2284 123.183C69.2284 122.947 68.3189 121.806 68.3189 121.806C68.3189 121.806 66.5909 123.4 66.5909 124.089C66.5909 124.777 65.5541 124.995 65.5541 124.995H62.6802C62.6802 124.995 60.2793 125.9 59.8063 125.9C59.3516 125.9 59.8063 126.353 59.8063 126.353L58.6604 126.245C58.6604 126.245 57.4053 126.48 57.278 126.245C57.1689 126.009 56.8233 125.792 56.4777 125.339C56.1321 124.886 55.7865 124.886 55.7865 124.886C55.7865 124.886 55.55 123.745 55.0953 122.712C55.0953 122.712 52.0031 122.821 51.7667 123.056C51.5302 123.292 49.9296 122.368 49.9296 122.368L49.1292 122.259C49.1292 122.259 46.9465 123.056 46.1462 123.056C45.3459 123.056 46.1462 122.476 46.1462 122.476L45.0003 121.788H43.6543L42.6175 120.882L43.0722 120.429L43.7634 119.976L45.0185 119.07L46.1644 118.617V117.132V115.574V114.885L45.5823 114.432C45.5823 114.432 45.0003 113.182 44.6729 112.947C44.3273 112.711 44.4364 112.385 44.4364 112.385L43.7452 111.135L42.9449 110.791C42.9449 110.791 42.3628 110.229 41.6898 109.649C40.9986 109.07 41.6898 108.961 41.6898 108.961C41.6898 108.961 41.1078 107.82 41.1078 107.711C41.1078 107.602 40.653 106.678 40.653 106.678L39.1615 105.772C39.1615 105.772 37.5608 105.772 37.3244 106.008C37.0879 106.243 36.7605 105.555 36.7605 105.555L35.1599 106.243C35.1599 106.243 33.2136 105.555 33.2136 105.337C33.2136 105.102 32.1768 104.087 32.1768 104.087L31.2674 103.526C31.2674 103.526 29.885 103.182 29.7758 103.182C29.6667 103.182 28.9755 103.073 28.9755 103.073C28.9755 103.073 28.6299 102.62 28.6299 102.493C28.6299 102.384 28.5208 101.805 28.5208 101.587C28.5208 101.352 28.1752 101.243 28.1752 101.007C28.1752 100.772 27.3749 100.772 27.3749 100.772C27.3749 100.772 26.4654 100.083 26.3381 99.9748C26.2289 99.8661 25.6469 98.2537 25.6469 98.2537" fill="#FFD9EC"/>
<path d="M25.6651 98.3442C25.6651 98.3442 25.3195 98.3442 25.2103 98.453C25.1012 98.5617 24.8647 98.7972 24.7556 98.7972C24.6465 98.7972 24.5191 99.1414 24.5191 99.1414C24.5191 99.1414 24.1735 99.5943 24.1735 99.7212C24.1735 99.8299 23.8279 100.41 23.8279 100.41L22.682 101.442C22.682 101.442 21.427 102.022 21.427 102.131C21.427 102.239 21.1905 102.692 20.9722 102.819C20.7358 102.928 21.3178 102.928 20.5175 103.163C19.7172 103.399 18.8077 103.399 18.8077 103.399L17.9892 103.816L16.4977 103.598C16.4977 103.598 15.8065 103.145 15.8065 103.49C15.8065 103.834 15.2244 104.522 15.2244 104.631C15.2244 104.74 14.988 105.881 14.7697 106.117C14.5514 106.334 12.8234 107.348 12.8234 107.348L10.3133 109.07L9.73125 109.867L9.51298 111.461L8.93092 113.526L8.47619 114.885L7.4394 116.262L6.18434 119.107L5.38402 120.012L5.96607 121.154L6.20253 121.607L5.4022 122.404L4.80196 123.002L4.5655 124.252L3.87431 125.393L2.83752 126.426L3.40138 127.114L4.78377 128.256L5.82056 129.741L5.92969 130.538L6.38443 131.68L6.49356 132.93L5.80237 134.307L5.69323 135.213L6.49356 136.119C6.49356 136.119 7.40303 136.807 7.40303 136.916C7.40303 137.024 6.94829 138.166 6.94829 138.166L6.49356 138.619L5.27488 139.887L4.47455 140.793L3.8925 141.934L3.43776 142.84C3.43776 142.84 3.2013 143.528 3.32863 143.528C3.45595 143.528 3.67422 144.434 3.67422 144.434L2.8739 145.576L2.5283 146.373L1.03678 147.279L0.23645 147.17V147.514L0.800318 150.485L1.94624 151.736V154.707L2.85571 159.272L4.80196 160.758L6.29348 162.805L7.33027 165.323C7.33027 165.323 8.23973 166.809 8.36706 167.371C8.47619 167.95 8.82179 168.168 8.93092 168.748C9.04006 169.327 9.38566 169.327 9.38566 169.327C9.38566 169.327 10.768 169.907 11.3319 170.36C11.8958 170.813 12.0231 171.954 12.0231 171.954C12.0231 171.954 12.6052 173.549 12.6052 174.002C12.6052 174.454 11.8048 175.831 11.8048 175.831L10.0768 177.317L10.477 177.426H10.6407L11.0954 177.317L11.6593 177.553L12.5688 177.661L13.3691 177.897L14.2786 178.241V178.929L15.188 178.821C15.188 178.821 15.2972 178.132 15.188 178.024C15.0789 177.915 16.0975 178.259 16.0975 178.259C16.0975 178.259 16.4431 178.948 16.4431 179.056C16.4431 179.165 17.2434 179.4 17.2434 179.4L18.3893 179.292L19.6444 178.495L20.0991 177.353L20.7903 177.009L21.4815 176.556C21.4815 176.556 21.9363 176.103 21.9363 175.976V175.179C21.9363 174.835 22.5183 175.179 22.5183 175.179L23.2095 175.759L23.1004 176.556C23.1004 176.556 23.3368 177.009 23.446 177.118C23.5551 177.226 24.0098 177.118 24.1372 177.009C24.2463 176.9 24.7192 177.009 24.7192 177.009C24.7192 177.009 25.1739 176.447 25.1739 176.321C25.1739 176.194 25.8651 176.773 25.8651 176.773L26.5563 177.118L27.3567 176.882L28.157 176.429C28.157 176.429 27.8114 175.632 27.8114 175.523C27.8114 175.415 27.2293 174.618 27.2293 174.618L26.5381 173.132L26.9929 172.443C26.9929 172.443 27.102 172.443 27.7932 172.552C28.4844 172.661 28.3571 172.788 28.5935 173.005C28.8846 173.223 29.1028 172.643 29.1028 172.534C29.1028 172.425 28.9937 171.628 28.9937 171.628L29.794 170.469L30.8308 170.016L31.8676 169.672L32.2132 170.233L31.8676 170.813L31.4129 171.266L30.7217 172.172L30.6125 173.313L30.849 174.346L30.6125 175.252L30.1578 176.284V176.52L30.6125 177.553C30.6125 177.553 30.7217 178.35 30.7217 178.458C30.7217 178.567 30.3761 179.02 30.3761 179.02L30.0305 179.473L29.794 180.161L29.9032 180.741L30.2488 181.538L32.6497 182.788L33.6865 183.024L34.596 183.368C34.596 183.368 35.2872 184.618 35.2872 184.745C35.2872 184.854 35.5236 185.542 35.5236 185.651C35.5236 185.76 36.0875 185.76 36.2148 185.76C36.324 185.76 36.5604 185.651 36.5604 185.651C36.5604 185.651 36.906 185.071 37.0152 184.962C37.1243 184.854 37.7064 184.962 37.7064 184.962H38.8523L39.5435 185.524L40.2347 185.633L40.5803 185.053C40.5803 185.053 41.035 184.256 40.9259 184.147C40.8167 184.038 41.035 183.241 41.035 183.114C41.035 183.006 41.3806 182.535 41.3806 182.535C41.3806 182.535 41.9445 182.082 42.0718 182.082C42.1809 182.082 42.9812 182.535 42.9812 182.643C42.9812 182.752 44.018 182.535 44.1272 182.408C44.2363 182.299 44.9275 182.517 45.0366 182.517C45.1458 182.517 45.2731 183.314 45.2731 183.422C45.2731 183.531 45.6187 184.111 45.6187 184.111L46.0734 184.908H46.6555C46.7646 184.908 47.4558 184.564 47.4558 184.564L48.147 184.002C48.147 184.002 48.3835 183.422 48.4926 183.205C48.6017 182.97 49.1838 182.752 49.2929 182.625C49.4021 182.517 49.4021 182.172 49.4021 182.064C49.4021 181.955 49.8568 181.267 49.8568 181.267L50.3115 182.064L51.0027 182.861L50.7663 184.002C50.7663 184.002 51.0027 184.455 51.0027 184.564C51.0027 184.673 50.8936 185.125 50.8936 185.125L50.548 185.361L49.6385 185.47H48.6017C48.4926 185.47 48.2561 186.049 48.2561 186.158C48.2561 186.267 48.3653 186.955 48.3653 186.955L48.9291 187.535L49.493 187.988L50.5298 188.441C50.5298 188.441 51.3301 188.441 51.4393 188.332C51.5484 188.224 52.3487 187.535 52.3487 187.535L53.0399 187.644L53.4947 188.894V189.691C53.4947 189.8 53.1491 190.144 53.1491 190.144L53.2582 191.05V192.191C53.2582 192.3 53.0217 192.535 53.0217 192.535L51.8758 191.974L50.9663 191.394L50.0569 191.847L49.8386 192.39L50.4025 193.079C50.4025 193.079 51.3119 193.641 51.4393 193.641C51.5484 193.641 52.3487 194.438 52.3487 194.438L52.5852 195.47V195.815C52.5852 195.815 52.8217 196.268 52.9308 196.268C53.0399 196.268 53.2764 196.956 53.2764 197.3C53.2764 197.644 53.622 197.88 53.622 197.989C53.622 198.097 54.204 198.333 54.204 198.333H55.0044L55.4591 197.989C55.4591 197.989 55.9138 197.644 55.9138 197.536C55.9138 197.427 56.1503 196.739 56.1503 196.739V195.597C56.1503 195.489 56.2594 195.253 56.2594 195.253C56.2594 195.253 56.4959 194.909 56.4959 194.8C56.4959 194.691 56.605 194.456 56.605 194.456C56.605 194.456 56.4959 194.003 56.4959 193.894C56.4959 193.785 56.3867 193.441 56.3867 193.441C56.3867 193.441 56.0412 192.988 55.932 192.862C55.8229 192.753 55.8229 192.282 55.8229 192.282L56.1685 191.829H56.7323L57.5327 191.72L57.6418 191.032C57.6418 191.032 58.0965 190.452 58.0965 190.343C58.0965 190.235 58.333 189.655 58.4421 189.437C58.5513 189.202 59.1333 188.64 59.1333 188.64C59.1333 188.64 59.4789 188.079 59.4789 187.952C59.4789 187.843 59.0242 187.372 59.0242 187.372L58.6786 186.81C58.6786 186.81 58.333 186.357 58.0965 186.357C57.8601 186.357 57.7509 186.81 57.7509 186.919C57.7509 187.028 57.2962 187.608 57.2962 187.608C57.2962 187.608 56.9506 188.513 56.9506 188.64C56.9506 188.767 56.2594 188.749 56.1503 188.749C56.0412 188.749 55.8047 188.513 55.8047 188.405C55.8047 188.296 55.9138 187.499 55.9138 187.372C55.9138 187.263 56.2594 186.466 56.2594 186.466V185.216L56.8415 184.654V184.202V183.404L56.4959 182.498C56.4959 182.498 56.7323 182.046 56.7323 181.937C56.7323 181.828 57.1871 181.248 57.3144 181.14C57.4235 181.031 57.3144 180.56 57.3144 180.56L57.0779 179.654L57.3144 179.419L57.66 179.183H59.1515L60.643 178.948L61.4434 178.495L61.8981 177.915L62.3528 177.571L61.8981 176.665L61.4434 176.429L60.5339 175.741L60.2974 175.161L59.4971 174.581L58.5876 174.926L56.6414 175.034L55.259 175.378C55.259 175.378 54.8043 176.411 54.8043 176.629C54.8043 176.864 53.6584 176.973 53.5492 176.973H52.6398V176.284L53.4401 175.705L53.8948 174.907V174.219L54.8043 173.983C54.8043 173.983 56.6414 173.639 56.7505 173.639C56.8597 173.639 57.66 173.186 57.66 173.059C57.66 172.933 58.6968 172.951 58.6968 172.951C58.6968 172.951 59.7336 172.498 59.9518 172.498C60.1701 172.498 60.2974 172.045 60.2974 171.809C60.2974 171.574 59.9518 171.121 59.9518 171.121L59.3698 169.98L60.9704 170.215L61.8799 170.106L63.0258 169.871C63.0258 169.871 63.4806 170.451 63.4806 170.668C63.4806 170.904 64.5174 170.324 64.5174 170.324L65.8997 169.98L66.7001 170.469C66.7001 170.469 67.2639 171.03 67.5004 171.157C67.7369 171.266 67.7369 171.954 67.7369 171.954C67.7369 171.954 67.846 172.86 67.846 172.987V173.784L68.0824 174.69H68.428L69.9196 174.237L70.7199 174.346C70.7199 174.346 71.2838 173.096 71.2838 172.751C71.2838 172.407 70.829 171.954 70.829 171.954L69.7922 170.922L69.3375 169.78L69.4466 168.748L69.2102 167.95L68.9737 166.918L68.6281 166.121L68.2825 164.635C68.2825 164.635 68.0461 163.602 68.0461 163.494C68.0461 163.385 68.7373 162.243 68.7373 162.243C68.7373 162.243 69.0829 161.555 69.192 161.446C69.3011 161.338 70.2288 161.102 70.2288 161.102L70.6835 161.555V162.243L70.4471 163.276L69.9923 164.182V164.87L70.9382 166.483L71.2838 167.389H72.5388L73.4483 167.497L73.903 167.842C73.903 167.842 74.4669 168.639 74.5942 168.748C74.7033 168.856 74.9398 169.327 75.1763 169.545C75.4127 169.78 75.4127 169.436 75.4127 169.436C75.4127 169.436 75.5219 168.53 75.5219 168.403C75.5219 168.295 75.7583 167.715 75.8675 167.606C75.9766 167.497 76.3222 167.715 76.3222 167.715C76.3222 167.715 76.7769 168.277 76.8861 168.403C76.9952 168.512 76.9952 169.309 76.9952 169.309L76.7587 170.215L76.304 171.012L76.9952 171.809H77.7955C77.9047 171.809 78.3776 171.918 78.3776 171.918L79.1779 172.371C79.1779 172.371 79.6326 172.262 79.76 172.262C79.8691 172.262 80.6694 172.154 80.7968 172.154C80.9059 172.154 81.4879 172.262 81.4879 172.262C81.4879 172.262 81.9427 171.918 82.1791 171.683C82.4156 171.447 82.8703 171.447 82.8703 171.447L82.9795 172.009L83.4342 172.806L83.7798 173.386C83.7798 173.386 84.2345 173.494 85.3804 173.386L85.9625 173.277L86.3081 171.23L85.3986 169.744C85.3986 169.744 84.4892 168.711 84.3619 168.603C84.2345 168.494 83.5615 167.805 83.798 167.697C84.0344 167.588 85.053 167.805 85.2895 167.697C85.526 167.588 86.5446 167.697 86.5446 167.697H87.7996L89.7459 167.117C89.7459 167.117 89.855 167.008 89.7459 166.429C89.6367 165.867 89.2911 164.726 89.2911 164.726C89.2911 164.726 89.5276 164.037 89.6367 163.928C89.7459 163.82 90.0915 163.349 90.4371 163.24C90.7827 163.131 91.1283 163.004 91.4739 163.004C91.8195 163.004 94.8025 162.425 94.9116 162.425C95.0208 162.425 96.6214 162.769 96.6214 162.769L98.5677 161.863L99.0224 161.175L99.1315 160.83L99.4771 159.58C99.4771 159.58 100.732 158.439 100.969 158.439C101.205 158.439 102.115 158.095 102.115 158.095L102.351 157.515L103.843 156.826L104.879 156.482L106.371 156.247L106.826 155.667L107.408 155.214L107.99 152.587L108.899 151.681H110.736C110.736 151.681 110.973 151.917 111.082 151.917C111.191 151.917 112.464 152.152 112.464 152.152C112.464 152.152 113.155 151.246 113.155 151.12C113.155 150.993 114.192 149.869 114.192 149.869L114.592 148.801C114.592 148.801 114.483 147.659 114.356 147.659C114.247 147.659 112.974 146.282 112.974 146.282H111.828L110.463 145.25L108.735 143.076L107.608 141.481L105.88 139.887L100.95 137.84L100.15 136.934L99.1134 135.557L98.8769 134.995L100.041 133.944C100.041 133.944 100.95 133.383 101.078 133.383C101.187 133.383 102.115 132.586 102.115 132.477C102.115 132.368 102.005 130.538 102.005 130.538L101.66 129.397L101.951 128.401L101.769 128.183L100.041 129.723L97.8583 129.143L96.6032 127.767L93.8567 127.658L92.7107 127.767L90.8736 128.799L90.4189 130.049H87.3267L86.0716 131.879L84.0163 132.332L80.5785 130.955L79.1961 130.267H76.6678L73.4665 129.47C73.4665 129.47 71.8658 130.158 71.8658 129.47C71.8658 128.781 70.6108 127.984 70.6108 127.984C70.6108 127.984 69.1192 126.734 69.2284 126.39C69.3375 126.045 69.1192 125.484 69.2284 125.013C69.3375 124.56 69.2284 123.418 69.2284 123.183C69.2284 122.947 68.3189 121.806 68.3189 121.806C68.3189 121.806 66.5909 123.4 66.5909 124.089C66.5909 124.777 65.5541 124.995 65.5541 124.995H62.6802C62.6802 124.995 60.2793 125.9 59.8063 125.9C59.3516 125.9 59.8063 126.353 59.8063 126.353L58.6604 126.245C58.6604 126.245 57.4053 126.48 57.278 126.245C57.1689 126.009 56.8233 125.792 56.4777 125.339C56.1321 124.886 55.7865 124.886 55.7865 124.886C55.7865 124.886 55.55 123.745 55.0953 122.712C55.0953 122.712 52.0031 122.821 51.7667 123.056C51.5302 123.292 49.9296 122.368 49.9296 122.368L49.1292 122.259C49.1292 122.259 46.9465 123.056 46.1462 123.056C45.3459 123.056 46.1462 122.476 46.1462 122.476L45.0003 121.788H43.6543L42.6175 120.882L43.0722 120.429L43.7634 119.976L45.0185 119.07L46.1644 118.617V117.132V115.574V114.885L45.5823 114.432C45.5823 114.432 45.0003 113.182 44.6729 112.947C44.3273 112.711 44.4364 112.385 44.4364 112.385L43.7452 111.135L42.9449 110.791C42.9449 110.791 42.3628 110.229 41.6898 109.649C40.9986 109.07 41.6898 108.961 41.6898 108.961C41.6898 108.961 41.1078 107.82 41.1078 107.711C41.1078 107.602 40.653 106.678 40.653 106.678L39.1615 105.772C39.1615 105.772 37.5608 105.772 37.3244 106.008C37.0879 106.243 36.7605 105.555 36.7605 105.555L35.1599 106.243C35.1599 106.243 33.2136 105.555 33.2136 105.337C33.2136 105.102 32.1768 104.087 32.1768 104.087L31.2674 103.526C31.2674 103.526 29.885 103.182 29.7758 103.182C29.6667 103.182 28.9755 103.073 28.9755 103.073C28.9755 103.073 28.6299 102.62 28.6299 102.493C28.6299 102.384 28.5208 101.805 28.5208 101.587C28.5208 101.352 28.1752 101.243 28.1752 101.007C28.1752 100.772 27.3749 100.772 27.3749 100.772C27.3749 100.772 26.4654 100.083 26.3381 99.9748C26.2289 99.8661 25.6469 98.2537 25.6469 98.2537" stroke="black" stroke-width="0.3" stroke-miterlimit="10" stroke-linecap="round" stroke-linejoin="round"/>
<path d="M76.7224 179.672L76.3768 181.049L76.2676 181.955L76.7224 182.408L77.5227 183.205V184.111L77.2862 185.597L77.3954 186.285L77.5045 187.082L77.1589 187.644L76.7042 188.097V188.55L76.2494 188.894L75.5583 189.347L75.4491 189.8V190.398L75.9039 190.633L76.4859 190.524L76.9406 189.727L77.741 189.148L78.7778 189.256V189.945C78.7778 189.945 79.0142 190.524 78.7778 190.633C78.5413 190.742 78.4322 190.977 78.4322 190.977L78.323 191.666C78.323 191.666 78.0866 191.901 77.9774 191.901H77.5227V192.698L77.1771 193.151C77.1771 193.151 76.9406 193.387 76.8315 193.387H76.2676H75.922L75.6856 194.075L76.1403 194.528L76.7042 194.873L76.595 195.452L76.9406 196.141L77.741 196.72L77.8501 197.3L77.741 197.862L76.9406 198.206L75.9039 197.753L75.34 197.065L75.1035 196.032L74.3032 196.141L73.3937 196.032L73.0481 196.376V197.409L72.939 197.989L72.5934 198.442L71.7931 198.55L70.9927 198.659L70.6472 199.003V199.583L70.4107 200.38L70.7563 201.069L71.211 201.522L71.1019 201.866L70.4107 201.974C70.4107 201.974 69.956 202.083 69.956 202.21C69.956 202.337 69.7195 202.772 69.7195 202.772L69.6104 203.351V203.696L69.3739 204.04L68.7918 204.384L68.228 204.62C68.228 204.62 67.8824 204.855 67.7732 204.855C67.6641 204.855 66.9729 204.746 66.9729 204.746C66.9729 204.746 66.409 204.638 66.2817 204.638C66.1726 204.638 65.9361 204.402 65.9361 204.402L65.6997 204.058V203.605L65.9361 203.261L66.2817 203.152L66.9729 202.917L67.4276 202.681L67.5368 202.572V202.119L66.9547 202.011L66.5 201.666L66.0453 201.558V201.214L65.9361 200.761L66.0453 200.416C66.0453 200.416 66.1544 199.963 66.2817 199.963C66.3909 199.963 66.8456 199.619 66.8456 199.619L67.1912 199.384L67.3003 199.148L67.1912 198.804L66.8456 198.568L65.8088 198.46H65.2449L64.8993 198.351L64.6629 198.116V197.771L64.4264 197.536L63.7352 197.3L63.8444 196.956L64.0808 196.72L64.4264 196.485L65.1176 196.376L65.6997 196.268L66.1544 196.032L66.2635 195.797L66.3727 195.561L66.6091 195.217L67.1912 194.311L67.5368 193.749C67.5368 193.749 67.6459 193.405 67.5368 193.405C67.4276 193.405 67.1912 193.17 67.1912 193.17V192.825V191.919L66.9547 191.575L66.7546 191.303L66.409 191.539L66.0635 191.992L65.6087 192.789L64.9175 193.351H64.2263H63.6625L63.3169 193.695L62.9713 194.257L62.2801 194.709L61.4798 194.601L61.1342 193.804L60.7886 193.242C60.7886 193.242 60.6794 192.662 60.6794 192.554C60.6794 192.445 60.3338 191.756 60.3338 191.756L59.7518 191.068V190.162V189.474L60.2065 189.021L60.443 188.441L60.7886 187.879L61.025 187.535C61.025 187.535 61.2615 187.426 61.3706 187.3C61.4798 187.191 61.6071 187.191 61.6071 187.191L62.1891 186.847L62.4256 186.502L62.7712 186.049L63.0077 185.941H63.5897L64.2809 186.285L64.9721 186.738L65.6633 187.191H66.118L66.4636 187.082L66.8092 186.738L67.0457 186.629L67.2821 186.738L67.6277 186.973L67.9733 187.535L68.2098 187.879L68.6645 188.115H69.1193L69.574 188.459C69.574 188.459 69.6831 188.695 69.8104 188.695C69.9378 188.695 70.2652 188.803 70.2652 188.803H70.3743V188.459V188.115V187.771C70.3743 187.662 70.1379 187.318 70.1379 187.318C70.1379 187.318 70.1379 186.973 70.0287 186.973C69.9196 186.973 69.6831 186.738 69.6831 186.738L69.3375 186.502L69.1011 186.267L68.9919 185.814V185.47L68.8828 185.017C68.8828 185.017 68.9919 184.673 68.8828 184.673C68.7737 184.673 68.4281 184.328 68.4281 184.328L68.3189 183.984V183.749L68.5554 183.513C68.5554 183.513 68.7918 183.404 68.901 183.404H69.5922L70.156 183.169C70.156 183.169 70.3925 182.825 70.5016 182.825C70.6108 182.825 71.0655 182.716 71.0655 182.716L71.7567 182.48H72.4479L72.557 182.245L72.6662 181.665L72.9026 181.43L73.3574 181.194L73.9394 181.085L74.285 180.977L74.5215 180.632V180.18L74.285 179.274L74.3941 178.694L74.7397 178.114L75.1945 177.534L75.7765 177.299L76.5769 177.19L77.4863 177.534L78.1775 177.987L78.2139 178.531C78.2139 178.531 78.1048 178.766 78.1048 178.875C78.1048 178.984 77.5409 179.437 77.5409 179.437L76.7224 179.672Z" fill="#FFD9EC" stroke="black" stroke-width="0.3" stroke-miterlimit="10" stroke-linecap="round" stroke-linejoin="round"/>
<path d="M41.5989 189.202C41.5989 189.202 39.5435 188.622 39.5435 188.749C39.5435 188.858 38.1611 188.749 38.1611 188.749L37.4699 189.202C37.4699 189.202 37.3608 189.546 37.3608 189.655C37.3608 189.763 37.4699 190.216 37.4699 190.216L37.7064 190.325L38.1611 190.669L39.5435 190.905H40.453L40.9077 190.561L41.3624 190.216L41.8171 190.108L42.0536 189.999V189.419L41.5989 189.202Z" fill="#FFD9EC" stroke="black" stroke-width="0.3" stroke-miterlimit="10" stroke-linecap="round" stroke-linejoin="round"/>
<path d="M42.3992 191.014L41.8172 191.485L41.708 191.938L41.4716 192.499V193.296L41.5989 193.985L41.8172 194.329H42.2901L42.8539 194.22L43.0904 193.985H43.7634L44.3455 193.876L44.4546 193.423V192.97L44.2363 192.391L43.7634 191.938L43.1995 191.593L42.9813 191.014L42.7448 190.905L42.3992 191.014Z" fill="#FFD9EC" stroke="black" stroke-width="0.3" stroke-miterlimit="10" stroke-linecap="round" stroke-linejoin="round"/>
<path d="M27.8478 187.245L28.3025 187.028V186.104L28.7572 185.433L29.5576 185.307L29.9032 185.651L30.3579 186.104L30.8308 186.448L31.2855 186.684L31.5038 186.792V187.245L31.1582 187.825L30.9399 188.387V188.858L31.1582 189.202L31.7403 189.764L31.9767 190.108L31.8494 190.452H31.2855L31.0491 190.561L30.2487 190.108L29.212 189.528L28.7572 189.202L27.8478 188.966L26.9201 189.202H25.7742L24.9739 188.858L24.41 188.731L24.0644 188.169L23.9553 187.589V187.137L24.0644 186.448L24.6283 185.886L25.1012 185.198L25.9015 184.745L26.3562 184.51L26.4654 183.839L27.1566 183.259L27.7386 182.807L28.539 182.68H28.8846L28.9937 183.024V183.368L28.4116 183.948L28.066 184.636L27.7386 185.433L27.5022 185.995L27.6113 186.792L27.8478 187.245Z" fill="#FFD9EC" stroke="black" stroke-width="0.3" stroke-miterlimit="10" stroke-linecap="round" stroke-linejoin="round"/>
<path d="M14.4423 191.485V192.282L14.5514 192.97L14.897 193.423L15.3517 193.767L15.4609 194.112L15.3517 194.456L14.897 194.909L14.4423 195.253L14.2058 195.597L14.0967 195.941L14.6605 196.286L15.0061 196.521L15.6973 196.865V197.21L15.8065 197.771L16.0429 198.224L16.4977 198.46L16.9524 198.351H17.8619L18.4257 198.242L18.8805 198.007L19.3352 197.554V196.865L19.0987 196.412L18.9896 195.724L19.0987 195.38L19.4443 195.144L20.3538 195.036L20.9177 194.583H21.4997H22.0636L22.3 195.036V195.38C22.3 195.38 22.0636 195.724 22.0636 195.833C22.0636 195.941 21.9544 196.412 21.9544 196.412L21.718 197.101V197.336L21.6089 197.789L21.718 198.025L21.8271 198.26L21.9363 198.84V199.42L22.1727 199.873L23.2095 199.982L24.3554 200.326L25.1558 200.217L25.7196 200.326L26.1744 199.982C26.1744 199.982 26.4108 200.217 26.52 200.217C26.6291 200.217 26.7564 200.67 26.7564 200.67L27.5567 201.014L28.3571 201.123H28.7027L28.8118 200.543L28.7027 199.855L28.4116 199.456L28.3025 199.003V198.423L28.539 198.188L28.9937 197.735L29.3393 197.644L29.5758 197.409V196.268C29.5758 196.268 29.3393 195.235 29.3393 195.126V194.673L29.4484 194.112L29.6849 193.423C29.6849 193.423 29.5758 192.97 29.6849 192.97C29.794 192.97 30.0305 192.626 30.0305 192.626L30.3761 192.39L30.4852 191.938L30.3761 191.485L29.8122 191.249L29.2483 191.014L28.7936 190.669L28.448 190.561H27.9933H27.4294L26.6291 190.452L26.1744 190.108H25.374L24.8102 190.669L24.0098 191.231L23.5551 191.575V191.919L22.8639 191.811L22.6274 191.231L22.1727 190.543L22.0636 190.198L21.8271 189.745L21.2633 189.51L20.6812 189.274L20.4447 189.039C20.4447 189.039 20.3356 188.803 20.3356 188.695C20.3356 188.586 20.2265 188.133 20.2265 188.133V187.897C20.2265 187.789 19.8809 187.553 19.8809 187.553L19.7717 187.209L19.5353 186.647L19.4261 185.959L19.7717 185.506L19.8809 185.053L20.6266 184.962L20.9722 184.727L21.2087 184.618L21.3178 184.274L21.427 183.694L21.6634 183.459L22.009 183.006V182.662L21.8999 182.1L21.6634 181.411L21.7726 180.723L20.7358 180.035H19.9354H19.2442L18.3348 180.143L17.6436 180.741L17.1889 181.43L16.9524 181.991L16.7341 182.68V183.024L15.9338 183.259L15.4609 183.495L15.1153 183.948C15.1153 183.948 15.2244 184.183 15.1153 184.292C15.0061 184.401 14.5514 184.745 14.5514 184.745V185.433L14.3149 186.013L13.9875 186.231L13.5328 186.466L13.4237 186.919V187.608L13.5328 188.187L13.4237 188.876L13.6601 189.673L13.8966 190.579L14.4423 191.485Z" fill="#FFD9EC" stroke="black" stroke-width="0.3" stroke-miterlimit="10" stroke-linecap="round" stroke-linejoin="round"/>
<path d="M120.613 155.45L119.576 155.214C119.576 155.214 119.467 154.526 119.34 154.417C119.231 154.308 118.54 153.167 118.54 153.04V151.899L118.085 150.866L117.048 150.63C117.048 150.63 115.793 150.739 115.666 150.63C115.556 150.522 114.865 150.286 114.865 150.286L114.283 149.942L114.192 149.743L114.574 148.764C114.574 148.764 114.465 147.623 114.338 147.623C114.229 147.623 112.955 146.246 112.955 146.246H111.864L110.482 145.213L108.754 143.039L107.608 141.445L105.88 139.851L100.95 137.803L100.15 136.898L99.1134 135.521L98.8769 134.959L100.023 133.926C100.023 133.926 100.932 133.347 101.06 133.347C101.169 133.347 102.096 132.549 102.096 132.441C102.096 132.332 101.987 130.502 101.987 130.502L101.642 129.361L101.915 128.346L101.733 128.129L103.915 127.676L105.298 127.332L105.989 127.44V125.737L106.898 123.346L109.991 121.86L112.628 121.752L114.12 121.987L115.72 121.752L117.666 122.784L118.467 123.581L119.504 123.926L119.049 124.958C119.049 124.958 119.285 125.864 118.94 126.208C118.594 126.553 118.594 127.114 118.831 127.241C119.067 127.35 121.232 128.491 121.232 128.491C121.232 128.491 122.141 128.256 122.141 128.147C122.141 128.038 122.705 127.241 122.705 127.241L124.542 127.006L126.488 126.553L128.089 126.897L130.726 128.038L131.872 128.944L132.072 129.397C132.072 129.506 131.836 130.194 131.836 130.194L132.072 130.883L132.418 131.571L132.764 132.477V133.727L132.418 134.415L132.072 134.76L132.181 135.666L132.291 136.227L132.4 137.369L132.163 138.166L131.599 138.51L131.363 139.307L131.254 140.104L130.908 140.793L130.672 141.481L130.326 142.17L129.762 142.514L128.38 143.094L127.798 142.061L127.689 140.34L127.125 138.981L126.67 139.325C126.67 139.325 126.907 140.122 126.907 140.231C126.907 140.34 127.143 141.481 127.143 141.481C127.143 141.481 127.034 142.623 127.034 142.858C127.034 143.094 126.124 143.999 126.124 143.999H125.324L124.524 144.108L124.069 144.905C124.069 144.905 124.415 146.282 124.524 146.282C124.633 146.282 124.979 146.391 124.979 146.391V147.297C124.979 147.405 124.633 147.75 124.633 147.75L124.524 148.311L124.869 149.453L124.415 149.906L123.614 150.594V151.5L124.306 151.844V152.424V152.659L124.069 153.239C124.069 153.239 123.378 153.348 123.269 153.348C123.16 153.348 122.359 153.583 122.359 153.583L121.45 154.036C121.45 154.036 121.341 154.381 121.341 154.489C121.341 154.598 121.232 154.834 120.995 154.942C120.74 155.105 120.613 155.45 120.613 155.45Z" fill="#FFB2D9" stroke="black" stroke-width="0.3" stroke-miterlimit="10" stroke-linecap="round" stroke-linejoin="round"/>
<path d="M114.192 149.851L114.32 149.978L114.902 150.322C114.902 150.322 115.593 150.558 115.702 150.667C115.811 150.775 117.084 150.667 117.084 150.667L118.121 150.902L118.576 151.935V153.076C118.576 153.185 119.267 154.326 119.376 154.453C119.485 154.562 119.613 155.25 119.613 155.25L120.649 155.486L119.958 155.83L119.613 156.066L118.576 156.174L117.994 156.283L117.648 156.627L117.412 157.08L116.957 159.019L116.721 159.816C116.721 159.816 116.375 160.051 116.266 160.051C116.157 160.051 115.466 160.396 115.466 160.504C115.466 160.613 115.575 161.084 115.575 161.084L115.811 161.772V162.117L115.702 162.57L115.356 163.131L114.774 163.82L114.429 164.399L114.192 164.852C114.192 164.852 113.956 165.414 114.083 165.414C114.192 165.414 114.083 165.758 114.083 165.758L113.628 166.211L112.937 166.555L112.137 167.117L111.446 167.914L111.209 168.603L110.864 169.056C110.864 169.056 110.409 169.291 110.282 169.291C110.172 169.291 109.245 169.056 109.245 169.056L108.208 168.947L107.517 168.494H106.953L106.371 168.947L105.789 169.291L105.552 169.979C105.552 169.979 105.207 170.324 105.316 170.432C105.425 170.541 105.771 170.994 105.771 170.994L106.116 171.683C106.116 171.683 106.225 171.918 106.225 172.027C106.225 172.135 106.335 172.824 106.335 172.824V173.512H105.643L104.843 173.404L103.934 173.295L103.479 172.498L102.678 171.809L102.224 171.574H101.66L101.205 171.809L100.969 172.262L100.732 172.715L100.387 173.168L99.8228 173.512L99.4772 174.309C99.4772 174.309 99.368 175.233 99.2407 175.233C99.1134 175.233 98.8951 175.795 98.8951 175.795L98.4404 176.375L97.8583 175.469C97.8583 175.469 97.4036 175.233 97.4036 175.125C97.4036 175.016 96.8215 175.233 96.8215 175.36C96.8215 175.469 96.9307 176.049 96.9307 176.049C96.9307 176.049 97.0398 176.628 97.0398 176.737C97.0398 176.846 96.9307 177.081 96.9307 177.081L96.2395 177.879L95.8757 177.716C95.8757 177.716 95.2936 177.824 95.2936 177.951C95.2936 178.06 94.7298 178.295 94.7298 178.295C94.7298 178.295 94.6206 178.187 94.4933 177.951C94.3842 177.716 94.0386 177.498 94.0386 177.371V176.121L93.9294 174.527L94.6206 172.806L95.2027 171.32L94.9662 170.179L93.8203 171.32L92.9108 172.57L92.347 173.367L91.4375 173.259L91.0919 172.353C91.0919 172.353 90.2916 171.791 90.2916 172.009C90.2916 172.244 89.946 173.041 89.946 173.041C89.946 173.041 89.7095 173.386 89.4912 173.386C89.2548 173.386 89.0365 173.494 89.0365 173.494C89.0365 173.494 88.4545 173.73 88.2362 173.73C87.9997 173.73 86.7447 173.168 86.7447 173.168H85.9989L86.3445 171.302L85.435 169.816C85.435 169.816 84.5256 168.784 84.3983 168.675C84.2891 168.566 83.5979 167.878 83.8344 167.769C84.0708 167.66 85.0894 167.878 85.3259 167.769C85.5624 167.66 86.581 167.769 86.581 167.769H87.836L89.7823 167.208C89.7823 167.208 89.8914 167.099 89.7823 166.519C89.6731 165.957 89.3275 164.816 89.3275 164.816C89.3275 164.816 89.564 164.128 89.6731 164.019C89.7823 163.91 90.1279 163.457 90.4735 163.33C90.8191 163.222 91.1647 163.095 91.5103 163.095C91.8559 163.095 94.8389 162.515 94.948 162.515C95.0572 162.515 96.6578 162.859 96.6578 162.859L98.6041 161.954L99.0588 161.265L99.1679 160.921L99.5135 159.671C99.5135 159.671 100.769 158.529 101.005 158.529C101.242 158.529 102.151 158.185 102.151 158.185L102.387 157.605L103.879 156.917L104.916 156.573L106.407 156.337L106.862 155.758L107.444 155.305L108.026 152.678L108.936 151.772H110.773C110.773 151.772 111.009 152.007 111.118 152.007C111.227 152.007 112.501 152.243 112.501 152.243C112.501 152.243 113.192 151.337 113.192 151.21C113.192 151.083 114.192 149.851 114.192 149.851Z" fill="#FFB2D9" stroke="black" stroke-width="0.3" stroke-miterlimit="10" stroke-linecap="round" stroke-linejoin="round"/>
<path d="M28.776 143.944H32.248V145.64H28.776V143.944ZM28.664 147.016H32.136V148.712H28.664V147.016ZM31.912 141.608H34.04V150.136H31.912V141.608ZM27.08 142.616H29.352C29.352 146.648 27.08 149.24 22.584 150.472L21.752 148.792C25.512 147.816 27.08 145.96 27.08 143.64V142.616ZM22.568 142.616H28.568V144.312H22.568V142.616ZM29.128 150.328C32.136 150.328 34.136 151.48 34.136 153.336C34.136 155.192 32.136 156.36 29.128 156.36C26.12 156.36 24.12 155.192 24.12 153.336C24.12 151.48 26.12 150.328 29.128 150.328ZM29.128 151.96C27.32 151.96 26.232 152.424 26.232 153.336C26.232 154.248 27.32 154.696 29.128 154.696C30.952 154.696 32.04 154.248 32.04 153.336C32.04 152.424 30.952 151.96 29.128 151.96ZM39.6068 142.408H41.3508V143.72C41.3508 146.664 40.0708 149.256 37.2548 150.232L36.1188 148.552C38.5988 147.72 39.6068 145.736 39.6068 143.72V142.408ZM40.0388 142.408H41.7668V143.928C41.7668 145.704 42.7588 147.432 45.0788 148.152L43.9748 149.8C41.3028 148.904 40.0388 146.6 40.0388 143.928V142.408ZM45.8948 141.608H48.0228V150.36H45.8948V141.608ZM47.4308 145.032H49.9908V146.792H47.4308V145.032ZM43.1908 150.696C46.2628 150.696 48.1988 151.768 48.1988 153.56C48.1988 155.368 46.2628 156.424 43.1908 156.424C40.1028 156.424 38.1668 155.368 38.1668 153.56C38.1668 151.768 40.1028 150.696 43.1908 150.696ZM43.1908 152.344C41.3028 152.344 40.2788 152.744 40.2788 153.56C40.2788 154.392 41.3028 154.776 43.1908 154.776C45.0788 154.776 46.0868 154.392 46.0868 153.56C46.0868 152.744 45.0788 152.344 43.1908 152.344ZM60.6135 141.608H62.7415V149.96H60.6135V141.608ZM62.1655 144.728H64.7095V146.456H62.1655V144.728ZM53.0935 150.632H62.7415V156.264H53.0935V150.632ZM60.6615 152.296H55.1895V154.584H60.6615V152.296ZM51.6695 142.312H53.7975V148.376H51.6695V142.312ZM51.6695 147.464H52.9175C54.9335 147.464 57.1255 147.32 59.4615 146.872L59.7015 148.584C57.2855 149.08 55.0135 149.208 52.9175 149.208H51.6695V147.464ZM67.3643 148.216H77.7803V149.912H67.3643V148.216ZM65.8123 153.016H79.2203V154.76H65.8123V153.016ZM71.4283 148.984H73.5563V153.576H71.4283V148.984ZM67.3643 142.616H77.6683V144.328H69.4923V148.952H67.3643V142.616Z" fill="black"/>
</g>
<g clip-path="url(#clip1_354_2)">
<path d="M132.208 129.766C132.208 129.656 132.664 129.068 132.664 129.068L133.23 128.15L133.814 127.231L134.271 126.423L134.38 125.026L134.49 124.567L134.837 123.759L135.183 123.171V122.252C135.183 122.142 135.64 121.554 135.64 121.554L136.224 120.966V119.698C136.224 119.698 136.333 118.541 136.333 118.302C136.333 118.063 136.443 117.843 136.443 117.843L137.027 117.034L137.137 116.336V115.528V114.609C137.137 114.499 137.483 114.26 137.483 114.15C137.483 114.039 137.94 113.451 137.94 113.451L138.396 112.533L138.852 111.724L139.309 111.265L139.199 110.806V110.567L138.396 109.979V109.63L138.998 109.042L139.236 108.234L138.998 107.774L138.889 106.966L138.779 105.808L139.345 105.57L139.802 104.761L140.258 103.714L140.714 103.016L141.28 102.428L141.39 101.509L141.737 100.701L142.321 100.242L143.033 99.2126L143.489 98.6247C143.489 98.6247 143.598 97.7061 143.726 97.5775C143.836 97.4672 143.726 95.6116 143.726 95.6116V94.9134C143.726 94.8032 143.489 94.105 143.489 94.105L143.379 93.7559L143.033 93.2966L142.467 93.0578H141.664L140.97 93.5171L140.733 94.2153L140.386 94.6746L139.82 95.7218L138.907 96.3098L138.104 96.6588L137.757 97.357L137.191 97.9449L136.626 98.1838L135.476 98.7717L134.563 99.4699L134.106 100.168L132.847 99.7087L131.807 99.0105L131.35 98.5512L130.657 97.8531C130.657 97.8531 130.072 97.0447 129.963 96.9344C129.853 96.8242 129.853 96.126 129.853 96.126V95.6667L130.091 94.9685C130.091 94.9685 130.2 94.399 130.328 94.2704C130.437 94.1602 131.131 94.0315 131.131 94.0315C131.131 94.0315 131.697 93.4436 131.697 93.3334C131.697 93.2231 132.737 92.7455 132.847 92.7455C132.957 92.7455 133.084 92.0473 133.084 91.9371C133.084 91.8268 133.322 91.1287 133.322 91.0184C133.322 90.9082 133.778 90.3203 133.778 90.3203L133.668 89.4016L133.212 88.7035L132.409 88.2441L131.843 87.546L131.734 86.6273L131.971 85.4699L131.861 84.2021L131.514 83.2835L130.474 82.3649V81.4462L131.277 80.1785L131.734 78.9108L131.168 77.6431C131.168 77.6431 130.821 76.9449 130.821 76.8347C130.821 76.7245 131.058 75.9161 131.058 75.9161L131.514 75.4567V74.7586L131.277 74.0604L131.168 73.6011L131.405 72.7927L131.642 71.8741L131.989 69.5591L132.099 68.8609L132.445 68.5119L133.03 68.1628L133.139 67.7035L133.249 66.8951L133.595 66.1969L134.052 65.4987L134.399 65.0394L134.636 64.6903C134.636 64.6903 135.092 64.3413 135.092 64.231C135.092 64.1208 135.676 63.7717 135.676 63.7717L136.023 63.4226L136.133 62.6142L136.242 61.8058L136.352 60.9974L136.461 60.2993L136.571 59.6011L136.461 58.9029L136.571 58.0945V57.2861L137.027 56.8268L137.483 56.2389L137.374 55.3203L137.264 54.4016L137.155 53.0053V52.3071L136.918 51.609L136.461 50.8006L135.658 49.5329L135.202 48.7245L135.311 48.1365L135.658 47.4384V46.7402L135.768 46.2809L136.114 45.9318L136.461 45.3439L136.699 44.2966L136.936 43.378L137.392 42.5696L137.629 42.1103L138.195 41.651L139.345 41.3019L139.692 40.8426L140.039 40.0342L140.623 39.5749L140.86 38.3071V36.9108L140.623 35.8636L140.514 34.9449L140.86 34.4856L141.207 33.7874L140.86 32.9791L140.623 31.8216L140.276 31.0132L140.039 29.5066L139.473 28.4594L138.998 27.4305L137.958 25.6851L137.721 23.9581L138.068 22.8006L137.721 20.4856L137.611 15.1575L138.177 13.8898L137.94 11.6851V9.25989L138.852 8.45149L137.118 6.59585L135.622 4.39112V3.36225V1.28614L134.8 0.238892C134.8 0.238892 132.281 1.1759 132.281 1.28614C132.281 1.39637 130.091 2.90293 130.091 2.90293L128.703 3.14178C128.703 3.14178 128.01 3.83994 128.01 3.95018C128.01 4.06041 127.553 4.4095 127.426 4.64834C127.316 4.88719 126.276 4.75858 126.276 4.88719C126.276 4.99742 125.819 5.47511 125.692 5.69558C125.582 5.93443 125.454 6.28351 125.454 6.61422C125.454 6.9633 125.564 7.42262 125.454 7.7717C125.345 8.12078 125.454 8.01055 125.345 8.5801C125.235 9.14965 124.779 9.27826 124.779 9.27826L122.935 8.81894C122.935 8.81894 122.698 8.5801 122.588 8.81894C122.479 9.05779 121.785 9.05779 121.785 9.05779L121.895 8.59847C121.895 8.59847 120.854 7.79007 120.854 7.44099C120.854 7.09191 121.42 6.52236 120.617 6.04467C119.814 5.58535 119.23 5.45674 119.12 5.45674C119.011 5.45674 118.427 5.69559 118.207 5.3465C117.97 4.99742 116.601 4.29926 116.601 4.29926C116.601 4.29926 115.342 3.95018 115.342 4.29926C115.342 4.64834 114.429 4.86881 114.301 5.21789C114.192 5.56698 113.151 5.91606 113.151 5.91606L112.914 6.26514L111.873 5.67721L110.377 5.21789H109.793C109.793 5.21789 109.099 4.51973 108.88 4.51973C108.643 4.51973 108.077 4.28089 108.077 4.28089C108.077 4.28089 107.967 4.17065 107.839 4.28089C107.73 4.39112 106.799 4.17065 106.799 4.04204C106.799 3.93181 106.233 3.69296 106.233 3.69296L105.539 3.23364C105.539 3.23364 104.736 3.58272 104.736 3.69296C104.736 3.8032 103.933 4.26251 103.933 4.26251L103.02 5.30976C103.02 5.30976 102.564 5.89768 102.564 6.11816C102.564 6.357 102.564 6.57747 102.217 6.81632C101.87 7.05516 101.524 7.27564 101.305 7.1654C101.067 7.05516 99.3514 6.46724 99.3514 6.46724H98.8951C98.7855 6.46724 98.0919 6.00792 98.0919 5.87931C98.0919 5.76908 97.7451 4.72183 97.7451 4.72183L96.5951 4.26251L95.4451 3.56435C95.4451 3.56435 95.3356 3.10503 95.2078 3.10503C95.0983 3.10503 94.4046 3.56435 94.4046 3.56435L94.1673 4.72183C94.1673 4.72183 93.8205 4.96068 93.8205 5.18115C93.8205 5.41999 93.4737 5.53023 93.2546 5.7507C92.9991 6.02629 92.9991 5.56698 92.9991 6.02629V7.07354L91.7213 6.83469L89.896 6.59585L87.7055 5.32813C87.7055 5.32813 87.2492 5.08929 86.446 4.75858L84.0365 5.91606H82.1929H81.3897L79.6739 7.18377L78.962 8.45149L77.7025 9.60897C77.7025 9.60897 75.9866 9.71921 75.9866 9.84782C75.9866 9.95805 75.4025 10.7665 75.4025 10.8951C75.4025 11.0053 75.7493 11.3544 74.9462 11.5932C74.143 11.8321 73.7962 12.0525 73.7962 12.0525L72.5367 12.5119L72.1898 13.3203C72.1898 13.3203 72.0803 13.7796 71.9526 13.9082C71.843 14.0184 71.843 14.147 71.3684 14.3675C70.9121 14.6063 70.5653 14.8268 70.6748 14.8268C70.7843 14.8268 70.6748 14.8268 70.5653 15.2861C70.4557 15.7455 70.328 15.6352 70.4557 15.8741C70.5653 16.1129 70.4557 16.6825 70.4557 16.6825L69.9994 17.4909L69.3058 18.2993C69.3058 18.2993 69.5431 18.9974 69.6526 19.2179C69.7621 19.4567 70.2367 19.6772 70.2367 19.6772C70.2367 19.6772 70.5835 19.9161 70.5835 20.1365V20.8347C70.5835 20.8347 70.693 21.294 70.693 21.5329C70.693 21.7717 70.5835 22.1024 70.5835 22.1024L70.1272 22.5617C70.1272 22.5617 69.4335 22.672 69.324 22.9108C69.2145 23.1497 68.7399 23.4804 68.6304 23.609C68.5026 23.7376 67.809 24.0867 67.809 24.0867C67.809 24.0867 67.4621 24.4357 67.2248 24.4357C66.9875 24.4357 66.4217 24.546 66.3121 24.6746C66.2026 24.7848 65.0526 25.1339 65.0526 25.1339V25.3728C65.0526 25.3728 64.359 25.1339 64.2495 25.0237C64.14 24.9134 63.209 24.6746 63.209 24.6746L62.1686 24.2153C62.1686 24.2153 61.9313 23.9764 61.9313 23.8662C61.9313 23.756 61.694 23.4069 61.694 23.4069L60.8908 23.168C60.8908 23.168 61.1281 22.9292 60.8908 22.4699C60.6535 22.0105 60.1971 21.4226 60.1971 21.4226C60.1971 21.4226 59.8503 21.1838 59.8503 21.0735C59.8503 20.9633 59.7408 20.1549 59.5035 20.0263C59.2662 19.9161 58.5908 19.4567 58.5908 19.4567L58.1345 19.1077L56.9845 18.9974C56.9845 18.9974 56.6377 18.7586 56.5281 18.9974C56.4186 19.2363 56.2909 19.3465 56.1813 19.567C56.0718 19.8058 55.8345 20.0263 55.8345 20.1365C55.8345 20.2468 54.575 20.5958 54.575 20.5958V21.0552C54.575 21.0552 54.6845 21.0552 54.575 21.5145C54.4655 21.9738 54.2282 22.4331 54.2282 22.4331L53.8814 23.0027L53.3155 23.2415L52.275 22.8924L51.3623 23.0027L50.6687 22.4331C50.6687 22.4331 50.1028 22.084 49.9751 21.9738C49.8655 21.8636 49.4092 21.5145 49.4092 21.5145C49.4092 21.5145 49.0624 21.0552 48.9529 21.5145C48.8433 21.9738 48.4965 22.084 48.4965 22.084C48.4965 22.084 48.2592 22.1943 48.0402 22.3229C47.8029 22.4331 46.9997 23.1313 46.9997 23.1313H45.9592L44.9188 22.7822L43.6593 23.1313C43.6593 23.1313 42.7466 24.5276 42.7466 24.7481C42.7466 24.9869 42.0529 26.4935 42.0529 26.4935L41.7061 27.6693C41.7061 27.6693 41.5966 28.588 41.7061 28.7166C41.8156 28.8268 42.5093 29.0657 42.5093 29.0657L43.5498 30.1129C43.5498 30.1129 43.8966 30.462 43.8966 30.5722C43.8966 30.6825 44.0061 30.9213 43.8966 31.2704C43.787 31.6195 43.4402 31.6195 43.3307 31.7297C43.2212 31.8399 42.2902 31.9686 42.1807 31.9686C42.0712 31.9686 40.7934 31.6195 40.7934 31.6195L40.5561 30.1129L39.2966 29.7638L38.1466 30.462C38.1466 30.462 37.453 30.2231 37.453 30.0027C37.453 29.7638 37.3435 28.735 37.2157 28.735C37.1062 28.735 36.0657 28.147 35.9562 28.4961C35.8467 28.8452 36.0657 29.7638 35.9562 30.0027C35.8467 30.2415 35.153 30.3518 35.153 30.462C35.153 30.5722 35.2626 30.3518 35.153 30.7008C35.0435 31.0499 34.9157 31.399 34.9157 31.399L34.0031 31.6378C33.7658 31.9869 33.1999 32.336 33.1999 32.336V32.5749H32.0499L30.6626 32.6851C30.6626 32.6851 30.8999 33.3832 30.8999 33.4935C30.8999 33.6037 31.5936 34.4121 31.7031 34.4121C31.8126 34.4121 32.8531 34.651 32.8531 34.651L33.4372 35.1103L34.0031 35.9187V36.7271C34.0031 36.7271 33.8935 37.8846 33.8935 37.9948C33.8935 38.105 32.7435 38.8032 32.7435 38.8032C32.7435 38.8032 32.3967 38.693 32.2872 38.5644C32.1777 38.4357 31.7213 37.6457 31.7213 37.6457L31.0277 36.8373L30.2063 36.0105H29.8595L28.9468 36.5801L28.0158 36.9292V37.7376V38.4357C28.0158 38.546 27.2127 38.6746 27.2127 38.6746L26.4095 38.7848L26.0627 38.6746C26.0627 38.6746 25.15 39.1339 25.0222 39.1339C24.8944 39.1339 24.3286 39.3728 24.3286 39.483C24.3286 39.5932 24.2191 40.4016 24.2191 40.5302C24.2191 40.6405 24.9127 40.9895 24.9127 41.1182C24.9127 41.2284 25.369 41.5775 25.369 41.5775L27.9063 41.8163L29.1658 42.9738L29.5126 44.1313C29.5126 44.1313 29.6222 44.9397 29.7499 45.0499C29.8595 45.1602 30.8999 45.7481 30.8999 45.9686C30.8999 46.2074 31.0094 47.0158 31.0094 47.126C31.0094 47.2363 30.4436 47.9344 30.4436 47.9344L29.5309 48.3938L28.965 48.9633C28.965 48.9633 28.8555 49.7717 29.0745 49.8819C29.3118 49.9922 29.5309 50.6903 29.5309 50.6903C29.5309 50.6903 29.0745 51.3885 29.0745 51.4987C29.0745 51.609 28.7277 52.1969 28.7277 52.1969C28.7277 52.1969 28.4904 52.546 28.4904 52.6562C28.4904 52.7665 28.2531 52.8951 28.4904 53.1155C28.7277 53.3544 28.8372 53.9239 28.8372 54.1628C28.8372 54.4016 28.9468 54.8609 28.9468 54.9712C28.9468 55.0814 28.5999 55.3203 28.5999 55.5591C28.5999 55.7979 28.3627 56.2573 28.3627 56.2573L28.2531 56.7166L27.9063 57.9843L28.7095 59.252C28.7095 59.252 29.1658 59.252 29.1658 59.9502C29.1658 60.6483 28.6 61.3465 28.3627 61.567C28.1254 61.8058 28.1254 61.8058 27.7785 62.1549C27.4317 62.504 27.0849 62.504 26.9754 62.6142C26.8658 62.7245 25.9349 63.8819 25.9349 63.8819L25.8254 65.7376L26.0627 67.0053C26.0627 67.0053 26.6468 66.8951 26.7563 67.0053C26.8658 67.1155 26.8658 67.0053 27.45 67.2441C28.0158 67.483 28.2531 67.5932 28.2531 67.5932C28.2531 67.5932 28.4904 66.546 28.7095 66.3255C28.9468 66.0867 29.6222 65.2783 29.6222 65.2783C29.6222 65.2783 29.8595 65.2783 29.969 65.6273C30.0785 65.9764 30.3158 66.6746 30.3158 66.7848V67.1339L31.119 67.3727L32.1594 68.0709L32.2689 68.42C32.3785 68.7691 31.7031 68.5302 32.3785 69.0079L33.0721 69.4672C33.3094 69.5775 34.4594 69.0079 34.4594 69.0079L34.6967 68.6588L35.9562 68.42H36.5403C36.7776 68.42 38.8403 68.6588 38.8403 68.6588C38.8403 68.6588 38.8403 68.8977 38.9498 69.4672C39.0593 70.0552 39.2966 70.0552 39.2966 70.2756C39.2966 70.5145 39.1871 70.5145 39.0593 70.9738C38.9498 71.4331 38.7125 71.3045 38.8403 71.6536C38.9498 72.0027 38.7308 71.7638 38.9498 72.3518C39.1871 72.9213 39.1871 73.1602 39.2966 73.1602H39.4062L39.5157 74.2074C39.5157 74.2074 38.9316 75.0158 38.7125 75.0158C38.4752 75.0158 37.7998 74.777 37.5625 74.5565C37.3252 74.3176 36.7594 73.5092 36.5221 73.6378C36.2848 73.7481 35.6094 73.9869 35.6094 73.9869C35.6094 73.9869 34.5872 74.0788 34.5872 74.2074C34.5872 74.3176 34.3499 74.0972 34.3499 74.5565C34.3499 75.0158 34.2404 74.5565 34.2404 75.0158C34.2404 75.4751 34.3499 75.9344 34.4776 76.1733C34.5872 76.3937 34.5872 76.9817 34.5872 77.2205C34.5872 77.4594 34.6967 77.6798 34.5872 78.1392C34.4777 78.5985 34.3499 78.4882 34.3499 78.9476C34.3499 79.4069 34.1126 79.9948 34.1126 79.9948L33.7658 80.5643C33.7658 80.5643 33.7658 80.105 33.6562 80.5643C33.5467 81.0237 33.0904 81.3728 33.0904 81.3728C33.0904 81.3728 32.634 81.483 32.5245 81.8321C32.415 82.1812 32.1777 82.7507 32.1777 82.8793C32.1777 82.9895 31.9404 83.5775 31.9404 83.6877C31.9404 83.7979 31.8309 84.3859 31.9404 84.4961C32.0499 84.6063 32.1777 84.8452 32.0499 85.084C31.9404 85.3229 31.5936 85.5434 31.5936 85.7822C31.5936 86.021 31.2467 86.3701 31.2467 86.3701L30.6626 86.7192L28.4722 87.4174H28.2531C28.2531 87.4174 28.4904 87.1785 28.0158 87.7665C27.5595 88.336 27.2127 88.4646 27.1031 88.4646C26.9936 88.4646 25.9532 88.7035 25.9532 88.7035V89.7507V90.7979C25.9532 90.7979 26.8658 91.8452 26.8658 91.9554C26.8658 92.0657 26.9754 92.4147 27.1031 92.8741C27.2127 93.3334 27.45 93.7927 27.45 94.0315C27.45 94.2704 27.5595 94.9502 27.5595 94.9502C27.5595 94.9502 27.669 95.5197 27.45 95.7586L27.2127 95.9974C26.9754 96.2363 26.7563 96.5853 26.7563 96.5853C26.7563 96.5853 26.9936 96.4751 26.3 96.8242C25.6063 97.1733 25.3873 97.2835 25.3873 97.2835V97.8714V98.3308V98.2205C25.3873 98.2205 25.9532 99.8373 26.0809 99.9659C26.1905 100.076 27.1214 100.774 27.1214 100.774C27.1214 100.774 27.9246 100.774 27.9246 101.013C27.9246 101.252 28.2714 101.362 28.2714 101.601C28.2714 101.84 28.3809 102.409 28.3809 102.52C28.3809 102.63 28.7277 103.108 28.7277 103.108C28.7277 103.108 29.4214 103.218 29.5309 103.218C29.6404 103.218 31.0277 103.567 31.0277 103.567L31.9404 104.137C31.9404 104.137 32.9808 105.184 32.9808 105.404C32.9808 105.625 34.934 106.323 34.934 106.323L36.5403 105.625C36.5403 105.625 36.8871 106.323 37.1062 106.084C37.3435 105.845 38.9498 105.845 38.9498 105.845L40.4466 106.764C40.4466 106.764 40.903 107.682 40.903 107.811C40.903 107.921 41.4871 109.079 41.4871 109.079C41.4871 109.079 40.7934 109.189 41.4871 109.777C42.1807 110.347 42.7466 110.934 42.7466 110.934L43.5498 111.284L44.2434 112.551C44.2434 112.551 44.1339 112.9 44.4807 113.121C44.8275 113.36 45.3934 114.627 45.3934 114.627L45.9775 115.087V115.748V117.365V118.871L44.8275 119.331L43.568 120.249L42.8744 120.709L42.418 121.168L43.4585 122.087H44.8458L45.9958 122.785C45.9958 122.785 45.1926 123.373 45.9958 123.373C46.7989 123.373 48.9894 122.564 48.9894 122.564L49.7925 122.675C49.7925 122.675 51.3989 123.593 51.6362 123.373C51.8735 123.134 54.9766 123.024 54.9766 123.024C55.4329 124.071 55.6702 125.228 55.6702 125.228C55.6702 125.228 56.017 125.228 56.3639 125.688C56.7107 126.147 57.0575 126.386 57.167 126.606C57.2766 126.845 58.5543 126.606 58.5543 126.606L58.7369 126.625L59.3575 125.1C59.3575 125.1 58.9011 124.291 59.0107 124.181C59.1202 124.071 58.317 123.134 58.317 123.024C58.317 122.913 57.8607 122.215 57.8607 122.215C57.8607 122.215 57.6234 121.976 57.4043 121.297C57.167 120.598 56.8385 119.9 56.8385 119.9V119.79L57.6416 118.871H58.098C58.2075 118.871 58.6821 118.633 58.9011 118.871C59.1384 119.11 59.1384 119.11 59.5948 119.441C60.0511 119.79 60.0511 119.68 60.2884 119.79C60.5257 119.9 60.5257 119.9 60.7448 119.9C60.9821 119.9 62.3511 119.441 62.3511 119.441C62.3511 119.441 62.4606 119.331 62.3511 118.982C62.2416 118.633 62.2416 117.824 62.1138 117.714C62.0043 117.604 61.4202 117.126 61.3106 116.906C61.2011 116.667 60.5075 116.207 60.5075 116.207C60.5075 116.207 60.0511 115.509 59.8138 115.399C59.5765 115.289 59.467 114.94 59.467 114.94C59.467 114.94 59.467 114.37 59.5765 114.242C59.686 114.131 60.0329 113.323 60.0329 113.323L60.9456 112.165L61.6392 110.898C61.6392 110.898 61.2924 110.549 61.7487 110.549C62.2051 110.549 62.3146 110.438 62.5519 110.438H63.4646H65.0709C65.0709 110.438 64.9614 110.677 65.1804 110.438C65.4177 110.2 65.8741 109.979 65.8741 109.979L65.9836 109.409C65.9836 109.409 66.0931 108.711 65.7463 108.491C65.3995 108.252 65.509 107.903 64.9431 107.793C64.3773 107.682 63.7931 107.554 63.3368 107.444C62.8804 107.333 62.4241 107.205 62.0773 107.205C61.7305 107.205 61.5114 106.856 61.0368 106.856C60.5805 106.856 59.9964 106.617 59.9964 106.617C59.9964 106.617 59.7591 106.617 59.7591 106.507C59.7591 106.396 59.7591 106.047 59.8686 105.919C59.9781 105.808 60.3249 105.11 60.3249 105.11L60.8908 104.651L61.9313 102.906C61.9313 102.906 62.1686 102.097 62.1686 101.987C62.1686 101.877 62.1686 101.528 62.2781 101.289C62.3876 101.05 62.6249 100.242 62.6249 100.242C62.6249 100.242 63.3185 99.8924 63.4281 99.7822C63.5376 99.672 63.8844 99.5434 63.8844 99.5434L64.7971 99.1943C64.7971 99.1943 64.5598 98.735 65.0344 99.084C65.4907 99.4331 65.4907 99.084 65.6185 99.4331C65.728 99.7822 66.3121 99.8924 66.4217 100.131C66.5312 100.37 66.659 100.37 66.659 100.719C66.659 101.068 66.7685 101.289 66.659 101.528C66.5494 101.766 66.5494 101.766 66.3121 102.116C66.0749 102.465 65.9653 102.465 66.0748 102.575C66.1844 102.685 66.0748 103.034 66.5312 103.144C66.9875 103.255 67.2248 103.493 67.4439 103.493C67.6812 103.493 67.7907 103.604 67.7907 103.604L68.247 103.034L68.5939 102.685L69.2875 102.446C69.2875 102.446 69.2875 102.556 69.7438 102.097C70.2002 101.638 70.4375 101.399 70.4375 101.399L70.547 100.829V99.9108C70.547 99.672 70.4375 98.6431 70.4375 98.5145C70.4375 98.3859 70.547 97.9449 70.547 97.8163C70.547 97.6877 70.6565 97.1182 70.6565 97.1182L71.1129 96.6588C71.1129 96.6588 70.8756 96.1995 71.3502 96.6588C71.8065 97.1182 71.697 97.0079 71.9343 97.1182C72.1716 97.2284 73.3033 97.1182 73.3033 97.1182L74.216 96.5486L75.1287 96.0893H75.366L76.6255 95.5197C76.6255 95.5197 77.2096 95.0604 77.4287 94.9502C77.666 94.8399 77.9945 94.8399 77.9945 94.8399C77.9945 94.8399 77.6477 94.6011 78.3414 94.8399C79.035 95.0788 79.035 95.189 79.1445 95.189C79.254 95.189 80.0572 94.8399 80.185 94.8399C80.3128 94.8399 81.6818 94.3806 81.6818 94.3806C82.2659 94.8399 82.8318 95.0788 82.8318 95.0788C83.0691 95.0788 84.6754 95.777 84.6754 95.777C84.6754 95.777 84.5659 96.0158 84.7849 96.4751C85.0222 96.9344 85.0222 97.0447 85.0222 97.2835V97.9817C85.0222 98.2205 84.7849 98.0919 85.1317 98.5512C85.4786 99.0105 85.7159 99.5985 85.7159 99.7087C85.7159 99.8189 85.7159 100.058 85.6063 100.297C85.4968 100.535 85.369 100.297 85.369 100.866C85.369 101.436 85.2595 101.675 85.2595 101.785C85.2595 101.895 85.15 102.024 85.2595 102.244C85.369 102.483 85.6063 102.703 85.7159 102.942C85.8254 103.181 85.9532 103.402 85.9532 103.53V105.386C85.9532 105.625 86.0627 105.845 85.9532 105.955C85.8436 106.066 84.9127 106.543 84.9127 106.654V107.223C84.9127 107.333 84.9127 107.682 84.8032 107.682C84.6937 107.682 84.6937 108.142 84.5659 108.142C84.4564 108.142 83.3064 108.032 83.3064 108.032C83.3064 108.032 82.3937 108.032 82.6127 108.27C82.85 108.509 82.9595 108.619 82.9595 108.969C82.9595 109.318 83.1969 109.428 82.85 109.538C82.5032 109.648 81.9373 109.648 81.9373 109.887C81.9373 110.126 81.8278 110.236 81.9373 110.475C82.0469 110.714 81.8278 111.173 81.8278 111.173C81.8278 111.173 81.5905 111.412 81.7183 111.522C81.8278 111.633 81.8278 111.982 81.8278 112.11C81.8278 112.221 81.7183 112.459 81.5905 112.459C81.481 112.459 81.0247 112.698 81.0247 112.808C81.0247 112.919 80.2215 113.856 80.2215 113.856C80.2215 113.856 79.9842 114.205 80.112 114.444C80.2215 114.682 80.3493 115.491 80.3493 115.491V116.409C80.3493 116.648 80.3493 116.997 80.2397 117.108C80.1302 117.218 80.1302 117.347 80.1302 117.567C80.1302 117.806 80.0207 118.265 80.0207 118.265L79.5644 119.184L78.3048 119.992L77.0453 120.102L76.1327 120.341L74.7454 119.882V118.963V118.045L73.8327 117.934L72.5732 117.824C72.5732 117.824 72.2264 117.824 72.1168 117.934C72.0073 118.045 70.62 118.504 70.62 118.504L69.8169 119.074L69.2327 120.341L68.6486 121.499L68.1923 122.197C68.1923 122.197 69.105 123.354 69.105 123.593C69.105 123.832 69.2145 124.99 69.105 125.449C68.9954 125.908 69.2145 126.496 69.105 126.845C68.9954 127.194 70.4923 128.462 70.4923 128.462C70.4923 128.462 71.7518 129.27 71.7518 129.969C71.7518 130.667 73.3581 129.969 73.3581 129.969L76.5707 130.777H79.108L80.4953 131.475L83.9453 132.871L86.0079 132.412L87.2492 130.446H90.3523L90.8087 129.179L92.6523 128.131L93.8023 128.021L96.5586 128.131L97.8181 129.528L100.009 130.116L101.743 128.499L103.933 128.039L105.32 127.69L106.014 127.801V126.074L106.927 123.648L110.03 122.142L112.677 122.032L114.173 122.27L115.78 122.032L117.733 123.079L118.536 123.887L119.577 124.236L119.12 125.284C119.12 125.284 119.357 126.202 119.011 126.551C118.664 126.9 118.664 127.47 118.901 127.598C119.138 127.709 121.311 128.866 121.311 128.866C121.311 128.866 122.223 128.627 122.223 128.517C122.223 128.407 122.789 127.598 122.789 127.598L124.633 127.36L126.586 126.9L128.192 127.249L130.839 128.407L131.989 129.326V130.593" fill="#FFD9EC" fill-opacity="0.901961"/>
<path d="M132.208 129.766C132.208 129.656 132.664 129.068 132.664 129.068L133.23 128.15L133.814 127.231L134.271 126.423L134.38 125.026L134.49 124.567L134.837 123.759L135.183 123.171V122.252C135.183 122.142 135.64 121.554 135.64 121.554L136.224 120.966V119.698C136.224 119.698 136.333 118.541 136.333 118.302C136.333 118.063 136.443 117.843 136.443 117.843L137.027 117.034L137.137 116.336V115.528V114.609C137.137 114.499 137.483 114.26 137.483 114.15C137.483 114.039 137.94 113.451 137.94 113.451L138.396 112.533L138.852 111.724L139.309 111.265L139.199 110.806V110.567L138.396 109.979V109.63L138.998 109.042L139.236 108.234L138.998 107.774L138.889 106.966L138.779 105.808L139.345 105.57L139.802 104.761L140.258 103.714L140.714 103.016L141.28 102.428L141.39 101.509L141.737 100.701L142.321 100.242L143.033 99.2126L143.489 98.6247C143.489 98.6247 143.598 97.7061 143.726 97.5775C143.836 97.4672 143.726 95.6116 143.726 95.6116V94.9134C143.726 94.8032 143.489 94.105 143.489 94.105L143.379 93.7559L143.033 93.2966L142.467 93.0578H141.664L140.97 93.5171L140.733 94.2153L140.386 94.6746L139.82 95.7218L138.907 96.3098L138.104 96.6588L137.757 97.357L137.191 97.9449L136.626 98.1838L135.476 98.7717L134.563 99.4699L134.106 100.168L132.847 99.7087L131.807 99.0105L131.35 98.5512L130.657 97.8531C130.657 97.8531 130.072 97.0447 129.963 96.9344C129.853 96.8242 129.853 96.126 129.853 96.126V95.6667L130.091 94.9685C130.091 94.9685 130.2 94.399 130.328 94.2704C130.437 94.1602 131.131 94.0315 131.131 94.0315C131.131 94.0315 131.697 93.4436 131.697 93.3334C131.697 93.2231 132.737 92.7455 132.847 92.7455C132.957 92.7455 133.084 92.0473 133.084 91.9371C133.084 91.8268 133.322 91.1287 133.322 91.0184C133.322 90.9082 133.778 90.3203 133.778 90.3203L133.668 89.4016L133.212 88.7035L132.409 88.2441L131.843 87.546L131.734 86.6273L131.971 85.4699L131.861 84.2021L131.514 83.2835L130.474 82.3649V81.4462L131.277 80.1785L131.734 78.9108L131.168 77.6431C131.168 77.6431 130.821 76.9449 130.821 76.8347C130.821 76.7245 131.058 75.9161 131.058 75.9161L131.514 75.4567V74.7586L131.277 74.0604L131.168 73.6011L131.405 72.7927L131.642 71.8741L131.989 69.5591L132.099 68.8609L132.445 68.5119L133.03 68.1628L133.139 67.7035L133.249 66.8951L133.595 66.1969L134.052 65.4987L134.399 65.0394L134.636 64.6903C134.636 64.6903 135.092 64.3413 135.092 64.231C135.092 64.1208 135.676 63.7717 135.676 63.7717L136.023 63.4226L136.133 62.6142L136.242 61.8058L136.352 60.9974L136.461 60.2993L136.571 59.6011L136.461 58.9029L136.571 58.0945V57.2861L137.027 56.8268L137.483 56.2389L137.374 55.3203L137.264 54.4016L137.155 53.0053V52.3071L136.918 51.609L136.461 50.8006L135.658 49.5329L135.202 48.7245L135.311 48.1365L135.658 47.4384V46.7402L135.768 46.2809L136.114 45.9318L136.461 45.3439L136.699 44.2966L136.936 43.378L137.392 42.5696L137.629 42.1103L138.195 41.651L139.345 41.3019L139.692 40.8426L140.039 40.0342L140.623 39.5749L140.86 38.3071V36.9108L140.623 35.8636L140.514 34.9449L140.86 34.4856L141.207 33.7874L140.86 32.9791L140.623 31.8216L140.276 31.0132L140.039 29.5066L139.473 28.4594L138.998 27.4305L137.958 25.6851L137.721 23.9581L138.068 22.8006L137.721 20.4856L137.611 15.1575L138.177 13.8898L137.94 11.6851V9.25989L138.852 8.45149L137.118 6.59585L135.622 4.39112V3.36225V1.28614L134.8 0.238892C134.8 0.238892 132.281 1.1759 132.281 1.28614C132.281 1.39637 130.091 2.90293 130.091 2.90293L128.703 3.14178C128.703 3.14178 128.01 3.83994 128.01 3.95018C128.01 4.06041 127.553 4.4095 127.426 4.64834C127.316 4.88719 126.276 4.75858 126.276 4.88719C126.276 4.99742 125.819 5.47511 125.692 5.69558C125.582 5.93443 125.454 6.28351 125.454 6.61422C125.454 6.9633 125.564 7.42262 125.454 7.7717C125.345 8.12078 125.454 8.01055 125.345 8.5801C125.235 9.14965 124.779 9.27826 124.779 9.27826L122.935 8.81894C122.935 8.81894 122.698 8.5801 122.588 8.81894C122.479 9.05779 121.785 9.05779 121.785 9.05779L121.895 8.59847C121.895 8.59847 120.854 7.79007 120.854 7.44099C120.854 7.09191 121.42 6.52236 120.617 6.04467C119.814 5.58535 119.23 5.45674 119.12 5.45674C119.011 5.45674 118.427 5.69559 118.207 5.3465C117.97 4.99742 116.601 4.29926 116.601 4.29926C116.601 4.29926 115.342 3.95018 115.342 4.29926C115.342 4.64834 114.429 4.86881 114.301 5.21789C114.192 5.56698 113.151 5.91606 113.151 5.91606L112.914 6.26514L111.873 5.67721L110.377 5.21789H109.793C109.793 5.21789 109.099 4.51973 108.88 4.51973C108.643 4.51973 108.077 4.28089 108.077 4.28089C108.077 4.28089 107.967 4.17065 107.839 4.28089C107.73 4.39112 106.799 4.17065 106.799 4.04204C106.799 3.93181 106.233 3.69296 106.233 3.69296L105.539 3.23364C105.539 3.23364 104.736 3.58272 104.736 3.69296C104.736 3.8032 103.933 4.26251 103.933 4.26251L103.02 5.30976C103.02 5.30976 102.564 5.89768 102.564 6.11816C102.564 6.357 102.564 6.57747 102.217 6.81632C101.87 7.05516 101.524 7.27564 101.305 7.1654C101.067 7.05516 99.3514 6.46724 99.3514 6.46724H98.8951C98.7855 6.46724 98.0919 6.00792 98.0919 5.87931C98.0919 5.76908 97.7451 4.72183 97.7451 4.72183L96.5951 4.26251L95.4451 3.56435C95.4451 3.56435 95.3356 3.10503 95.2078 3.10503C95.0983 3.10503 94.4046 3.56435 94.4046 3.56435L94.1673 4.72183C94.1673 4.72183 93.8205 4.96068 93.8205 5.18115C93.8205 5.41999 93.4737 5.53023 93.2546 5.7507C92.9991 6.02629 92.9991 5.56698 92.9991 6.02629V7.07354L91.7213 6.83469L89.896 6.59585L87.7055 5.32813C87.7055 5.32813 87.2492 5.08929 86.446 4.75858L84.0365 5.91606H82.1929H81.3897L79.6739 7.18377L78.962 8.45149L77.7025 9.60897C77.7025 9.60897 75.9866 9.71921 75.9866 9.84782C75.9866 9.95805 75.4025 10.7665 75.4025 10.8951C75.4025 11.0053 75.7493 11.3544 74.9462 11.5932C74.143 11.8321 73.7962 12.0525 73.7962 12.0525L72.5367 12.5119L72.1898 13.3203C72.1898 13.3203 72.0803 13.7796 71.9526 13.9082C71.843 14.0184 71.843 14.147 71.3684 14.3675C70.9121 14.6063 70.5653 14.8268 70.6748 14.8268C70.7843 14.8268 70.6748 14.8268 70.5653 15.2861C70.4557 15.7455 70.328 15.6352 70.4557 15.8741C70.5653 16.1129 70.4557 16.6825 70.4557 16.6825L69.9994 17.4909L69.3058 18.2993C69.3058 18.2993 69.5431 18.9974 69.6526 19.2179C69.7621 19.4567 70.2367 19.6772 70.2367 19.6772C70.2367 19.6772 70.5835 19.9161 70.5835 20.1365V20.8347C70.5835 20.8347 70.693 21.294 70.693 21.5329C70.693 21.7717 70.5835 22.1024 70.5835 22.1024L70.1272 22.5617C70.1272 22.5617 69.4335 22.672 69.324 22.9108C69.2145 23.1497 68.7399 23.4804 68.6304 23.609C68.5026 23.7376 67.809 24.0867 67.809 24.0867C67.809 24.0867 67.4621 24.4357 67.2248 24.4357C66.9875 24.4357 66.4217 24.546 66.3121 24.6746C66.2026 24.7848 65.0526 25.1339 65.0526 25.1339V25.3728C65.0526 25.3728 64.359 25.1339 64.2495 25.0237C64.14 24.9134 63.209 24.6746 63.209 24.6746L62.1686 24.2153C62.1686 24.2153 61.9313 23.9764 61.9313 23.8662C61.9313 23.756 61.694 23.4069 61.694 23.4069L60.8908 23.168C60.8908 23.168 61.1281 22.9292 60.8908 22.4699C60.6535 22.0105 60.1971 21.4226 60.1971 21.4226C60.1971 21.4226 59.8503 21.1838 59.8503 21.0735C59.8503 20.9633 59.7408 20.1549 59.5035 20.0263C59.2662 19.9161 58.5908 19.4567 58.5908 19.4567L58.1345 19.1077L56.9845 18.9974C56.9845 18.9974 56.6377 18.7586 56.5281 18.9974C56.4186 19.2363 56.2909 19.3465 56.1813 19.567C56.0718 19.8058 55.8345 20.0263 55.8345 20.1365C55.8345 20.2468 54.575 20.5958 54.575 20.5958V21.0552C54.575 21.0552 54.6845 21.0552 54.575 21.5145C54.4655 21.9738 54.2282 22.4331 54.2282 22.4331L53.8814 23.0027L53.3155 23.2415L52.275 22.8924L51.3623 23.0027L50.6687 22.4331C50.6687 22.4331 50.1028 22.084 49.9751 21.9738C49.8655 21.8636 49.4092 21.5145 49.4092 21.5145C49.4092 21.5145 49.0624 21.0552 48.9529 21.5145C48.8433 21.9738 48.4965 22.084 48.4965 22.084C48.4965 22.084 48.2592 22.1943 48.0402 22.3229C47.8029 22.4331 46.9997 23.1313 46.9997 23.1313H45.9592L44.9188 22.7822L43.6593 23.1313C43.6593 23.1313 42.7466 24.5276 42.7466 24.7481C42.7466 24.9869 42.0529 26.4935 42.0529 26.4935L41.7061 27.6693C41.7061 27.6693 41.5966 28.588 41.7061 28.7166C41.8156 28.8268 42.5093 29.0657 42.5093 29.0657L43.5498 30.1129C43.5498 30.1129 43.8966 30.462 43.8966 30.5722C43.8966 30.6825 44.0061 30.9213 43.8966 31.2704C43.787 31.6195 43.4402 31.6195 43.3307 31.7297C43.2212 31.8399 42.2902 31.9686 42.1807 31.9686C42.0712 31.9686 40.7934 31.6195 40.7934 31.6195L40.5561 30.1129L39.2966 29.7638L38.1466 30.462C38.1466 30.462 37.453 30.2231 37.453 30.0027C37.453 29.7638 37.3435 28.735 37.2157 28.735C37.1062 28.735 36.0657 28.147 35.9562 28.4961C35.8467 28.8452 36.0657 29.7638 35.9562 30.0027C35.8467 30.2415 35.153 30.3518 35.153 30.462C35.153 30.5722 35.2626 30.3518 35.153 30.7008C35.0435 31.0499 34.9157 31.399 34.9157 31.399L34.0031 31.6378C33.7658 31.9869 33.1999 32.336 33.1999 32.336V32.5749H32.0499L30.6626 32.6851C30.6626 32.6851 30.8999 33.3832 30.8999 33.4935C30.8999 33.6037 31.5936 34.4121 31.7031 34.4121C31.8126 34.4121 32.8531 34.651 32.8531 34.651L33.4372 35.1103L34.0031 35.9187V36.7271C34.0031 36.7271 33.8935 37.8846 33.8935 37.9948C33.8935 38.105 32.7435 38.8032 32.7435 38.8032C32.7435 38.8032 32.3967 38.693 32.2872 38.5644C32.1777 38.4357 31.7213 37.6457 31.7213 37.6457L31.0277 36.8373L30.2063 36.0105H29.8595L28.9468 36.5801L28.0158 36.9292V37.7376V38.4357C28.0158 38.546 27.2127 38.6746 27.2127 38.6746L26.4095 38.7848L26.0627 38.6746C26.0627 38.6746 25.15 39.1339 25.0222 39.1339C24.8944 39.1339 24.3286 39.3728 24.3286 39.483C24.3286 39.5932 24.2191 40.4016 24.2191 40.5302C24.2191 40.6405 24.9127 40.9895 24.9127 41.1182C24.9127 41.2284 25.369 41.5775 25.369 41.5775L27.9063 41.8163L29.1658 42.9738L29.5126 44.1313C29.5126 44.1313 29.6222 44.9397 29.7499 45.0499C29.8595 45.1602 30.8999 45.7481 30.8999 45.9686C30.8999 46.2074 31.0094 47.0158 31.0094 47.126C31.0094 47.2363 30.4436 47.9344 30.4436 47.9344L29.5309 48.3938L28.965 48.9633C28.965 48.9633 28.8555 49.7717 29.0745 49.8819C29.3118 49.9922 29.5309 50.6903 29.5309 50.6903C29.5309 50.6903 29.0745 51.3885 29.0745 51.4987C29.0745 51.609 28.7277 52.1969 28.7277 52.1969C28.7277 52.1969 28.4904 52.546 28.4904 52.6562C28.4904 52.7665 28.2531 52.8951 28.4904 53.1155C28.7277 53.3544 28.8372 53.9239 28.8372 54.1628C28.8372 54.4016 28.9468 54.8609 28.9468 54.9712C28.9468 55.0814 28.5999 55.3203 28.5999 55.5591C28.5999 55.7979 28.3627 56.2573 28.3627 56.2573L28.2531 56.7166L27.9063 57.9843L28.7095 59.252C28.7095 59.252 29.1658 59.252 29.1658 59.9502C29.1658 60.6483 28.6 61.3465 28.3627 61.567C28.1254 61.8058 28.1254 61.8058 27.7785 62.1549C27.4317 62.504 27.0849 62.504 26.9754 62.6142C26.8658 62.7245 25.9349 63.8819 25.9349 63.8819L25.8254 65.7376L26.0627 67.0053C26.0627 67.0053 26.6468 66.8951 26.7563 67.0053C26.8658 67.1155 26.8658 67.0053 27.45 67.2441C28.0158 67.483 28.2531 67.5932 28.2531 67.5932C28.2531 67.5932 28.4904 66.546 28.7095 66.3255C28.9468 66.0867 29.6222 65.2783 29.6222 65.2783C29.6222 65.2783 29.8595 65.2783 29.969 65.6273C30.0785 65.9764 30.3158 66.6746 30.3158 66.7848V67.1339L31.119 67.3727L32.1594 68.0709L32.2689 68.42C32.3785 68.7691 31.7031 68.5302 32.3785 69.0079L33.0721 69.4672C33.3094 69.5775 34.4594 69.0079 34.4594 69.0079L34.6967 68.6588L35.9562 68.42H36.5403C36.7776 68.42 38.8403 68.6588 38.8403 68.6588C38.8403 68.6588 38.8403 68.8977 38.9498 69.4672C39.0593 70.0552 39.2966 70.0552 39.2966 70.2756C39.2966 70.5145 39.1871 70.5145 39.0593 70.9738C38.9498 71.4331 38.7125 71.3045 38.8403 71.6536C38.9498 72.0027 38.7308 71.7638 38.9498 72.3518C39.1871 72.9213 39.1871 73.1602 39.2966 73.1602H39.4062L39.5157 74.2074C39.5157 74.2074 38.9316 75.0158 38.7125 75.0158C38.4752 75.0158 37.7998 74.777 37.5625 74.5565C37.3252 74.3176 36.7594 73.5092 36.5221 73.6378C36.2848 73.7481 35.6094 73.9869 35.6094 73.9869C35.6094 73.9869 34.5872 74.0788 34.5872 74.2074C34.5872 74.3176 34.3499 74.0972 34.3499 74.5565C34.3499 75.0158 34.2404 74.5565 34.2404 75.0158C34.2404 75.4751 34.3499 75.9344 34.4776 76.1733C34.5872 76.3937 34.5872 76.9817 34.5872 77.2205C34.5872 77.4594 34.6967 77.6798 34.5872 78.1392C34.4777 78.5985 34.3499 78.4882 34.3499 78.9476C34.3499 79.4069 34.1126 79.9948 34.1126 79.9948L33.7658 80.5643C33.7658 80.5643 33.7658 80.105 33.6562 80.5643C33.5467 81.0237 33.0904 81.3728 33.0904 81.3728C33.0904 81.3728 32.634 81.483 32.5245 81.8321C32.415 82.1812 32.1777 82.7507 32.1777 82.8793C32.1777 82.9895 31.9404 83.5775 31.9404 83.6877C31.9404 83.7979 31.8309 84.3859 31.9404 84.4961C32.0499 84.6063 32.1777 84.8452 32.0499 85.084C31.9404 85.3229 31.5936 85.5434 31.5936 85.7822C31.5936 86.021 31.2467 86.3701 31.2467 86.3701L30.6626 86.7192L28.4722 87.4174H28.2531C28.2531 87.4174 28.4904 87.1785 28.0158 87.7665C27.5595 88.336 27.2127 88.4646 27.1031 88.4646C26.9936 88.4646 25.9532 88.7035 25.9532 88.7035V89.7507V90.7979C25.9532 90.7979 26.8658 91.8452 26.8658 91.9554C26.8658 92.0657 26.9754 92.4147 27.1031 92.8741C27.2127 93.3334 27.45 93.7927 27.45 94.0315C27.45 94.2704 27.5595 94.9502 27.5595 94.9502C27.5595 94.9502 27.669 95.5197 27.45 95.7586L27.2127 95.9974C26.9754 96.2363 26.7563 96.5853 26.7563 96.5853C26.7563 96.5853 26.9936 96.4751 26.3 96.8242C25.6063 97.1733 25.3873 97.2835 25.3873 97.2835V97.8714V98.3308V98.2205C25.3873 98.2205 25.9532 99.8373 26.0809 99.9659C26.1905 100.076 27.1214 100.774 27.1214 100.774C27.1214 100.774 27.9246 100.774 27.9246 101.013C27.9246 101.252 28.2714 101.362 28.2714 101.601C28.2714 101.84 28.3809 102.409 28.3809 102.52C28.3809 102.63 28.7277 103.108 28.7277 103.108C28.7277 103.108 29.4214 103.218 29.5309 103.218C29.6404 103.218 31.0277 103.567 31.0277 103.567L31.9404 104.137C31.9404 104.137 32.9808 105.184 32.9808 105.404C32.9808 105.625 34.934 106.323 34.934 106.323L36.5403 105.625C36.5403 105.625 36.8871 106.323 37.1062 106.084C37.3435 105.845 38.9498 105.845 38.9498 105.845L40.4466 106.764C40.4466 106.764 40.903 107.682 40.903 107.811C40.903 107.921 41.4871 109.079 41.4871 109.079C41.4871 109.079 40.7934 109.189 41.4871 109.777C42.1807 110.347 42.7466 110.934 42.7466 110.934L43.5498 111.284L44.2434 112.551C44.2434 112.551 44.1339 112.9 44.4807 113.121C44.8275 113.36 45.3934 114.627 45.3934 114.627L45.9775 115.087V115.748V117.365V118.871L44.8275 119.331L43.568 120.249L42.8744 120.709L42.418 121.168L43.4585 122.087H44.8458L45.9958 122.785C45.9958 122.785 45.1926 123.373 45.9958 123.373C46.7989 123.373 48.9894 122.564 48.9894 122.564L49.7925 122.675C49.7925 122.675 51.3989 123.593 51.6362 123.373C51.8735 123.134 54.9766 123.024 54.9766 123.024C55.4329 124.071 55.6702 125.228 55.6702 125.228C55.6702 125.228 56.017 125.228 56.3639 125.688C56.7107 126.147 57.0575 126.386 57.167 126.606C57.2766 126.845 58.5543 126.606 58.5543 126.606L58.7369 126.625L59.3575 125.1C59.3575 125.1 58.9011 124.291 59.0107 124.181C59.1202 124.071 58.317 123.134 58.317 123.024C58.317 122.913 57.8607 122.215 57.8607 122.215C57.8607 122.215 57.6234 121.976 57.4043 121.297C57.167 120.598 56.8385 119.9 56.8385 119.9V119.79L57.6416 118.871H58.098C58.2075 118.871 58.6821 118.633 58.9011 118.871C59.1384 119.11 59.1384 119.11 59.5948 119.441C60.0511 119.79 60.0511 119.68 60.2884 119.79C60.5257 119.9 60.5257 119.9 60.7448 119.9C60.9821 119.9 62.3511 119.441 62.3511 119.441C62.3511 119.441 62.4606 119.331 62.3511 118.982C62.2416 118.633 62.2416 117.824 62.1138 117.714C62.0043 117.604 61.4202 117.126 61.3106 116.906C61.2011 116.667 60.5075 116.207 60.5075 116.207C60.5075 116.207 60.0511 115.509 59.8138 115.399C59.5765 115.289 59.467 114.94 59.467 114.94C59.467 114.94 59.467 114.37 59.5765 114.242C59.686 114.131 60.0329 113.323 60.0329 113.323L60.9456 112.165L61.6392 110.898C61.6392 110.898 61.2924 110.549 61.7487 110.549C62.2051 110.549 62.3146 110.438 62.5519 110.438H63.4646H65.0709C65.0709 110.438 64.9614 110.677 65.1804 110.438C65.4177 110.2 65.8741 109.979 65.8741 109.979L65.9836 109.409C65.9836 109.409 66.0931 108.711 65.7463 108.491C65.3995 108.252 65.509 107.903 64.9431 107.793C64.3773 107.682 63.7931 107.554 63.3368 107.444C62.8804 107.333 62.4241 107.205 62.0773 107.205C61.7305 107.205 61.5114 106.856 61.0368 106.856C60.5805 106.856 59.9964 106.617 59.9964 106.617C59.9964 106.617 59.7591 106.617 59.7591 106.507C59.7591 106.396 59.7591 106.047 59.8686 105.919C59.9781 105.808 60.3249 105.11 60.3249 105.11L60.8908 104.651L61.9313 102.906C61.9313 102.906 62.1686 102.097 62.1686 101.987C62.1686 101.877 62.1686 101.528 62.2781 101.289C62.3876 101.05 62.6249 100.242 62.6249 100.242C62.6249 100.242 63.3185 99.8924 63.4281 99.7822C63.5376 99.672 63.8844 99.5434 63.8844 99.5434L64.7971 99.1943C64.7971 99.1943 64.5598 98.735 65.0344 99.084C65.4907 99.4331 65.4907 99.084 65.6185 99.4331C65.728 99.7822 66.3121 99.8924 66.4217 100.131C66.5312 100.37 66.659 100.37 66.659 100.719C66.659 101.068 66.7685 101.289 66.659 101.528C66.5494 101.766 66.5494 101.766 66.3121 102.116C66.0749 102.465 65.9653 102.465 66.0748 102.575C66.1844 102.685 66.0748 103.034 66.5312 103.144C66.9875 103.255 67.2248 103.493 67.4439 103.493C67.6812 103.493 67.7907 103.604 67.7907 103.604L68.247 103.034L68.5939 102.685L69.2875 102.446C69.2875 102.446 69.2875 102.556 69.7438 102.097C70.2002 101.638 70.4375 101.399 70.4375 101.399L70.547 100.829V99.9108C70.547 99.672 70.4375 98.6431 70.4375 98.5145C70.4375 98.3859 70.547 97.9449 70.547 97.8163C70.547 97.6877 70.6565 97.1182 70.6565 97.1182L71.1129 96.6588C71.1129 96.6588 70.8756 96.1995 71.3502 96.6588C71.8065 97.1182 71.697 97.0079 71.9343 97.1182C72.1716 97.2284 73.3033 97.1182 73.3033 97.1182L74.216 96.5486L75.1287 96.0893H75.366L76.6255 95.5197C76.6255 95.5197 77.2096 95.0604 77.4287 94.9502C77.666 94.8399 77.9945 94.8399 77.9945 94.8399C77.9945 94.8399 77.6477 94.6011 78.3414 94.8399C79.035 95.0788 79.035 95.189 79.1445 95.189C79.254 95.189 80.0572 94.8399 80.185 94.8399C80.3128 94.8399 81.6818 94.3806 81.6818 94.3806C82.2659 94.8399 82.8318 95.0788 82.8318 95.0788C83.0691 95.0788 84.6754 95.777 84.6754 95.777C84.6754 95.777 84.5659 96.0158 84.7849 96.4751C85.0222 96.9344 85.0222 97.0447 85.0222 97.2835V97.9817C85.0222 98.2205 84.7849 98.0919 85.1317 98.5512C85.4786 99.0105 85.7159 99.5985 85.7159 99.7087C85.7159 99.8189 85.7159 100.058 85.6063 100.297C85.4968 100.535 85.369 100.297 85.369 100.866C85.369 101.436 85.2595 101.675 85.2595 101.785C85.2595 101.895 85.15 102.024 85.2595 102.244C85.369 102.483 85.6063 102.703 85.7159 102.942C85.8254 103.181 85.9532 103.402 85.9532 103.53V105.386C85.9532 105.625 86.0627 105.845 85.9532 105.955C85.8436 106.066 84.9127 106.543 84.9127 106.654V107.223C84.9127 107.333 84.9127 107.682 84.8032 107.682C84.6937 107.682 84.6937 108.142 84.5659 108.142C84.4564 108.142 83.3064 108.032 83.3064 108.032C83.3064 108.032 82.3937 108.032 82.6127 108.27C82.85 108.509 82.9595 108.619 82.9595 108.969C82.9595 109.318 83.1969 109.428 82.85 109.538C82.5032 109.648 81.9373 109.648 81.9373 109.887C81.9373 110.126 81.8278 110.236 81.9373 110.475C82.0469 110.714 81.8278 111.173 81.8278 111.173C81.8278 111.173 81.5905 111.412 81.7183 111.522C81.8278 111.633 81.8278 111.982 81.8278 112.11C81.8278 112.221 81.7183 112.459 81.5905 112.459C81.481 112.459 81.0247 112.698 81.0247 112.808C81.0247 112.919 80.2215 113.856 80.2215 113.856C80.2215 113.856 79.9842 114.205 80.112 114.444C80.2215 114.682 80.3493 115.491 80.3493 115.491V116.409C80.3493 116.648 80.3493 116.997 80.2397 117.108C80.1302 117.218 80.1302 117.347 80.1302 117.567C80.1302 117.806 80.0207 118.265 80.0207 118.265L79.5644 119.184L78.3048 119.992L77.0453 120.102L76.1327 120.341L74.7454 119.882V118.963V118.045L73.8327 117.934L72.5732 117.824C72.5732 117.824 72.2264 117.824 72.1168 117.934C72.0073 118.045 70.62 118.504 70.62 118.504L69.8169 119.074L69.2327 120.341L68.6486 121.499L68.1923 122.197C68.1923 122.197 69.105 123.354 69.105 123.593C69.105 123.832 69.2145 124.99 69.105 125.449C68.9954 125.908 69.2145 126.496 69.105 126.845C68.9954 127.194 70.4923 128.462 70.4923 128.462C70.4923 128.462 71.7518 129.27 71.7518 129.969C71.7518 130.667 73.3581 129.969 73.3581 129.969L76.5707 130.777H79.108L80.4953 131.475L83.9453 132.871L86.0079 132.412L87.2492 130.446H90.3523L90.8087 129.179L92.6523 128.131L93.8023 128.021L96.5586 128.131L97.8181 129.528L100.009 130.116L101.743 128.499L103.933 128.039L105.32 127.69L106.014 127.801V126.074L106.927 123.648L110.03 122.142L112.677 122.032L114.173 122.27L115.78 122.032L117.733 123.079L118.536 123.887L119.577 124.236L119.12 125.284C119.12 125.284 119.357 126.202 119.011 126.551C118.664 126.9 118.664 127.47 118.901 127.598C119.138 127.709 121.311 128.866 121.311 128.866C121.311 128.866 122.223 128.627 122.223 128.517C122.223 128.407 122.789 127.598 122.789 127.598L124.633 127.36L126.586 126.9L128.192 127.249L130.839 128.407L131.989 129.326V130.593" stroke="black" stroke-width="0.3" stroke-miterlimit="10" stroke-linecap="round" stroke-linejoin="round"/>
<path d="M68.1193 122.032L68.5756 121.333L69.1598 120.176L69.7256 118.908L70.5288 118.32C70.5288 118.32 71.9161 117.861 72.0256 117.732C72.1351 117.622 72.4819 117.622 72.4819 117.622L73.7414 117.732L74.6541 117.843V118.761V119.68L76.0414 120.139L76.9541 119.9L78.2136 119.79L79.4731 118.982L79.9294 118.063C79.9294 118.063 80.039 117.604 80.039 117.365C80.039 117.126 80.039 117.016 80.1485 116.906C80.258 116.795 80.258 116.446 80.258 116.207V115.289C80.258 115.289 80.1485 114.48 80.0207 114.242C79.9112 114.003 80.1302 113.654 80.1302 113.654C80.1302 113.654 80.9334 112.735 80.9334 112.606C80.9334 112.478 81.3897 112.257 81.4993 112.257C81.6088 112.257 81.7366 112.018 81.7366 111.908C81.7366 111.798 81.7366 111.449 81.627 111.32C81.5175 111.21 81.7366 110.971 81.7366 110.971C81.7366 110.971 81.9739 110.512 81.8461 110.273C81.7366 110.034 81.8461 109.924 81.8461 109.703C81.8461 109.483 82.4302 109.465 82.7588 109.354C83.1056 109.244 82.8683 109.116 82.8683 108.785C82.8683 108.436 82.7588 108.326 82.5215 108.087C82.2842 107.848 83.2151 107.848 83.2151 107.848C83.2151 107.848 84.3651 107.958 84.4746 107.958C84.5842 107.958 84.5841 107.499 84.7119 107.499C84.8214 107.499 84.8214 107.15 84.8214 107.039V106.47C84.8214 106.36 85.7341 105.882 85.8619 105.772C85.9714 105.661 85.8619 105.423 85.8619 105.202V103.347C85.8619 103.236 85.7524 102.997 85.6246 102.777C85.5151 102.538 85.2778 102.318 85.1683 102.079C85.0587 101.84 85.1683 101.73 85.1683 101.619C85.1683 101.509 85.2778 101.27 85.2778 100.701C85.2778 100.131 85.3873 100.352 85.5151 100.131C85.6246 99.8924 85.6246 99.672 85.6246 99.5434C85.6246 99.4331 85.3873 98.8452 85.0405 98.3859C84.6937 97.9266 84.931 98.0368 84.931 97.7979V97.0998C84.931 96.8609 84.931 96.7507 84.6937 96.2914C84.4564 95.8321 84.5841 95.5932 84.5841 95.5932C84.5841 95.5932 82.9778 94.8951 82.7405 94.8951C82.7405 94.8951 82.1747 94.6562 81.5905 94.1969C81.5905 94.1969 80.2033 94.6562 80.0937 94.6562C79.9842 94.6562 79.181 95.0053 79.0533 95.0053C78.9437 95.0053 78.9437 94.8951 78.2501 94.6562C77.5565 94.4174 77.9033 94.6562 77.9033 94.6562C77.9033 94.6562 77.5565 94.6562 77.3192 94.7665C77.0819 94.8767 76.516 95.336 76.516 95.336L75.2565 95.9239H75.0192L74.1065 96.3832L73.1938 96.9712C73.1938 96.9712 72.0438 97.0814 71.8065 96.9712C71.5692 96.8609 71.697 96.9712 71.2407 96.5119C70.7843 96.0525 71.0034 96.5119 71.0034 96.5119L70.547 96.9712C70.547 96.9712 70.4375 97.5407 70.4375 97.6693C70.4375 97.7796 70.328 98.2573 70.328 98.3675C70.328 98.4777 70.4375 99.525 70.4375 99.7638V100.682L70.328 101.27C70.328 101.27 70.0907 101.509 69.6343 101.969C69.178 102.428 69.178 102.318 69.178 102.318L68.4844 102.556L68.1375 102.906L67.6812 103.475C67.6812 103.475 67.5717 103.365 67.3344 103.365C67.0971 103.365 66.878 103.126 66.4217 103.016C65.9653 102.906 66.0749 102.556 65.9653 102.446C65.8558 102.336 65.9654 102.336 66.2026 101.987C66.4399 101.638 66.4399 101.638 66.5495 101.399C66.659 101.16 66.5495 100.94 66.5495 100.591C66.5495 100.242 66.4399 100.242 66.3122 100.003C66.2026 99.7638 65.6185 99.6536 65.509 99.3045C65.3995 98.9554 65.3995 99.3045 64.9431 98.9554C64.4868 98.6063 64.7058 99.0657 64.7058 99.0657L63.7932 99.4147C63.7932 99.4147 63.4463 99.525 63.3368 99.6536C63.2273 99.7638 62.5336 100.113 62.5336 100.113C62.5336 100.113 62.2964 100.921 62.1868 101.16C62.0773 101.399 62.0773 101.748 62.0773 101.858C62.0773 101.969 61.84 102.777 61.84 102.777L60.8726 104.541L60.2884 105C60.2884 105 59.9416 105.698 59.8321 105.808C59.7226 105.919 59.7226 106.268 59.7226 106.396C59.7226 106.507 59.9599 106.507 59.9599 106.507C59.9599 106.507 60.544 106.745 61.0003 106.745C61.4567 106.745 61.694 107.095 62.0408 107.095C62.3876 107.095 62.844 107.205 63.3003 107.333C63.7566 107.444 64.3408 107.572 64.9066 107.682C65.4908 107.793 65.363 108.142 65.7098 108.381C66.0566 108.619 65.9471 109.299 65.9471 109.299L65.8376 109.869C65.8376 109.869 65.3812 110.108 65.1439 110.328C64.9066 110.567 65.0344 110.328 65.0344 110.328H63.4281H62.5154C62.2781 110.328 62.1686 110.438 61.7122 110.438C61.2559 110.438 61.6027 110.787 61.6027 110.787L60.8726 112.074L59.9599 113.231C59.9599 113.231 59.6131 114.039 59.5035 114.15C59.394 114.26 59.394 114.848 59.394 114.848C59.394 114.848 59.5035 115.197 59.7408 115.307C59.9781 115.417 60.4345 116.116 60.4345 116.116C60.4345 116.116 61.1281 116.575 61.2376 116.814C61.3472 117.053 61.9313 117.512 62.0408 117.622C62.1503 117.732 62.1503 118.541 62.2781 118.89C62.3876 119.239 62.2781 119.349 62.2781 119.349C62.2781 119.349 60.8908 119.808 60.6718 119.808C60.4345 119.808 60.4345 119.808 60.2154 119.698C59.9781 119.588 59.9781 119.698 59.5218 119.349C59.0654 119 59.0654 119 58.8281 118.761C58.5908 118.522 58.1345 118.761 58.025 118.761H57.5686L56.7655 119.68V119.79C56.7655 119.79 57.1123 120.488 57.3313 121.186C57.5686 121.885 57.7877 122.105 57.7877 122.105C57.7877 122.105 58.244 122.803 58.244 122.913C58.244 123.024 59.0472 123.961 58.9377 124.071C58.8281 124.181 59.2845 124.99 59.2845 124.99L58.6639 126.514L59.6131 126.606C59.6131 126.606 59.1567 126.147 59.6131 126.147C60.0694 126.147 62.4971 125.228 62.4971 125.228H65.3812C65.3812 125.228 66.4217 124.99 66.4217 124.31C66.4034 123.648 68.1193 122.032 68.1193 122.032Z" fill="#FFB2D9" stroke="black" stroke-width="0.3" stroke-miterlimit="10" stroke-linecap="round" stroke-linejoin="round"/>
<path d="M66.776 59.944H70.248V61.64H66.776V59.944ZM66.664 63.016H70.136V64.712H66.664V63.016ZM69.912 57.608H72.04V66.136H69.912V57.608ZM65.08 58.616H67.352C67.352 62.648 65.08 65.24 60.584 66.472L59.752 64.792C63.512 63.816 65.08 61.96 65.08 59.64V58.616ZM60.568 58.616H66.568V60.312H60.568V58.616ZM67.128 66.328C70.136 66.328 72.136 67.48 72.136 69.336C72.136 71.192 70.136 72.36 67.128 72.36C64.12 72.36 62.12 71.192 62.12 69.336C62.12 67.48 64.12 66.328 67.128 66.328ZM67.128 67.96C65.32 67.96 64.232 68.424 64.232 69.336C64.232 70.248 65.32 70.696 67.128 70.696C68.952 70.696 70.04 70.248 70.04 69.336C70.04 68.424 68.952 67.96 67.128 67.96ZM77.6068 58.408H79.3508V59.72C79.3508 62.664 78.0708 65.256 75.2548 66.232L74.1188 64.552C76.5988 63.72 77.6068 61.736 77.6068 59.72V58.408ZM78.0388 58.408H79.7668V59.928C79.7668 61.704 80.7588 63.432 83.0788 64.152L81.9748 65.8C79.3028 64.904 78.0388 62.6 78.0388 59.928V58.408ZM83.8948 57.608H86.0228V66.36H83.8948V57.608ZM85.4308 61.032H87.9908V62.792H85.4308V61.032ZM81.1908 66.696C84.2628 66.696 86.1988 67.768 86.1988 69.56C86.1988 71.368 84.2628 72.424 81.1908 72.424C78.1028 72.424 76.1668 71.368 76.1668 69.56C76.1668 67.768 78.1028 66.696 81.1908 66.696ZM81.1908 68.344C79.3028 68.344 78.2788 68.744 78.2788 69.56C78.2788 70.392 79.3028 70.776 81.1908 70.776C83.0788 70.776 84.0868 70.392 84.0868 69.56C84.0868 68.744 83.0788 68.344 81.1908 68.344ZM94.6935 65.944H96.8055V68.184H94.6935V65.944ZM89.0775 64.664H102.47V66.344H89.0775V64.664ZM90.5655 67.592H100.854V72.424H98.7255V69.272H90.5655V67.592ZM90.7895 57.976H92.8855V59.288H98.6615V57.976H100.774V63.704H90.7895V57.976ZM92.8855 60.872V62.04H98.6615V60.872H92.8855ZM105.364 64.216H115.78V65.912H105.364V64.216ZM103.812 69.016H117.22V70.76H103.812V69.016ZM109.428 64.984H111.556V69.576H109.428V64.984ZM105.364 58.616H115.668V60.328H107.492V64.952H105.364V58.616Z" fill="black"/>
</g>
<defs>
<clipPath id="clip0_354_2">
<rect width="133" height="107" fill="white" transform="translate(0 98)"/>
</clipPath>
<clipPath id="clip1_354_2">
<rect width="120" height="133" fill="white" transform="translate(24)"/>
</clipPath>
</defs>
</svg>
