<svg width="45" height="27" viewBox="0 0 45 27" fill="none" xmlns="http://www.w3.org/2000/svg">
<path d="M17.0744 21.3838C13.2265 21.8996 9.357 21.2766 6.41918 18.593C4.8623 17.171 4.30656 14.9333 4.46922 12.9129C4.82875 8.44601 9.64148 10.2406 11.418 12.3132C11.8692 12.8392 13.5986 12.1652 13.6442 11.5029C13.7971 9.26807 14.3756 6.50538 17.068 6.15805C19.5905 5.83298 21.8149 8.02665 23.0416 9.92133C23.4501 10.5513 24.7844 10.068 25.1552 9.59918C28.7512 5.05783 38.0745 -2.29312 40.9098 6.85576C41.606 9.10176 42.1876 18.1446 38.0104 16.9354C35.1266 16.1004 32.5544 13.9692 29.932 12.5426C29.3772 12.241 27.9758 12.7844 27.8708 13.4437C27.4196 16.3087 27.5706 19.2565 26.3918 21.9674C24.1819 27.0498 16.6776 21.3848 15.4962 18.5722C15.1662 17.7867 12.8724 18.6604 13.188 19.4119C14.831 23.3207 20.3205 26.219 24.5003 24.9411C30.0096 23.2559 29.4618 17.6422 30.2058 12.9295C29.5187 13.2296 28.8325 13.5305 28.1446 13.8307C31.2614 15.5263 35.8273 19.6568 39.7131 18.3989C44.2373 16.9338 43.9728 10.7167 43.4126 6.88745C42.7947 2.66136 39.5061 0.532856 35.4478 1.0868C30.4596 1.76811 26.2262 5.62721 23.2371 9.40292C23.941 9.29531 24.6458 9.18845 25.3506 9.08076C21.1803 2.64242 11.872 3.81592 11.3106 12.0152C12.0529 11.7448 12.7944 11.4753 13.5367 11.2049C10.0651 7.15372 3.5487 7.90545 2.13637 13.4244C0.165466 21.1257 11.0503 23.469 16.2604 22.7699C17.1022 22.6593 18.656 21.1714 17.0744 21.3838Z" fill="#2EA7E0"/>
</svg>
