<svg width="46" height="43" viewBox="0 0 46 43" fill="none" xmlns="http://www.w3.org/2000/svg">
<path d="M19.3418 19.4351C20.6723 18.0358 22.4565 23.746 22.3971 24.504C22.1558 27.552 19.0762 24.6195 18.2758 23.6335C17.1227 22.2148 16.3485 20.5238 15.7987 18.795C14.6442 15.1706 20.3062 14.9029 22.5653 15.9808C24.2693 16.7932 25.2402 18.5714 25.8643 20.2566C26.5598 22.1386 26.6815 24.3839 26.1779 26.3117C25.5083 28.8793 22.7259 29.2871 20.492 29.6239C19.8723 29.7168 17.9996 30.9038 19.553 30.6701C22.3498 30.2487 25.2278 29.6271 27.3434 27.6282C29.9024 25.2116 28.7934 20.2675 27.3612 17.6117C25.7937 14.7064 22.4404 13.7275 19.3685 14.4335C17.0579 14.9644 13.1025 16.0928 13.3701 19.0954C13.5874 21.5321 16.6178 27.162 19.5338 27.1165C21.5512 27.0855 23.9588 26.3768 24.6235 24.2509C26.0612 19.6518 20.465 16.3799 17.2161 19.797C16.745 20.2927 18.9481 19.8484 19.3418 19.4351Z" fill="#E60012"/>
<path d="M4.17729 14.0736C4.56026 13.4064 4.96408 12.7523 5.53187 12.2251C5.30952 12.2199 5.33903 12.2379 5.61782 12.2776C5.80255 12.3411 5.97667 12.4245 6.14184 12.5276C6.86932 12.9332 7.43869 13.6452 7.96047 14.2735C8.84507 15.3385 9.66739 16.7343 10.9374 17.3851C11.5585 17.703 13.476 16.5679 13.088 16.3693C10.9638 15.2821 10.1778 12.564 8.07053 11.3891C5.5451 9.98112 2.97396 12.7661 1.87726 14.6783C1.70167 14.9821 3.82289 14.6914 4.17729 14.0736Z" fill="#E60012"/>
<path d="M21.3701 13.6112C29.5247 13.0136 19.2591 5.31116 22.9023 2.33294C23.8772 1.53594 21.5051 1.89961 21.0356 2.28257C19.3866 3.63002 19.7628 5.47914 20.4889 7.24996C20.9341 8.33612 21.5121 9.3638 21.9834 10.4386C22.1732 10.8699 22.318 11.3134 22.411 11.7753C22.4467 11.9481 22.4477 12.1198 22.4126 12.2913C22.3738 12.6177 22.9142 12.351 22.2479 12.4002C21.5023 12.4548 19.7826 13.7279 21.3701 13.6112Z" fill="#E60012"/>
<path d="M31.3006 19.7678C33.0794 17.5921 35.6659 19.2281 37.7425 19.9866C39.3164 20.5614 40.9307 20.8081 42.5599 20.3417C43.6487 20.0303 44.3663 18.5474 42.7685 19.0053C40.3167 19.7071 37.5521 17.7448 35.1693 17.244C32.9189 16.7719 30.769 17.8345 29.3695 19.5447C28.4892 20.6235 30.8054 20.3732 31.3006 19.7678Z" fill="#E60012"/>
<path d="M27.874 30.5289C29.8809 30.2095 30.8941 33.58 31.5112 34.9593C32.3691 36.8747 33.3465 38.8594 35.2847 39.8684C36.1243 40.3053 38.1505 39.0136 37.0156 38.4225C33.0582 36.3624 33.6585 28.0249 27.9855 28.9289C26.7204 29.1316 26.2619 30.7866 27.874 30.5289Z" fill="#E60012"/>
<path d="M15.7395 32.3308C15.3265 33.3786 15.7043 34.6909 15.869 35.7564C15.9784 36.4618 16.0521 37.163 15.9582 37.8747C15.8374 38.786 15.509 38.809 14.6696 38.7772C14.0982 38.7557 13.4519 38.9676 13.0368 39.3712C12.6991 39.7008 12.8093 40.0873 13.3041 40.1064C15.3045 40.1821 17.835 39.618 18.2842 37.3416C18.64 35.537 17.3843 33.5273 18.0647 31.7978C18.3161 31.1586 16.0291 31.5929 15.7395 32.3308Z" fill="#E60012"/>
<path d="M5.64433 27.451C5.74178 26.3667 5.90648 25.4967 7.10523 25.465C8.01207 25.4407 8.94017 25.6784 9.8265 25.8425C11.4029 26.1352 12.9631 26.3176 14.3401 25.3449C15.6512 24.4182 13.5739 23.9901 12.7418 24.5774C13.0507 24.3597 12.2753 24.4588 12.0534 24.4305C11.5125 24.3636 10.9757 24.2487 10.4394 24.1493C9.37846 23.9528 8.29984 23.7892 7.21924 23.8845C4.89159 24.089 3.49121 25.6111 3.28407 27.8934C3.18723 28.9752 5.55831 28.4028 5.64433 27.451Z" fill="#E60012"/>
</svg>
