<svg width="49" height="49" viewBox="0 0 49 49" fill="none" xmlns="http://www.w3.org/2000/svg">
<path d="M31.85 44.1H39.2C40.4996 44.1 41.7459 43.5838 42.6648 42.6648C43.5838 41.7459 44.1 40.4996 44.1 39.2V31.85C44.1 31.2002 44.3581 30.5771 44.8176 30.1176C45.2771 29.6581 45.9002 29.4 46.55 29.4C47.1998 29.4 47.8229 29.6581 48.2824 30.1176C48.7419 30.5771 49 31.2002 49 31.85V39.2C49 41.7991 47.9675 44.2918 46.1296 46.1296C44.2918 47.9675 41.7991 49 39.2 49H9.8C7.20088 49 4.70821 47.9675 2.87035 46.1296C1.0325 44.2918 0 41.7991 0 39.2V31.85C0 31.2002 0.258124 30.5771 0.717588 30.1176C1.17705 29.6581 1.80022 29.4 2.45 29.4C3.09978 29.4 3.72295 29.6581 4.18241 30.1176C4.64188 30.5771 4.9 31.2002 4.9 31.85V39.2C4.9 40.4996 5.41625 41.7459 6.33518 42.6648C7.25411 43.5838 8.50044 44.1 9.8 44.1H17.15C17.7998 44.1 18.4229 44.3581 18.8824 44.8176C19.3419 45.2771 19.6 45.9002 19.6 46.55C19.6 47.1998 19.3419 47.8229 18.8824 48.2824C18.4229 48.7419 17.7998 49 17.15 49H31.85C31.2002 49 30.5771 48.7419 30.1176 48.2824C29.6581 47.8229 29.4 47.1998 29.4 46.55C29.4 45.9002 29.6581 45.2771 30.1176 44.8176C30.5771 44.3581 31.2002 44.1 31.85 44.1ZM4.9 17.15C4.9 17.7998 4.64188 18.4229 4.18241 18.8824C3.72295 19.3419 3.09978 19.6 2.45 19.6C1.80022 19.6 1.17705 19.3419 0.717588 18.8824C0.258124 18.4229 0 17.7998 0 17.15V9.8C0 7.20088 1.0325 4.70821 2.87035 2.87035C4.70821 1.0325 7.20088 0 9.8 0L17.15 0C17.7998 0 18.4229 0.258124 18.8824 0.717588C19.3419 1.17705 19.6 1.80022 19.6 2.45C19.6 3.09978 19.3419 3.72295 18.8824 4.18241C18.4229 4.64188 17.7998 4.9 17.15 4.9H9.8C8.50044 4.9 7.25411 5.41625 6.33518 6.33518C5.41625 7.25411 4.9 8.50044 4.9 9.8V17.15ZM44.1 17.15V9.8C44.1 8.50044 43.5838 7.25411 42.6648 6.33518C41.7459 5.41625 40.4996 4.9 39.2 4.9H31.85C31.2002 4.9 30.5771 4.64188 30.1176 4.18241C29.6581 3.72295 29.4 3.09978 29.4 2.45C29.4 1.80022 29.6581 1.17705 30.1176 0.717588C30.5771 0.258124 31.2002 0 31.85 0L39.2 0C41.7991 0 44.2918 1.0325 46.1296 2.87035C47.9675 4.70821 49 7.20088 49 9.8V17.15C49 17.7998 48.7419 18.4229 48.2824 18.8824C47.8229 19.3419 47.1998 19.6 46.55 19.6C45.9002 19.6 45.2771 19.3419 44.8176 18.8824C44.3581 18.4229 44.1 17.7998 44.1 17.15Z" fill="black"/>
<path d="M17.27 22.695H19.46V24.315H17.27V22.695ZM14.03 21.3H15.545V21.66C15.545 22.38 15.485 23.095 15.365 23.805C15.255 24.505 15.075 25.17 14.825 25.8C14.585 26.42 14.27 26.985 13.88 27.495C13.5 27.995 13.03 28.405 12.47 28.725L11.36 27.225C11.85 26.935 12.265 26.585 12.605 26.175C12.945 25.755 13.22 25.3 13.43 24.81C13.65 24.31 13.805 23.795 13.895 23.265C13.985 22.725 14.03 22.19 14.03 21.66V21.3ZM14.42 21.3H15.935V21.66C15.935 22.17 15.98 22.685 16.07 23.205C16.17 23.725 16.325 24.215 16.535 24.675C16.745 25.135 17.02 25.56 17.36 25.95C17.7 26.33 18.115 26.65 18.605 26.91L17.525 28.395C16.785 28.005 16.185 27.465 15.725 26.775C15.265 26.075 14.93 25.285 14.72 24.405C14.52 23.515 14.42 22.6 14.42 21.66V21.3ZM11.87 19.77H18.065V21.375H11.87V19.77ZM14.03 17.895H15.935V21.06H14.03V17.895ZM21.635 17.43H23.54V31.32H21.635V17.43ZM18.83 17.655H20.69V30.69H18.83V17.655ZM35.0288 17.445H37.0388V25.83H35.0288V17.445ZM33.3038 21.495H35.8388V23.115H33.3038V21.495ZM27.7688 26.415H37.0388V31.185H27.7688V26.415ZM35.0738 27.975H29.7338V29.61H35.0738V27.975ZM25.4438 18.645H33.5588V20.22H25.4438V18.645ZM29.5088 20.67C30.1588 20.67 30.7338 20.775 31.2338 20.985C31.7338 21.195 32.1238 21.49 32.4038 21.87C32.6938 22.24 32.8388 22.675 32.8388 23.175C32.8388 23.665 32.6938 24.1 32.4038 24.48C32.1238 24.85 31.7338 25.14 31.2338 25.35C30.7338 25.56 30.1588 25.665 29.5088 25.665C28.8688 25.665 28.2938 25.56 27.7838 25.35C27.2838 25.14 26.8888 24.85 26.5988 24.48C26.3188 24.1 26.1788 23.665 26.1788 23.175C26.1788 22.675 26.3188 22.24 26.5988 21.87C26.8888 21.49 27.2838 21.195 27.7838 20.985C28.2938 20.775 28.8688 20.67 29.5088 20.67ZM29.5238 22.14C29.2338 22.14 28.9788 22.18 28.7588 22.26C28.5488 22.34 28.3838 22.455 28.2638 22.605C28.1438 22.755 28.0838 22.94 28.0838 23.16C28.0838 23.39 28.1438 23.585 28.2638 23.745C28.3838 23.895 28.5538 24.01 28.7738 24.09C28.9938 24.17 29.2388 24.21 29.5088 24.21C29.7988 24.21 30.0488 24.17 30.2588 24.09C30.4688 24.01 30.6338 23.895 30.7538 23.745C30.8738 23.585 30.9338 23.39 30.9338 23.16C30.9338 22.94 30.8738 22.755 30.7538 22.605C30.6338 22.455 30.4688 22.34 30.2588 22.26C30.0488 22.18 29.8038 22.14 29.5238 22.14ZM28.5188 17.325H30.4988V19.755H28.5188V17.325Z" fill="black"/>
</svg>
