<svg width="49" height="49" viewBox="0 0 49 49" fill="none" xmlns="http://www.w3.org/2000/svg">
<path d="M31.85 44.1H39.2C40.4996 44.1 41.7459 43.5838 42.6648 42.6648C43.5838 41.7459 44.1 40.4996 44.1 39.2V31.85C44.1 31.2002 44.3581 30.5771 44.8176 30.1176C45.2771 29.6581 45.9002 29.4 46.55 29.4C47.1998 29.4 47.8229 29.6581 48.2824 30.1176C48.7419 30.5771 49 31.2002 49 31.85V39.2C49 41.7991 47.9675 44.2918 46.1296 46.1296C44.2918 47.9675 41.7991 49 39.2 49H9.8C7.20088 49 4.70821 47.9675 2.87035 46.1296C1.0325 44.2918 0 41.7991 0 39.2V31.85C0 31.2002 0.258124 30.5771 0.717588 30.1176C1.17705 29.6581 1.80022 29.4 2.45 29.4C3.09978 29.4 3.72295 29.6581 4.18241 30.1176C4.64188 30.5771 4.9 31.2002 4.9 31.85V39.2C4.9 40.4996 5.41625 41.7459 6.33518 42.6648C7.25411 43.5838 8.50044 44.1 9.8 44.1H17.15C17.7998 44.1 18.4229 44.3581 18.8824 44.8176C19.3419 45.2771 19.6 45.9002 19.6 46.55C19.6 47.1998 19.3419 47.8229 18.8824 48.2824C18.4229 48.7419 17.7998 49 17.15 49H31.85C31.2002 49 30.5771 48.7419 30.1176 48.2824C29.6581 47.8229 29.4 47.1998 29.4 46.55C29.4 45.9002 29.6581 45.2771 30.1176 44.8176C30.5771 44.3581 31.2002 44.1 31.85 44.1ZM4.9 17.15C4.9 17.7998 4.64188 18.4229 4.18241 18.8824C3.72295 19.3419 3.09978 19.6 2.45 19.6C1.80022 19.6 1.17705 19.3419 0.717588 18.8824C0.258124 18.4229 0 17.7998 0 17.15V9.8C0 7.20088 1.0325 4.70821 2.87035 2.87035C4.70821 1.0325 7.20088 0 9.8 0L17.15 0C17.7998 0 18.4229 0.258124 18.8824 0.717588C19.3419 1.17705 19.6 1.80022 19.6 2.45C19.6 3.09978 19.3419 3.72295 18.8824 4.18241C18.4229 4.64188 17.7998 4.9 17.15 4.9H9.8C8.50044 4.9 7.25411 5.41625 6.33518 6.33518C5.41625 7.25411 4.9 8.50044 4.9 9.8V17.15ZM44.1 17.15V9.8C44.1 8.50044 43.5838 7.25411 42.6648 6.33518C41.7459 5.41625 40.4996 4.9 39.2 4.9H31.85C31.2002 4.9 30.5771 4.64188 30.1176 4.18241C29.6581 3.72295 29.4 3.09978 29.4 2.45C29.4 1.80022 29.6581 1.17705 30.1176 0.717588C30.5771 0.258124 31.2002 0 31.85 0L39.2 0C41.7991 0 44.2918 1.0325 46.1296 2.87035C47.9675 4.70821 49 7.20088 49 9.8V17.15C49 17.7998 48.7419 18.4229 48.2824 18.8824C47.8229 19.3419 47.1998 19.6 46.55 19.6C45.9002 19.6 45.2771 19.3419 44.8176 18.8824C44.3581 18.4229 44.1 17.7998 44.1 17.15Z" fill="black"/>
<path d="M18.005 25.92C18.975 25.92 19.81 26.03 20.51 26.25C21.21 26.46 21.75 26.77 22.13 27.18C22.51 27.58 22.7 28.065 22.7 28.635C22.7 29.195 22.51 29.68 22.13 30.09C21.75 30.5 21.21 30.81 20.51 31.02C19.81 31.24 18.975 31.35 18.005 31.35C17.045 31.35 16.21 31.24 15.5 31.02C14.8 30.81 14.255 30.5 13.865 30.09C13.485 29.68 13.295 29.195 13.295 28.635C13.295 28.065 13.485 27.58 13.865 27.18C14.255 26.77 14.8 26.46 15.5 26.25C16.21 26.03 17.045 25.92 18.005 25.92ZM18.005 27.495C17.415 27.495 16.92 27.535 16.52 27.615C16.12 27.695 15.815 27.82 15.605 27.99C15.395 28.15 15.29 28.365 15.29 28.635C15.29 28.895 15.395 29.115 15.605 29.295C15.815 29.465 16.12 29.595 16.52 29.685C16.92 29.765 17.415 29.805 18.005 29.805C18.595 29.805 19.09 29.765 19.49 29.685C19.9 29.595 20.205 29.465 20.405 29.295C20.615 29.115 20.72 28.895 20.72 28.635C20.72 28.365 20.615 28.15 20.405 27.99C20.205 27.82 19.9 27.695 19.49 27.615C19.09 27.535 18.595 27.495 18.005 27.495ZM20.54 17.445H22.535V25.62H20.54V17.445ZM21.995 20.67H24.38V22.305H21.995V20.67ZM12.005 18.315H13.985V20.04H16.715V18.315H18.68V24.855H12.005V18.315ZM13.985 21.57V23.295H16.715V21.57H13.985ZM25.3988 24.3H37.9838V25.875H25.3988V24.3ZM30.8588 25.29H32.8538V28.215H30.8588V25.29ZM26.9438 18.015H36.3788V23.19H26.9438V18.015ZM34.4138 19.575H28.9088V21.615H34.4138V19.575ZM26.8538 29.49H36.5888V31.095H26.8538V29.49ZM26.8538 27.045H28.8488V30.03H26.8538V27.045Z" fill="black"/>
</svg>
