<svg width="73" height="44" viewBox="0 0 73 44" fill="none" xmlns="http://www.w3.org/2000/svg">
<path d="M48.3888 24C44.5402 24 41.2992 27.22 41.2992 31C41.2992 36.22 48.3888 44 48.3888 44C48.3888 44 55.4783 36.22 55.4783 31C55.4783 27.22 52.2374 24 48.3888 24ZM48.3888 33.62C46.9709 33.62 45.9581 32.42 45.9581 31.22C45.9581 29.82 47.1734 28.82 48.3888 28.82C49.6041 28.82 50.8195 30 50.8195 31.22C51.022 32.42 49.8067 33.62 48.3888 33.62ZM43.1425 44H25.0946C24.0202 44 22.9898 43.5786 22.23 42.8284C21.4703 42.0783 21.0435 41.0609 21.0435 40V4C21.0435 1.78 22.8462 0 25.0946 0H45.3504C46.4248 0 47.4553 0.421427 48.215 1.17157C48.9747 1.92172 49.4015 2.93913 49.4015 4V20.06C49.0775 20 48.7331 20 48.3888 20C47.376 20 46.3632 20.16 45.3504 20.44V8H25.0946V36H38.3419C39.5572 39 41.5423 41.94 43.1425 44Z" fill="black"/>
<path d="M2.04545 25.3979C2.04545 23.6176 2.27983 21.9793 2.74858 20.4831C3.21733 18.9869 3.90152 17.6067 4.80114 16.3425H6.74716C6.39678 16.8112 6.07008 17.3865 5.76705 18.0683C5.46402 18.7502 5.19886 19.4983 4.97159 20.3127C4.74432 21.1223 4.56676 21.9627 4.43892 22.834C4.31108 23.7004 4.24716 24.5551 4.24716 25.3979C4.24716 26.5248 4.35843 27.6659 4.58097 28.8212C4.8035 29.9765 5.10417 31.0489 5.48295 32.0385C5.86174 33.0281 6.28314 33.8354 6.74716 34.4604H4.80114C3.90152 33.1962 3.21733 31.816 2.74858 30.3198C2.27983 28.8235 2.04545 27.1829 2.04545 25.3979ZM9.60405 25.3979C9.60405 23.6176 9.83842 21.9793 10.3072 20.4831C10.7759 18.9869 11.4601 17.6067 12.3597 16.3425H14.3058C13.9554 16.8112 13.6287 17.3865 13.3256 18.0683C13.0226 18.7502 12.7575 19.4983 12.5302 20.3127C12.3029 21.1223 12.1254 21.9627 11.9975 22.834C11.8697 23.7004 11.8058 24.5551 11.8058 25.3979C11.8058 26.5248 11.917 27.6659 12.1396 28.8212C12.3621 29.9765 12.6628 31.0489 13.0415 32.0385C13.4203 33.0281 13.8417 33.8354 14.3058 34.4604H12.3597C11.4601 33.1962 10.7759 31.816 10.3072 30.3198C9.83842 28.8235 9.60405 27.1829 9.60405 25.3979Z" fill="black"/>
<path d="M70.6502 24.3413C70.6502 26.1216 70.4158 27.7598 69.9471 29.256C69.4783 30.7522 68.7941 32.1324 67.8945 33.3967L65.9485 33.3967C66.2989 32.9279 66.6256 32.3526 66.9286 31.6708C67.2316 30.989 67.4968 30.2409 67.7241 29.4265C67.9513 28.6168 68.1289 27.7764 68.2567 26.9052C68.3846 26.0387 68.4485 25.1841 68.4485 24.3413C68.4485 23.2144 68.3372 22.0733 68.1147 20.918C67.8921 19.7627 67.5915 18.6902 67.2127 17.7006C66.8339 16.711 66.4125 15.9038 65.9485 15.2788H67.8945C68.7941 16.543 69.4783 17.9232 69.9471 19.4194C70.4158 20.9156 70.6502 22.5562 70.6502 24.3413ZM63.0916 24.3413C63.0916 26.1216 62.8572 27.7598 62.3885 29.256C61.9197 30.7522 61.2355 32.1324 60.3359 33.3967H58.3899C58.7403 32.9279 59.067 32.3526 59.37 31.6708C59.673 30.989 59.9382 30.2409 60.1655 29.4265C60.3927 28.6168 60.5703 27.7764 60.6981 26.9052C60.826 26.0387 60.8899 25.1841 60.8899 24.3413C60.8899 23.2144 60.7786 22.0733 60.5561 20.918C60.3336 19.7627 60.0329 18.6902 59.6541 17.7006C59.2753 16.711 58.8539 15.9038 58.3899 15.2788L60.3359 15.2788C61.2355 16.543 61.9197 17.9232 62.3885 19.4194C62.8572 20.9156 63.0916 22.5562 63.0916 24.3413Z" fill="black"/>
</svg>
