<svg width="46" height="49" viewBox="0 0 46 49" fill="none" xmlns="http://www.w3.org/2000/svg">
<path d="M45.9973 1.51968C45.9973 1.51094 46 1.50274 46 1.49399C46 1.09804 45.8424 0.71829 45.5619 0.43816C45.2814 0.158029 44.9009 0.000434629 44.504 0H17.2785V0.00601297L0.0016441 17.2413H0V47.5066H0.0016441C0.00222471 47.9026 0.160308 48.2828 0.441194 48.5627C0.722081 48.8426 1.10282 48.9999 1.49983 49H44.5051C44.8462 48.9994 45.1769 48.8826 45.4423 48.6688C45.7077 48.455 45.8919 48.1572 45.9644 47.8247H45.9973V47.5317C45.9973 47.5235 45.9995 47.5158 45.9995 47.5076C45.9995 47.4994 45.9973 47.4918 45.9973 47.4836V1.51968ZM32.6659 5.44299H40.541V18.8889L30.6153 8.98691L32.6659 5.44299ZM17.2845 18.7348C17.6804 18.7333 18.0597 18.5755 18.3392 18.2958C18.6187 18.0161 18.7758 17.6374 18.7761 17.2424V5.44299H29.5101L14.6213 31.1683L5.45628 22.0256V18.7348H17.2845ZM5.45628 43.5576V25.8817L13.2064 33.6129L7.45149 43.5576H5.45628ZM10.6073 43.5576L29.2004 11.4315L40.5415 22.745V43.5576H10.6073Z" fill="black"/>
<path d="M31.4992 22C27.908 22 25 24.8721 25 28.4123C25 29.8299 25.4718 31.1361 26.2614 32.1976L30.4545 39.3627C30.4799 39.4128 30.507 39.4619 30.5394 39.5072L30.548 39.5216L30.5502 39.5205C30.6538 39.6628 30.789 39.7798 30.9454 39.8628C31.1019 39.9457 31.2754 39.9923 31.4529 39.9991C31.6303 40.0059 31.807 39.9727 31.9694 39.9019C32.1319 39.8312 32.2759 39.7248 32.3904 39.5909L32.4012 39.5968L32.4417 39.528C32.5047 39.4466 32.5568 39.3575 32.5968 39.263L36.7084 32.2371C37.5469 31.1333 38.0001 29.7911 38 28.4117C37.9984 24.8721 35.0903 22 31.4992 22ZM31.4349 31.6629C31.0143 31.663 30.5978 31.5814 30.2093 31.4227C29.8207 31.264 29.4676 31.0314 29.1702 30.738C28.8728 30.4447 28.6369 30.0964 28.4759 29.713C28.315 29.3297 28.2322 28.9189 28.2323 28.504C28.2322 27.879 28.4199 27.2681 28.7718 26.7485C29.1236 26.2289 29.6237 25.8238 30.2089 25.5846C30.7941 25.3454 31.4381 25.2827 32.0593 25.4046C32.6806 25.5264 33.2513 25.8273 33.6993 26.2691C34.1472 26.711 34.4523 27.2739 34.5759 27.8868C34.6995 28.4997 34.6361 29.135 34.3937 29.7124C34.1513 30.2897 33.7409 30.7832 33.2142 31.1304C32.6875 31.4776 32.0683 31.6629 31.4349 31.6629Z" fill="black"/>
</svg>
